<?xml version="1.0" standalone="no"?>
<!DOCTYPE svg PUBLIC "-//W3C//DTD SVG 1.1//EN" "http://www.w3.org/Graphics/SVG/1.1/DTD/svg11.dtd" >
<svg xmlns="http://www.w3.org/2000/svg">
<metadata></metadata>
<defs>
<font id="kg_when_oceans_riseregular" horiz-adv-x="980" >
<font-face units-per-em="2048" ascent="1638" descent="-410" />
<missing-glyph horiz-adv-x="502" />
<glyph horiz-adv-x="2048" />
<glyph horiz-adv-x="2048" />
<glyph unicode="&#xd;" horiz-adv-x="502" />
<glyph unicode=" "  horiz-adv-x="502" />
<glyph unicode="&#x09;" horiz-adv-x="502" />
<glyph unicode="&#xa0;" horiz-adv-x="502" />
<glyph unicode="!" horiz-adv-x="292" d="M70 1496q4 26 23 40t41 14t40 -13t20 -39q-10 -84 -14 -193t-5 -228t1 -239t7 -224t11 -184t14 -118q0 -26 -20 -41t-43 -16t-42 11t-19 38q-4 70 -2 373t-12 819zM88 52q0 26 18 48t54 22t55 -22t19 -48t-18 -48t-56 -22q-36 0 -54 22t-18 48z" />
<glyph unicode="&#x22;" horiz-adv-x="520" d="M99 1195q11 21 30 27t40 -2t27 -32q8 -26 21 -64t21 -85t4 -102t-30 -115q-8 -18 -27 -24t-37 -2t-28 19t0 37q16 38 22 69t4 64t-13 70t-31 85q-14 34 -3 55zM307 1207q11 21 30 27t40 -2t27 -32q8 -26 21 -64t21 -85t4 -102t-30 -115q-8 -18 -27 -24t-37 -2t-28 19 t0 37q16 38 22 69t4 64t-13 70t-31 85q-14 34 -3 55z" />
<glyph unicode="#" horiz-adv-x="1166" d="M114 866q0 22 13 41t39 23q56 -2 112 -1t112 5q4 76 6 137t-2 105q4 26 25 40t44 14t41 -13t14 -39q-2 -18 -4 -38t-5 -47t-8 -63t-11 -88q52 4 103 9t99 11q4 74 5 135t-1 103q4 26 25 40t44 15t41 -12t14 -39q-4 -36 -10 -83t-18 -143q72 10 131 23t99 25q26 2 40 -17 t16 -42t-10 -43t-38 -22q-20 -4 -40 -6t-48 -5t-66 -6t-94 -9q-4 -42 -10 -93t-12 -111q84 12 153 26t115 28q26 2 41 -17t17 -42t-10 -43t-38 -22q-22 -4 -44 -6t-54 -5t-78 -8t-112 -11q-6 -52 -11 -109t-11 -121q-8 -28 -30 -40t-44 -11t-38 15t-12 40q24 102 42 214 q-42 -4 -92 -10t-108 -12q-4 -50 -9 -104t-11 -116q-8 -28 -29 -40t-43 -12t-38 14t-14 40q12 52 21 103t19 103q-40 -4 -80 -10t-86 -10q-28 2 -41 21t-13 41t13 40t39 22q46 -2 93 -2t93 4q8 52 13 102t9 96q-48 -6 -100 -11t-112 -13q-28 2 -42 20t-14 40zM458 638 q52 4 103 9t99 11q16 110 24 206q-42 -4 -93 -9t-111 -13q-4 -42 -10 -93t-12 -111z" />
<glyph unicode="$" horiz-adv-x="1016" d="M58 592q-4 24 6 40t25 23t34 5t33 -12q16 -12 20 -38q8 -96 37 -177t73 -144t101 -107t123 -66q4 134 3 315t-5 375q-66 50 -129 102t-112 113t-79 134t-28 165q2 66 22 130t58 117t94 90t132 49q-4 26 -6 40q0 26 20 40t43 16t42 -10t19 -38v-18t2 -28q88 -12 149 -64 t97 -128t48 -168t2 -184q-2 -18 -19 -28t-35 -10t-33 10t-15 28q4 84 -5 158t-31 133t-61 99t-95 52q4 -126 8 -324t10 -430q74 -54 145 -110t123 -124t77 -151t5 -191q-12 -60 -40 -113t-71 -92t-98 -61t-121 -22q0 -8 1 -15t1 -15q-4 -28 -24 -41t-42 -13t-41 13t-21 39 q2 10 2 23t2 25q-78 20 -149 68t-130 121t-102 173t-65 226zM270 1322q-2 -66 16 -121t51 -103t76 -90t93 -80q-6 200 -14 379t-18 297q-50 -12 -88 -40t-64 -66t-39 -84t-13 -92zM608 730l8 -324t8 -314h22q44 0 79 17t61 47t41 69t21 81q8 72 -8 131t-50 110t-81 96 t-101 87z" />
<glyph unicode="%" horiz-adv-x="1218" d="M87 1190q-5 66 3 130q12 84 38 152t60 115t73 71t75 20q38 -6 73 -29t58 -73t32 -132t-5 -206q-18 -170 -90 -249t-162 -63q-46 8 -78 47t-52 95t-25 122zM102 71q-8 21 4 45q40 48 100 137t131 202t149 243t155 260t148 255t127 227t95 175t49 101q14 22 39 24t45 -10 t29 -32t-5 -42q-12 -20 -62 -106t-127 -216t-173 -292t-197 -334t-203 -343t-190 -317q-18 -20 -42 -21t-44 11t-28 33zM184 1225q0 -43 8 -83t26 -69t48 -35q28 -4 50 12t38 46t28 73t18 93q8 58 8 113t-10 97t-29 66t-49 22q-52 -6 -86 -82t-46 -178q-4 -32 -4 -75z M751 280q-5 66 3 130q12 84 38 152t60 115t73 71t75 20q38 -6 73 -29t58 -73t32 -132t-5 -206q-18 -170 -90 -249t-162 -63q-46 8 -78 47t-52 95t-25 122zM848 315q0 -43 8 -83t26 -69t48 -35q28 -4 50 12t38 46t28 73t18 93q8 58 8 113t-10 97t-29 66t-49 22 q-52 -6 -86 -82t-46 -178q-4 -32 -4 -75z" />
<glyph unicode="&#x26;" horiz-adv-x="1040" d="M88 260q-12 44 3 87t47 81t75 70t85 57t77 42t51 25q-32 -6 -83 -10t-99 5t-83 37t-35 82q0 78 60 130t147 83t184 45t173 14q-12 70 -22 121t-21 97t-21 93t-22 111q-4 18 10 31t31 18t32 0t15 -21q10 -54 20 -101t21 -98t24 -108t27 -129q12 -62 -21 -87t-91 -27 q-112 -4 -197 -21t-141 -41t-82 -51t-20 -49q2 -12 25 -24t74 -16t133 6t200 44q18 4 29 -11t15 -35t0 -38t-18 -18q-84 -38 -180 -87t-174 -98t-125 -96t-35 -79q14 -38 53 -47t91 4t112 43t119 67t110 77t87 76q38 36 69 43t53 -5t32 -36t4 -50q-10 -60 -16 -94t-11 -58 t-10 -46t-12 -56t-16 -87t-23 -141q-4 -18 -22 -25t-38 -3t-34 18t-8 38q28 110 49 210t39 206q-52 -48 -120 -99t-141 -92t-146 -68t-136 -30t-109 25t-64 96z" />
<glyph unicode="'" horiz-adv-x="364" d="M99 1195q11 21 30 27t40 -2t27 -32q8 -26 21 -64t21 -85t4 -102t-30 -115q-8 -18 -27 -24t-37 -2t-28 19t0 37q16 38 22 69t4 64t-13 70t-31 85q-14 34 -3 55z" />
<glyph unicode="(" horiz-adv-x="508" d="M76 489q-4 113 0 219q6 96 22 232t49 279t86 276t131 223q20 22 40 21t34 -15t19 -32t-5 -30q-80 -92 -131 -222t-82 -264t-45 -257t-18 -203q-6 -100 0 -213t24 -223t49 -206t73 -164q10 -16 2 -34t-25 -29t-35 -13t-26 12q-54 92 -88 199t-52 219t-22 225z" />
<glyph unicode=")" horiz-adv-x="500" d="M49 1692q5 18 19 32t34 15t40 -21q78 -90 131 -223t86 -276t49 -279t22 -232q4 -106 0 -219t-22 -225t-52 -219t-88 -199q-8 -14 -26 -12t-35 13t-25 29t2 34q42 68 73 164t49 206t24 223t0 213q-4 80 -18 203t-45 257t-82 264t-131 222q-10 12 -5 30z" />
<glyph unicode="*" horiz-adv-x="944" d="M72 695q-6 19 3 37t28 30t45 6q70 -26 122 -44t110 -32q-18 26 -51 66t-79 110q-10 26 0 48t29 33t41 9t36 -24q30 -66 51 -117t43 -89q12 52 21 113t29 149q12 26 34 34t43 4t36 -21t9 -43q-28 -70 -53 -129t-39 -117q34 20 83 59t95 83q26 10 47 0t33 -29t9 -41 t-25 -36q-66 -28 -117 -55t-87 -49q82 -16 140 -16t114 -2q26 -6 35 -29t6 -46t-19 -39t-42 -10q-22 4 -40 10t-44 14t-67 19t-107 25q34 -54 62 -85t66 -71q12 -24 3 -46t-28 -36t-41 -13t-34 23q-18 36 -31 61t-22 45t-17 36t-18 32l-14 -70t-9 -56t-5 -50t-4 -50 q-6 -26 -29 -35t-46 -5t-38 20t-9 42q4 20 11 36t17 38t22 59t28 103q-54 -36 -86 -69t-72 -67q-22 -14 -44 -5t-35 28t-13 42t24 35q16 12 28 18t29 14t44 23t75 43q-52 10 -113 21t-143 29q-24 10 -30 29z" />
<glyph unicode="+" horiz-adv-x="1168" d="M92 682q0 22 13 40t39 18q92 -12 184 -17t182 -5q2 74 2 165v205q6 26 26 40t42 14t39 -14t17 -40q-14 -94 -20 -187t-10 -183q126 4 228 12t166 20q26 0 40 -20t16 -43t-10 -42t-38 -19q-24 -2 -52 -2h-71h-110h-169q0 -126 6 -228t16 -164q0 -26 -20 -40t-43 -15 t-42 11t-19 38v51t1 70t2 109t3 166q-74 0 -163 -2t-201 -4q-28 4 -41 24t-13 42z" />
<glyph unicode="," horiz-adv-x="266" d="M57 223q11 21 30 27t40 -2t27 -32q8 -26 21 -64t21 -85t4 -102t-30 -115q-8 -18 -27 -24t-37 -2t-28 19t0 37q16 38 22 69t4 64t-13 70t-31 85q-14 34 -3 55z" />
<glyph unicode="-" horiz-adv-x="1114" d="M82 676q0 22 13 40t39 18q126 -16 253 -20t242 -1t209 12t152 19q26 0 40 -20t16 -43t-10 -42t-38 -19q-34 -2 -77 -2h-132t-243 -1t-410 -7q-28 4 -41 24t-13 42z" />
<glyph unicode="." horiz-adv-x="304" d="M68 72q0 26 18 48t56 22q36 0 54 -22t18 -48t-18 -48t-54 -22t-55 22t-19 48z" />
<glyph unicode="/" horiz-adv-x="744" d="M14 62q30 56 70 149t86 209t94 248t95 264t90 258t76 229t55 176t28 103q10 24 34 31t46 -1t35 -26t3 -42q-8 -22 -38 -108t-76 -215t-104 -291t-121 -338t-128 -354t-125 -338q-14 -24 -37 -29t-44 4t-34 28t-5 43z" />
<glyph unicode="0" horiz-adv-x="942" d="M44 854q14 168 57 332t110 290t153 200t184 64q102 -12 176 -102t121 -228t64 -307t5 -339q-10 -156 -46 -297t-96 -247t-142 -167t-184 -55q-124 8 -207 83t-131 193t-63 269t-1 311zM149 595q5 -125 36 -230t95 -177t170 -88q72 -12 134 43t109 151t78 219t43 249 q12 144 -2 296t-52 278t-98 208t-142 84q-68 2 -130 -73t-111 -191t-82 -255t-43 -267q-10 -122 -5 -247z" />
<glyph unicode="1" horiz-adv-x="294" d="M54 1664q0 26 20 40t43 16t42 -10t19 -38q2 -22 4 -105t5 -208t7 -282t7 -331t8 -356t9 -352q-4 -28 -24 -41t-42 -13t-41 13t-21 39q10 84 13 226t1 310t-7 345t-12 330t-15 265t-16 152z" />
<glyph unicode="2" horiz-adv-x="1042" d="M37 91q5 25 27 45q64 58 147 155t169 217t167 254t139 267t85 256t7 219q-18 82 -87 109t-159 -5t-188 -124t-172 -244q-10 -18 -32 -19t-43 10t-33 30t0 39q108 182 235 282t243 133t205 5t121 -102q50 -112 37 -246t-65 -277t-134 -285t-172 -271t-179 -237t-153 -180 q56 4 155 21t207 40t207 50t157 53q30 14 53 -1t32 -41t0 -53t-43 -35q-82 -22 -198 -50t-239 -53t-239 -42t-196 -17q-20 0 -36 15t-23 36t-2 46z" />
<glyph unicode="3" horiz-adv-x="1052" d="M52 278q4 28 19 43t36 14t37 -31q20 -42 61 -79t92 -64t109 -41t116 -10q90 6 164 43t126 99t80 147t26 187q-2 76 -39 127t-92 81t-123 42t-135 11t-124 -12t-91 -27q-18 -10 -37 5t-30 38t-8 46t31 31q16 6 57 30t95 62t112 91t107 115t83 132t40 146q4 52 -25 83 t-71 41q-66 14 -139 1t-144 -44t-134 -74t-111 -89q-24 -22 -42 -19t-27 19t-8 38t11 34q76 90 167 141t178 75t159 27t110 -3q32 -6 65 -19t59 -36t42 -58t16 -85q-2 -80 -36 -167t-90 -169t-125 -150t-141 -110q126 18 227 -6t172 -76t108 -125t37 -153q-2 -108 -32 -207 t-92 -177t-155 -128t-219 -62q-116 -10 -239 46t-215 172q-22 26 -18 54z" />
<glyph unicode="4" horiz-adv-x="1062" d="M60 1596q0 26 20 40t43 16t42 -10t19 -38q2 -34 2 -75t1 -123t3 -222t8 -370q26 0 65 1t103 1t159 1t235 5q-4 144 -9 284t-11 257t-13 201t-13 116q0 26 20 40t43 16t42 -10t19 -38q2 -22 4 -99t4 -192t5 -263t7 -310q28 0 58 1t62 3q26 -4 40 -23t14 -41t-13 -40 t-39 -20q-30 4 -60 6t-58 4q4 -164 8 -332t8 -328q-4 -28 -24 -41t-42 -13t-41 13t-21 39q6 50 9 122t4 159t1 186t-2 201q-172 8 -321 0t-247 -24q-54 -8 -87 7t-27 81q12 120 14 241t-2 229t-13 197t-19 145z" />
<glyph unicode="5" horiz-adv-x="1054" d="M51 121q-3 23 5 43t26 29t42 -9q86 -62 181 -72t179 24q86 36 161 106t132 155t90 175t33 166q0 98 -38 154t-99 81t-138 23t-156 -21t-151 -51t-122 -64q-22 -14 -42 -15t-36 7t-26 22t-8 30q8 86 7 185t-7 193t-14 174t-16 128q-8 54 6 86t80 26q122 -10 236 -10t214 7 t181 18t137 21q26 0 41 -19t17 -43t-10 -43t-38 -19q-22 -2 -43 -3t-53 -2t-80 -3t-123 -5t-184 -7t-263 -8q2 -52 4 -200t8 -398q66 40 154 69t181 41t182 1t158 -51t109 -114t34 -190q-4 -90 -41 -194t-100 -201t-148 -178t-183 -125q-106 -46 -222 -41t-236 87 q-18 12 -21 35z" />
<glyph unicode="6" horiz-adv-x="964" d="M39 780q19 186 69 362q52 184 131 335t167 239q24 24 48 24t41 -12t22 -32t-9 -34q-34 -34 -75 -86t-84 -122t-82 -156t-69 -190q-40 -138 -60 -303t-6 -357q4 -60 24 -126t53 -118t79 -83t104 -23q-2 80 5 181t24 206t45 205t69 178t95 123t122 43q52 -2 92 -38t63 -98 t27 -144t-16 -176q-22 -104 -74 -206t-123 -183t-153 -134t-166 -57q-82 -4 -145 32t-109 97t-73 136t-35 149q-20 182 -1 368zM492 126q38 8 86 48t93 98t84 132t59 152q18 72 23 135t-5 111t-34 78t-60 34t-68 -38t-60 -112t-50 -159t-38 -178t-24 -169t-6 -132z" />
<glyph unicode="7" horiz-adv-x="1048" d="M36 1519q-4 23 5 43t35 24q60 0 138 14t179 35t230 48t293 53q34 8 54 1t30 -22t9 -36t-9 -41q-6 -22 -31 -104t-62 -206t-85 -281t-101 -327t-110 -346t-111 -338q-12 -24 -36 -30t-45 2t-34 27t-5 43q32 66 77 185t94 265t99 306t95 310t81 277t56 207 q-138 -22 -266 -47t-233 -48t-179 -41t-104 -28q-26 -4 -43 14t-21 41z" />
<glyph unicode="8" horiz-adv-x="946" d="M45 377q-5 103 29 207t106 199t184 159q-76 40 -140 118t-96 174q-42 128 -24 223t74 158t139 93t171 30q86 0 165 -32t129 -93t59 -152t-43 -211q-36 -84 -102 -159t-158 -127q134 -58 218 -152t120 -201t25 -215t-66 -195t-155 -142t-240 -55q-126 0 -212 52t-132 135 t-51 186zM159 439q-9 -91 17 -165t93 -120t183 -44q126 2 204 52t111 126t25 167t-50 177t-116 156t-172 102q-80 -38 -144 -112t-103 -161t-48 -178zM211 1433q-13 -67 17 -157q14 -44 39 -87t55 -79t64 -62t68 -34q76 46 143 113t101 145q38 90 31 158t-43 114t-91 69 t-115 23t-119 -23t-98 -68t-52 -112z" />
<glyph unicode="9" d="M68 1095q2 77 19 150t49 127q64 112 141 186t160 113t169 43t170 -24q4 24 24 38t43 17t40 -8t17 -35q0 -22 2 -106t4 -210t5 -286t6 -335t7 -358t8 -353q-4 -28 -24 -41t-42 -13t-41 13t-21 39q6 64 7 166t0 225t-4 259t-5 268q-98 -124 -212 -193t-204 -77 q-88 -6 -149 26t-99 88t-55 130t-15 151zM170 1152q-12 -94 6 -172t69 -126t139 -40q44 4 100 27t114 65t111 100t93 130q-2 128 -6 224t-8 178q-58 62 -136 71t-158 -24t-152 -100t-118 -157q-42 -82 -54 -176z" />
<glyph unicode=":" horiz-adv-x="310" d="M80 876q0 26 18 48t56 22q36 0 54 -22t18 -48t-18 -48t-54 -22t-55 22t-19 48zM92 408q0 26 18 48t56 22q36 0 54 -22t18 -48t-18 -48t-54 -22t-55 22t-19 48z" />
<glyph unicode=";" horiz-adv-x="318" d="M72 478q0 26 18 48t56 22q36 0 54 -22t18 -48t-18 -48t-54 -22t-55 22t-19 48zM101 227q11 21 30 27t40 -2t27 -32q8 -26 21 -64t21 -85t4 -102t-30 -115q-8 -18 -27 -24t-37 -2t-28 19t0 37q16 38 22 69t4 64t-13 70t-31 85q-14 34 -3 55z" />
<glyph unicode="&#x3c;" horiz-adv-x="710" d="M52 629q-2 25 15 49t53 36q136 44 229 91t177 99q20 12 39 4t30 -26t9 -41t-26 -39q-94 -52 -181 -89t-171 -85q30 -10 60 -22t70 -27t94 -34t134 -43q36 -10 46 -35t2 -47t-32 -34t-58 4q-54 24 -102 44t-96 39t-102 37t-120 38q-32 10 -50 33t-20 48z" />
<glyph unicode="=" horiz-adv-x="1166" d="M82 798q0 22 13 40t39 18q126 -16 253 -20t242 -1t209 12t152 19q26 0 40 -20t16 -43t-10 -42t-38 -19q-34 -2 -77 -2h-132t-243 -1t-410 -7q-28 4 -41 24t-13 42zM86 498q0 22 13 40t39 18q126 -16 253 -20t242 -1t209 12t152 19q26 0 40 -20t16 -43t-10 -42t-38 -19 q-34 -2 -77 -2h-132t-243 -1t-410 -7q-28 4 -41 24t-13 42z" />
<glyph unicode="&#x3e;" horiz-adv-x="718" d="M68 420q-8 22 2 47t46 35q80 24 134 43t94 34t70 27t60 22q-84 48 -171 85t-181 89q-24 16 -26 39t8 41t30 26t40 -4q84 -52 177 -99t229 -91q36 -12 53 -36t15 -49t-20 -48t-50 -33q-66 -20 -120 -38t-102 -37t-96 -39t-102 -44q-34 -16 -58 -4t-32 34z" />
<glyph unicode="?" horiz-adv-x="958" d="M28 1272q-12 102 18 190t91 154t150 102t197 32q88 -4 173 -37t149 -100t101 -167t29 -234q-10 -164 -139 -284t-355 -158q0 -40 2 -73t3 -69t3 -80t4 -106q-4 -28 -23 -41t-41 -13t-40 13t-20 39q6 44 8 78t3 66t1 66v78q0 28 -1 56t8 50t34 38t77 20q62 4 126 32 t117 71t87 100t36 119q2 116 -26 196t-75 131t-105 76t-114 29q-72 6 -141 -15t-123 -68t-85 -120t-27 -171q0 -18 -15 -28t-33 -10t-35 10t-19 28zM310 66q0 26 18 48t56 22q36 0 54 -22t18 -48t-18 -48t-54 -22t-55 22t-19 48z" />
<glyph unicode="@" horiz-adv-x="1310" d="M64 528q-2 116 24 232t74 221t118 193t157 150t191 92t220 20q112 -10 188 -51t124 -107t71 -154t29 -196q6 -130 -21 -224t-74 -152t-109 -81t-126 -7q-20 6 -40 20t-37 32t-28 39t-15 39q-22 -40 -52 -76t-67 -62t-82 -41t-93 -11q-92 6 -133 57t-42 124t32 157t88 154 t126 113t149 37q48 -4 75 -23t40 -49t16 -68t5 -80q0 -28 1 -72t10 -86t26 -75t49 -35q64 -6 103 36t60 103t27 128t4 113q-4 72 -19 138t-47 119t-84 88t-132 43q-144 20 -274 -41t-228 -175t-153 -267t-47 -315q2 -72 22 -145t59 -133t97 -101t138 -49q96 -10 189 14 t175 68t149 103t113 123q6 8 26 9t39 -5t31 -19t2 -33q-50 -94 -142 -166t-198 -119t-210 -68t-176 -15q-86 8 -161 52t-131 115t-90 166t-36 203zM435 623q-7 -53 9 -91t64 -42q82 -6 133 41t78 119t35 153t6 143q-62 8 -117 -22t-99 -79t-73 -109t-36 -113z" />
<glyph unicode="A" horiz-adv-x="1174" d="M32 74q44 76 111 220t143 320q-12 -4 -23 -7t-21 -7q-26 -4 -44 13t-23 40t4 43t35 24q24 6 53 11t75 13q62 146 122 293t110 274t86 224t48 143q6 18 25 30t40 14h6q18 0 34 -9q19 -11 23 -41q6 -40 19 -119t32 -186t41 -237t46 -272l44 8l44 8q28 0 44 -16t20 -38 q1 -6 1 -12q0 -15 -7 -30q-10 -20 -36 -26l-90 -6q28 -176 59 -352t59 -342q0 -28 -18 -44t-40 -19q-5 -1 -10 -1q-17 0 -33 8q-21 10 -27 36q-2 52 -9 128t-19 167t-28 196t-34 213q-136 -16 -260 -39t-224 -47q-68 -162 -134 -322t-126 -304q-14 -24 -38 -28t-45 5t-33 29 q-7 11 -7 23q0 10 5 21zM458 764q70 12 171 29t247 45q-16 90 -32 179t-33 173t-32 159t-29 135q-26 -64 -58 -145t-70 -174t-79 -195t-85 -206z" />
<glyph unicode="B" horiz-adv-x="1076" d="M70 1676q0 26 20 40t43 16h6q19 0 36 -10q19 -12 19 -38q0 -16 2 -52t4 -92q104 102 207 147t190 45t148 -39t79 -105q8 -29 8 -62q0 -35 -9 -74q-17 -76 -57 -152t-96 -146t-118 -118q74 32 153 37q13 1 25 1q64 0 120 -22q66 -26 113 -87t57 -159q3 -36 3 -70 q0 -88 -22 -166q-31 -108 -91 -196t-141 -155t-171 -113q-168 -86 -358 -86q-10 -18 -29 -28t-39 -10t-36 11t-18 35q8 82 11 224q2 71 1.5 149t-1.5 163q-3 170 -10 349t-15 335t-17 271t-17 157zM204 1396q4 -102 7 -226t7 -266q106 50 205 133t171 177t110 187 q28 68 28 123q0 20 -4 38q-10 48 -66 65q-26 8 -58 8q-35 0 -76 -10q-78 -19 -165 -75t-159 -154zM222 778q4 -162 10 -330t10 -330h18q158 0 292 68q86 42 158 107t122 145t75 170q18 64 18 131q0 27 -3 53q-10 88 -53 129t-105 49q-20 3 -41 3q-44 0 -92 -12 q-71 -17 -135 -41q-84 -32 -157 -71t-117 -71z" />
<glyph unicode="C" horiz-adv-x="1082" d="M60 730q6 92 24 203t50 224t80 219t113 187t148 127q73 41 163 41q12 0 24 -1q66 -6 112 -42t77 -91t47 -123t23 -139q6 -62 6 -122v-17q-1 -68 -5 -122q-2 -28 -23 -43t-45 -16t-42 11t-14 38q16 120 16 215q0 113 -23 188q-43 139 -145 149q-9 1 -18 1q-67 0 -123 -40 q-63 -45 -114 -122t-89 -177t-64 -202t-41 -198t-19 -166q-3 -53 -3 -104q0 -60 4 -117q7 -107 41 -192t100 -138t176 -55h13q54 0 111 15q64 17 122 61t103 121t67 195q6 38 29 53t45 11t37 -27q10 -15 10 -37q0 -12 -3 -26q-30 -136 -87 -228t-131 -148t-158 -80t-166 -24 q-140 0 -226 69t-133 177t-61 239q-10 92 -10 179q0 37 2 74z" />
<glyph unicode="D" horiz-adv-x="1066" d="M21 1607q0 18 10 37q11 20 37 26q6 2 13 3t13 3q6 18 22 29t35 14q6 1 12 1q12 0 24 -4q17 -6 25 -22q42 4 83 4q52 0 103 -6q92 -10 175 -37t154 -71t125 -104q62 -70 98 -152t49 -171q8 -55 8 -112q0 -35 -3 -71q-8 -94 -34 -186q-40 -134 -111 -244t-166 -199 t-206 -157t-231 -118q0 -10 1 -17t1 -15q-4 -26 -22 -39t-39 -15h-7q-17 0 -33 8q-19 10 -25 32q-32 -10 -56 -16q-24 -4 -37 10t-16 35t5 40t28 25l40 12t42 10q6 92 7 215v83q0 85 -1 176q-2 136 -6 277t-9 270t-12 237t-13 178q-10 -4 -20 -6t-20 -6q-20 -6 -31 7 q-12 14 -12 36zM220 1598q2 -84 6 -237t9 -345t9 -409t10 -429q96 38 190 99t176 142t146 180t100 213q24 80 33 163q4 37 4 74q0 45 -6 88q-11 79 -43 150t-88 131q-50 50 -113 87t-135 60t-148 31q-43 5 -86 5q-32 0 -64 -3z" />
<glyph unicode="E" horiz-adv-x="1024" d="M54 1664q0 26 20 40t43 16t42 -10t19 -38v-26q34 4 75 8t117 13t202 22t330 35q26 -2 41 -20t17 -40t-9 -41t-37 -23q-56 2 -110 2q-167 0 -307 -19q-185 -25 -315 -53q4 -102 7 -259t7 -345q42 2 89 8t116 14t169 19t248 27q26 -2 41 -20t17 -40t-9 -41t-37 -23 q-52 2 -102 2q-132 0 -241 -12q-151 -16 -289 -40q4 -172 9 -350t9 -354q34 2 76 7t118 13t200 21t322 35q26 -2 41 -20t17 -40v-7q0 -18 -9 -34q-11 -19 -37 -23q-50 2 -97 2q-72 0 -140 -4q-113 -6 -211 -18t-179 -28t-141 -32q-13 -5 -25 -5l-31 7q-28 12 -30 46 q10 84 13 226q2 85 2 180q0 63 -1 130q-2 168 -7 345t-12 330t-15 265t-16 152z" />
<glyph unicode="F" horiz-adv-x="978" d="M54 1664q0 26 20 40t43 16t42 -10t19 -38v-26q34 4 73 8t114 13t200 22t329 35q26 -2 41 -20t17 -40v-7q0 -18 -9 -34q-11 -19 -37 -23q-56 2 -109 2q-166 0 -304 -19q-181 -25 -311 -53q4 -102 7 -259t7 -345q42 2 88 8t113 14t166 19t247 27q26 -2 41 -20t17 -40 t-9 -41t-37 -23q-52 2 -101 2q-131 0 -238 -12q-147 -16 -285 -40q4 -192 9 -391t11 -391q-4 -28 -24 -41t-42 -13t-41 13t-21 39q10 84 13 226q2 85 2 180q0 63 -1 130q-2 168 -7 345t-12 330t-15 265t-16 152z" />
<glyph unicode="G" horiz-adv-x="1200" d="M60 730q6 92 24 203t50 224t80 219t113 187t148 127q73 41 163 41q12 0 24 -1q78 -6 131 -55t84 -120t43 -157q9 -64 9 -126q0 -20 -1 -40q-2 -28 -21 -44t-40 -19t-39 8t-16 39q2 35 2 66q0 142 -37 225q-45 101 -131 109q-9 1 -19 1q-67 0 -123 -39q-64 -44 -115 -120 t-90 -173t-66 -198t-42 -196t-19 -165q-2 -46 -2 -90q0 -67 5 -132q9 -108 43 -194t97 -141t163 -63q12 -1 24 -1q62 0 118 27q66 32 118 86t87 125t51 143q10 47 10 87q0 47 -14 84q-26 69 -76 95q-26 14 -70 18q-25 2 -52 2q-21 0 -42 -1q-50 -3 -101 -12t-91 -23 q-28 -4 -42 15t-15 44t11 45t38 20q24 2 35 4t28 5t50 7t100 8t176 9t281 9q26 -4 40 -23t14 -41t-13 -40t-39 -20q-106 12 -188 12q58 -60 74 -146q7 -38 7 -78q0 -50 -11 -102q-18 -88 -62 -172t-109 -151t-148 -108t-179 -41q-140 0 -226 69t-133 177t-61 239 q-10 92 -10 179q0 37 2 74z" />
<glyph unicode="H" horiz-adv-x="1286" d="M53 797q-4 12 -3.5 22.5t3.5 21.5q7 21 33 27q14 4 37 10t55 16q-4 132 -9 258t-11 230t-12 178t-12 104q0 26 20 40t43 16t42 -10t19 -38q0 -20 2 -86l5 -165t5 -227t6 -272q112 32 281 78t405 110q2 114 4 212t4 174t4 126t4 68q0 26 19 38q16 10 36 10h6q23 -2 43 -16 t20 -40q-4 -24 -9 -75t-10 -122t-10 -160t-9 -187q28 8 56 15t58 15q26 2 44 -13t24 -36q2 -8 2 -17q0 -13 -5 -25q-9 -21 -33 -29q-70 -10 -150 -24q-4 -138 -7 -282t-3 -274t4 -238t12 -176q-2 -26 -21 -39t-41 -13t-42 13t-24 41q6 232 11 478t11 468q-88 -20 -181 -45 t-182 -50t-171 -51t-148 -48q4 -188 9.5 -385t10.5 -385q-4 -28 -24 -41t-42 -13t-41 13t-21 39q6 54 9 134t4 176q0 48 0.5 99t-0.5 105q-1 108 -3 220q-30 -12 -56 -22q-26 -6 -45 10t-26 39z" />
<glyph unicode="I" horiz-adv-x="1186" d="M36 1539q-1 7 -1 14q0 15 6 29q9 20 35 20q20 0 82 7t148 18t187 24t201 27t187 26t147 22q28 0 44 -18t19 -40t-8 -41t-37 -23q-108 -2 -219 -11t-225 -23q2 -90 5 -247t8 -351t9 -408t10 -420q90 10 202 26t254 38q28 0 44 -18t19 -40q1 -5 1 -9q0 -17 -9 -32 q-11 -19 -37 -23q-134 -2 -271 -15t-262 -31t-231 -38t-178 -38q-7 -2 -13 -2q-17 0 -30 13q-17 17 -21 40t5 44t35 25q20 2 50 6t74 9t105 12t147 17q6 104 7 231q0 64 0.5 129.5t-0.5 133.5q-1 136 -4 273t-8 261t-12 227t-13 171q-60 -8 -118 -17t-109 -19t-93 -19 t-68 -17q-26 -4 -43 15t-21 42z" />
<glyph unicode="J" horiz-adv-x="882" d="M73 425q-1 14 -1 27q0 109 36 216q8 26 27 34t37 3t30 -22t6 -41q-27 -102 -27 -199v-7q1 -100 34 -178t100 -125t171 -49q48 0 83 17t61 47t42 70t26 86q28 130 28 277q0 23 -1 46q-5 173 -32 351t-69 349t-86 319q-8 30 9 51t42 28q10 3 20 3q15 0 29 -6q24 -10 30 -44 q28 -168 66 -340t65 -346t33 -351q1 -27 1 -53q0 -151 -29 -304q-12 -64 -35 -119t-60 -96t-92 -65t-133 -24q-132 0 -222 62t-137 161t-52 222z" />
<glyph unicode="K" horiz-adv-x="1024" d="M64 48q38 100 59 248t28 315q5 117 5 236q0 51 -1 102q-3 171 -11 318t-18 254t-18 147q0 26 20 40t43 16t42 -10t19 -38q2 -26 5 -69t7 -124t9 -213t9 -336q34 24 85 82t110 133t120 159t113 162t91 143t53 101q8 21 29 21h2q23 -1 44 -15t32 -37t-3 -43 q-10 -16 -43 -65t-82 -119t-108 -152t-121 -162t-123 -152t-111 -120q56 -42 121 -108t130 -144t127 -160t114 -154t88 -130t52 -86q7 -14 7 -26q0 -9 -4 -18q-9 -20 -28 -32t-43 -11t-42 21q-40 78 -107 187t-149 219t-172 207t-178 153q1 -9 1 -20q0 -28 -4 -70 q-5 -60 -12 -134t-16 -156t-18 -156t-16 -134t-9 -88q-8 -26 -30 -36q-17 -8 -34 -8q-5 0 -11 1q-23 3 -39 19q-14 14 -14 36v6z" />
<glyph unicode="L" horiz-adv-x="1014" d="M54 1664q0 26 20 40t43 16h6q19 0 36 -10q19 -12 19 -38q2 -22 4 -100l5 -195t6 -266t7 -314t8 -339t8 -342q31 -1 60 -1q200 0 355 24q177 27 285 55q26 2 42 -17t19 -42q1 -5 1 -10q0 -17 -8 -33q-10 -20 -36 -20q-34 -6 -92 -9t-147 -10t-213 -20t-288 -35 q-8 -1 -17 -1t-18 1q-19 2 -34 11t-23 27t-4 46q12 84 15 223q2 83 2 175q0 61 -1 126q-2 162 -9 333t-16 319t-18 257t-17 149z" />
<glyph unicode="M" horiz-adv-x="1298" d="M54 1664q0 24 17 37t39 17q12 8 26 8q4 0 8 -1q18 -3 30 -21q20 -28 48 -85t81 -153t137 -236t214 -334q124 184 206 320t133 230t80 152t49 86q4 22 24 31t42 6t40 -17t18 -38q-8 -40 -16 -152t-15 -265t-12 -330t-7 -345q-1 -67 -1 -130q0 -95 2 -180q3 -142 13 -226 q-2 -26 -21 -39t-41 -13t-42 13t-24 41q4 192 9 393t9 390t7 354t7 283q-42 -66 -89 -149t-95 -173t-97 -180t-95 -170q-16 -26 -38 -37t-45 -10t-45 13t-36 36q-48 80 -99 172l-102 184t-99 178t-90 152q2 -118 6 -285t9 -359t9 -397t10 -397q-4 -28 -24 -41t-42 -13 t-41 13t-21 39q10 84 13 226q2 85 2 180q0 63 -1 130q-2 168 -7 345t-12 330t-15 265t-16 152z" />
<glyph unicode="N" horiz-adv-x="1120" d="M56 1656q-2 8 -2 15q0 19 12 33q16 18 40 23t47 -3t33 -28q8 -18 46 -96t96 -195t132 -266t154 -309t163 -324t159 -310q6 140 10 293t6 305t4 295t2 262t-1 206t-1 129q0 26 19 38q16 10 36 10h6q23 -2 43 -16t20 -40q-2 -14 -6 -92t-9 -201t-11 -280t-10 -329t-7 -347 q-2 -105 -2 -205q0 -66 1 -130q0 -42 -17 -67t-41 -32t-49 3t-39 40q-42 92 -99 211t-123 251t-135 269t-134 265t-121 240t-94 192q2 -120 6 -288t9 -360t9 -393t10 -387q-4 -28 -24 -41t-42 -13t-41 13t-21 39q10 84 14 221q3 110 3 236v64q-1 163 -5 335t-11 324t-16 269 t-19 171z" />
<glyph unicode="O" d="M40 545q-1 30 -1 61q0 122 19 250q24 168 78 331t128 289t164 198q77 62 160 62q14 0 28 -2q102 -14 171 -105t106 -229t44 -307q2 -41 2 -82q0 -128 -17 -257q-20 -154 -65 -295t-111 -247t-151 -166q-75 -53 -163 -53q-12 0 -24 1q-124 10 -202 86t-119 195t-47 270z M147 577q1 -123 27 -225t80 -171t142 -83q13 -2 27 -2q60 0 115 44q68 54 124 149t97 217t59 248q17 120 17 245q0 25 -1 50q-4 151 -33 276t-84 206t-135 85h-5q-43 0 -86 -33q-45 -35 -88 -95t-81 -140t-69 -169t-54 -181t-35 -176q-17 -116 -17 -232v-13z" />
<glyph unicode="P" horiz-adv-x="954" d="M35 1547q-1 6 -1 11q0 10 3 20q5 16 25 28q-4 20 -5 34t-3 24q0 26 20 40t43 16t42 -10t19 -38v-10q68 26 148 46t161 27q38 3 75 3q42 0 82 -4q76 -8 135 -37t95 -82t38 -135v-10q0 -93 -34 -180q-36 -92 -94 -175t-134 -155t-156 -130t-156 -99t-136 -61q4 -158 8 -318 t8 -314q-4 -28 -24 -41t-42 -13t-41 13t-21 39q8 68 11 179t3 243t-3 277t-8 285t-11 265t-12 217q-12 6 -22 18t-13 27zM182 1554q2 -58 4 -140t4 -181t4 -211t6 -232q142 50 256 133t194 178t123 193t43 180q0 60 -32 95t-85 52t-121 18h-11q-62 0 -127 -10 q-70 -11 -138 -31t-120 -44z" />
<glyph unicode="Q" horiz-adv-x="1140" d="M39 543q-1 26 -1 53q0 128 20 260q24 168 78 331t128 289t164 198q77 62 160 62q14 0 28 -2q102 -14 181 -102t128 -224t62 -307q4 -49 4 -99q0 -123 -23 -248q-36 -190 -110 -356q64 -108 123 -191t101 -131q7 -13 7 -26q0 -10 -5 -20q-10 -22 -29 -35q-18 -12 -39 -12 h-3q-23 1 -35 25q-12 18 -25 39t-31 53t-45 79t-69 119q-40 -70 -86 -127t-97 -98t-107 -62q-51 -19 -102 -19h-10q-124 4 -202 79t-119 197t-46 275zM147 576q1 -124 27 -227t80 -173t142 -84q13 -2 26 -2q33 0 68 15q48 21 93 62t87 101t78 130q-40 68 -92 154t-118 196 q-10 26 0 47t29 32t41 9t36 -24q34 -80 73 -157t79 -151q22 60 40 123t28 127q21 125 21 242q0 42 -3 83q-10 155 -50 273t-105 189t-145 75h-5q-43 0 -86 -33q-45 -35 -88 -95t-81 -140t-69 -169t-54 -181t-35 -176q-17 -116 -17 -233v-13z" />
<glyph unicode="R" horiz-adv-x="1002" d="M54 1646q0 26 20 40t43 16t42 -10t19 -38q2 -18 2 -82t4 -148q30 38 79 88t112 97t133 84t139 49q27 5 53 5q41 0 79 -12q63 -19 113 -83q34 -44 47 -107q9 -43 9 -89q0 -21 -2 -44q-12 -122 -86 -231t-179 -198t-221 -156t-212 -105q18 -42 71 -99t123 -118t149 -123 t152 -115t131 -94t84 -61q15 -10 15 -32v-7q-3 -27 -20 -50t-46 -30q-6 -1 -13 -1q-24 0 -50 20q-20 14 -67 56t-111 98t-134 120t-136 125t-118 112t-76 79q4 -150 8 -285t8 -279q-4 -28 -24 -41t-42 -13t-41 13t-21 39q10 84 13 225q2 85 2 178q0 62 -1 129q-2 166 -7 340 t-12 325t-15 262t-16 151zM188 1242q4 -92 5 -198t5 -220q92 28 200 85t203 135t161 175t76 207q2 16 2 31q0 63 -28 103q-34 52 -86 66q-23 6 -47 6q-31 0 -65 -10q-56 -16 -115 -55t-115 -90t-107 -112t-89 -123z" />
<glyph unicode="S" horiz-adv-x="1016" d="M58 592q-1 7 -1 13q0 16 7 27q10 16 25 23t34 5t33 -12q16 -12 20 -38q12 -120 53 -216t104 -162t144 -102t169 -38q44 0 79 17t61 47t41 69t21 81q3 26 3 51q0 83 -36 148q-47 85 -124 156t-170 137t-174 140t-135 166q-52 89 -52 207v9q2 72 25 142t68 124t112 88 t155 38h17q97 0 165 -43q74 -47 118 -126t59 -178q8 -55 8 -111q0 -45 -5 -90q-2 -18 -19 -28t-35 -10t-33 10t-15 28q1 23 1 45q0 73 -10 139q-13 86 -46 147t-89 93q-41 23 -95 23q-20 0 -43 -3q-56 -8 -99 -35t-71 -66t-43 -87t-15 -98v-8q0 -113 54 -196 q56 -86 141 -157t181 -136t173 -142t119 -175q27 -62 27 -139q0 -44 -9 -93q-12 -60 -40 -113t-71 -92t-98 -61t-121 -22q-96 2 -187 40t-167 113t-132 188t-82 263z" />
<glyph unicode="T" horiz-adv-x="1368" d="M18 1420q-2 9 -2 17q0 13 5 26q9 21 35 25q68 16 164 34t206 38t228 41t231 42t214 42t175 39q26 0 43 -17t21 -39q1 -7 1 -13q0 -15 -6 -30q-9 -21 -35 -27h-23q-54 0 -122 -7q-83 -9 -168 -24t-162 -31t-125 -28q2 -68 4 -183t6 -255t7 -292t7 -292t7 -256t5 -184 q-4 -28 -24 -41t-42 -13t-41 13t-21 39q4 40 6 139t2 232t-2 286t-4 301t-5 276t-5 210q-40 -4 -111 -16t-147 -28t-146 -36t-110 -40q-26 -4 -43 13t-23 39z" />
<glyph unicode="U" horiz-adv-x="1002" d="M33 1031q1 131 6 251t12 221t11 171q2 32 22 49t42 17t39 -17t11 -53q-28 -218 -40 -446q-7 -124 -6 -243q0 -99 4 -193q8 -158 40 -296t85 -235t124 -142q43 -27 90 -27q32 0 65 12q282 98 318 668q5 84 5 175q0 114 -8 240q-15 227 -61 483q-6 36 10 51t39 16t43 -11 t20 -32q38 -290 51 -517q7 -128 7 -240q0 -86 -4 -163q-10 -216 -58 -359t-113 -230t-134 -127t-123 -50q-36 -7 -69 -7q-77 0 -140 39q-89 56 -149 165t-93 258t-41 311q-5 111 -5 224v37z" />
<glyph unicode="V" horiz-adv-x="1148" d="M28 1630q0 26 18 43t40 20t43 -7t27 -36q2 -66 17 -171t39 -232t53 -266t59 -274t59 -259t53 -218q38 98 87 229t104 275t113 291t111 279t99 237t80 165q14 24 38 28q7 1 14 1q16 0 31 -6q21 -9 32 -29q6 -12 6 -24q0 -9 -3 -20q-34 -46 -77 -131t-90 -194t-97 -237 t-98 -258t-94 -257t-84 -235t-68 -191t-48 -127q-8 -18 -27 -27t-40 -9t-39 9t-22 27q-14 54 -36 150t-51 222t-61 274t-65 308t-65 326t-58 324z" />
<glyph unicode="W" horiz-adv-x="1824" d="M44 1674q10 22 31 35t44 12t35 -25q30 -60 64 -153t69 -206t69 -239t66 -250t61 -238t51 -205t38 -152t24 -77q30 72 64 180t69 234t69 259t62 253t49 219t31 157q2 18 17 32t33 18t36 -3t28 -27q6 -12 18 -70t29 -147t38 -200t44 -229t47 -233t47 -212t44 -167t39 -96 q2 74 15 197t36 271t53 308t66 308t75 271t81 197q12 24 33 28q6 1 13 1q14 0 26 -6q18 -9 28 -26q5 -8 5 -16q0 -10 -7 -19q-46 -78 -87 -208t-76 -284t-63 -319t-48 -314t-31 -268t-11 -181q0 -36 -24 -54t-55 -20t-62 12t-47 42q-6 10 -16 25t-26 56t-38 117t-51 210 t-65 334t-80 490q-8 -34 -27 -122t-48 -206t-63 -253t-70 -261t-72 -231t-66 -163q-14 -28 -40 -44t-52 -16t-48 17t-28 57q-18 122 -49 272t-69 308t-81 314t-86 288t-83 231t-72 143q-10 14 -10 27q0 9 4 17z" />
<glyph unicode="X" horiz-adv-x="1132" d="M40 94q100 188 224 398t248 414q-78 130 -154 252t-139 221t-108 168t-63 93q-12 24 0 46t32 33q17 9 35 9h7q22 -2 34 -26q14 -34 52 -100t93 -158t124 -205t145 -237q76 124 145 237t124 205t93 158t54 100q12 24 34 26h7q18 0 35 -9q20 -11 32 -33t0 -46 q-18 -24 -64 -93t-109 -168t-138 -221t-153 -252q124 -204 247 -415t225 -397q3 -10 3 -20q0 -14 -7 -27q-12 -21 -32 -31q-15 -8 -33 -8q-5 0 -10 1q-23 3 -35 27q-20 54 -61 137t-97 185t-123 217t-137 233q-70 -118 -136 -233t-122 -217t-97 -185t-61 -137 q-12 -24 -35 -27q-5 -1 -10 -1q-17 0 -33 8q-20 10 -32 31q-7 13 -7 27q0 10 3 20z" />
<glyph unicode="Y" horiz-adv-x="976" d="M56 1619q8 23 26 38t40 16t36 -21q8 -34 48 -108t108 -172t162 -210t212 -224q30 132 57 255t48 224t34 173t15 100q8 24 31 33q16 6 31 6q7 0 14 -1q22 -4 38 -20q11 -11 11 -26q0 -7 -3 -16q-4 -20 -20 -99t-44 -203t-63 -283t-75 -335t-84 -362t-86 -364 q-10 -26 -33 -34q-13 -5 -26 -5q-10 0 -19 3q-22 6 -37 24t-9 44q42 110 82 293t104 447q-80 94 -175 207t-180 223t-150 204t-87 148q-9 14 -9 28q0 9 3 17z" />
<glyph unicode="Z" horiz-adv-x="1196" d="M25 44v5q0 16 5 33q6 20 18 32q42 46 111 149t152 240t175 293t179 304t164 277t133 211q-102 -8 -233 -30t-257 -44t-227 -40q-91 -16 -134 -16h-9q-22 2 -37 23t-18 44t5 42t30 17q29 -1 58 -1q73 0 148 7q106 10 223 28t246 41t277 45h4q12 0 25 -11q15 -13 24 -31 t11 -39t-8 -35q-38 -54 -112 -174t-165 -272t-189 -318t-186 -312t-156 -255t-96 -145q8 -1 19 -1q22 0 58 3q53 4 128 10t165 13t186 12t195 8q59 2 116 2q37 0 73 -1q22 -6 33 -24t11 -39t-11 -38t-33 -17q-72 12 -170 15q-37 1 -75 1q-64 0 -131 -3q-108 -5 -217 -13 t-203 -17t-164 -16t-100 -7q-20 0 -30 13t-11 31z" />
<glyph unicode="[" horiz-adv-x="592" d="M50 1724q-2 18 0 36t12 35t33 29t63 18q58 8 129 18t131 20q26 -2 43 -17t20 -34t-7 -36t-36 -21q-22 -2 -60 -7t-79 -12t-79 -14t-58 -13l52 -1784q14 0 88 5t182 27q28 4 42 -13t16 -39t-10 -43t-38 -25q-64 4 -145 -3t-147 -15q-36 -4 -57 2t-31 18t-12 29t-2 33v168 t-2 227t-5 266t-6 283t-8 277t-9 250t-9 202t-11 133z" />
<glyph unicode="\" horiz-adv-x="744" d="M16 1660q-10 24 3 42t35 26t46 1t34 -31q6 -30 28 -103t55 -176t76 -229t90 -258t95 -264t94 -248t86 -209t70 -149q8 -24 -5 -43t-34 -28t-44 -4t-37 29q-60 160 -125 338t-128 354t-121 338t-104 291t-76 215t-38 108z" />
<glyph unicode="]" horiz-adv-x="646" d="M64 -78q2 22 16 39t42 13q108 -22 182 -27t88 -5l52 1784q-22 6 -59 13t-78 14t-79 12t-60 7q-26 4 -36 21t-7 36t19 34t44 17q60 -10 131 -20t129 -18q40 -6 63 -18t33 -29t12 -35t0 -36q-6 -46 -11 -133t-9 -202t-9 -250t-8 -277t-6 -283t-5 -266t-2 -227v-168 q0 -16 -2 -33t-12 -29t-31 -18t-57 -2q-66 8 -147 15t-145 3q-26 4 -38 25t-10 43z" />
<glyph unicode="^" horiz-adv-x="462" d="M90 582q-8 18 8 44q24 50 38 77t28 63q6 18 23 26t35 8t34 -8t22 -22q2 -6 10 -22t20 -38t25 -46t25 -46q8 -18 1 -33t-23 -23t-34 -6t-30 20q-8 14 -17 33t-33 71q-10 -24 -15 -34l-9 -18t-8 -17t-12 -29t-27 -25t-36 1t-25 24z" />
<glyph unicode="_" horiz-adv-x="1126" d="M86 32q0 22 13 40t39 18q126 -16 253 -20t242 -1t209 12t152 19q26 0 40 -20t16 -43t-10 -42t-38 -19q-34 -2 -77 -2h-132t-243 -1t-410 -7q-28 4 -41 24t-13 42z" />
<glyph unicode="`" horiz-adv-x="310" d="M47 1162q3 16 15 28t27 15t25 -9q4 -4 19 -18t36 -33t43 -40t40 -39q14 -14 12 -31t-13 -30t-28 -17t-33 12q-12 10 -42 45t-88 87q-16 14 -13 30z" />
<glyph unicode="a" horiz-adv-x="954" d="M81 273q5 69 26 139t43 124q34 84 84 159t114 133t140 92t164 34q24 0 52 -10t52 -31t41 -54t19 -77q4 -90 4 -167t3 -165t13 -197t32 -261q1 -6 1 -12q0 -19 -11 -30q-14 -14 -34 -15h-5q-17 0 -34 6q-19 7 -21 21q-8 34 -14 91t-11 120t-8 125t-5 108q-34 -82 -70 -151 t-83 -123t-105 -88t-136 -42q-12 -1 -25 -1q-28 0 -58 6q-43 9 -77 33q-58 38 -77 101q-15 50 -15 104q0 14 1 28zM184 190q8 -50 50 -74q36 -20 90 -20q60 0 111 36t93 95t73 132t51 147t30 142t10 116q0 36 -14 57t-50 21q-60 0 -118 -27t-108 -74t-92 -111t-72 -140 q-12 -30 -29 -83t-25 -110q-4 -28 -4 -55t4 -52z" />
<glyph unicode="b" horiz-adv-x="900" d="M74 1670q0 30 19 48t42 20h5q20 0 38 -13q20 -15 20 -49q1 -49 1 -106.5t-1 -122.5q-2 -131 -2 -274t7 -287t29 -266q6 6 18 32t31 62t48 76t71 74t98 59t130 31q9 1 17 1q62 0 104 -39q47 -44 72 -110t33 -144q6 -62 6 -115v-25q-2 -100 -33 -193t-83 -165t-123 -116 t-155 -46h-11q-49 0 -105 15q-62 17 -120 77q2 -28 -14 -46t-38 -22t-43 9t-25 47q12 110 14 241q1 52 1 107q0 81 -2 166q-3 142 -10 288t-15 286t-15 268t-9 232zM262 276q0 -42 20 -76t50 -56t67 -32q23 -6 46 -6q14 0 27 2q60 8 112 45t90 92t60 124t22 141q0 30 -1 87 t-12 113t-39 97t-82 41q-86 0 -153 -65t-113 -156t-70 -188t-24 -163z" />
<glyph unicode="c" horiz-adv-x="800" d="M52 432q4 66 21 132t43 127t60 115t76 94q58 56 131 82q43 15 90 16q33 0 67 -8q44 -10 70 -48t38 -90t12 -113t-4 -117q-2 -28 -20 -41t-38 -13t-36 13t-14 37q2 38 3 80v27q0 27 -1 51q-2 36 -9 63t-19 35q-36 23 -70 23q-24 0 -47 -11q-57 -26 -103 -88 q-24 -34 -49 -77t-45 -92t-34 -102t-18 -105q-1 -17 -1 -34q0 -59 16 -115q21 -71 77 -123q46 -42 106 -48q13 -1 25 -1q74 0 145 40q82 47 128 163q12 28 32 37t39 4t30 -21q6 -9 6 -21q0 -8 -3 -17q-30 -86 -74 -142t-96 -88t-110 -45t-118 -13q-66 0 -118 25t-90 65 q-58 66 -81 156q-18 71 -18 148q0 20 1 40z" />
<glyph unicode="d" horiz-adv-x="938" d="M68 384q0 108 30 212t82 186t119 130q62 44 131 44h12q50 -4 89 -13t73 -27t66 -45t66 -65q6 50 11 120t8 150t5 163t3 161t1 144v112q4 34 27 52t49 20h6q23 0 44 -14q24 -16 30 -48q-16 -100 -26 -248t-19 -305t-16 -305t-15 -250q-4 -48 -4 -111t3 -130t10 -133 t19 -120q6 -34 -12 -54t-44 -25q-8 -1 -15 -1q-18 0 -33 8q-22 12 -22 42q0 56 3 116q1 14 1 30q0 53 -8 126q-68 -130 -165 -207t-235 -77q-78 0 -131 30t-85 80t-45 116t-13 136zM164 402q0 -40 6 -88t24 -91t51 -72t87 -29q94 0 167 50t125 125t81 162t33 163 q-58 108 -130 171q-68 59 -167 59h-13q-48 -2 -95 -41t-84 -103t-61 -144t-24 -162z" />
<glyph unicode="e" horiz-adv-x="924" d="M22 542q2 18 14 34t36 16h60t36 2q16 78 48 147t79 122t109 85t138 34h8q79 0 128 -40q52 -42 82 -104t43 -132t19 -126q2 -28 -20 -48t-56 -24q-176 -18 -294 -22q-79 -3 -139 -3q-30 0 -55 1q-10 -57 -10 -108q0 -39 6 -74q14 -80 42 -144q30 -62 79 -84q37 -17 78 -17 q13 0 27 2q56 7 112 36t100 69q74 64 110 150q10 20 31 20t39 -13t27 -33q4 -8 4 -16q0 -12 -9 -24q-16 -24 -36 -51t-42 -53t-43 -50t-41 -38q-54 -44 -129 -71q-72 -26 -147 -26h-5q-77 1 -146 38t-107 121q-22 46 -32 98t-13 102q-2 38 -2 72v23q1 45 3 79q-16 -2 -47 -1 t-47 1q-20 0 -30 16q-8 13 -8 28v6zM276 592h55h86t99 2t95 6t70 12t29 20q0 24 -9 66t-30 82t-54 69q-31 27 -75 27h-6q-96 -4 -163 -73t-97 -211z" />
<glyph unicode="f" horiz-adv-x="768" d="M24 648q4 22 30 30q18 8 26 11t18 7t26 10t50 18q-10 104 -17 238q-3 55 -3 112q0 80 6 164q16 210 68 320t140 148q38 16 75 16q21 0 42 -5q57 -15 102 -74t73 -165t32 -262q0 -36 -15 -53t-33 -17t-33 16t-15 46q0 122 -19 207t-49 135t-65 66q-17 8 -33.5 8t-31.5 -8 q-24 -12 -46 -47t-40 -85t-31 -112t-19 -128q-6 -52 -6 -114t2 -126t6 -126t10 -116q62 22 155 59t233 93q26 6 46 -6t28 -30q5 -10 5 -21q0 -8 -3 -17q-6 -20 -30 -30q-146 -34 -246 -75t-176 -75q12 -76 22 -147t23 -142t28 -145t35 -156q8 -32 -9 -53t-41 -26 q-7 -1 -13 -1q-17 0 -33 9q-22 13 -26 49q-6 40 -13 111t-17 152t-22 161t-26 140q-22 -12 -46 -23t-44 -23q-24 -10 -45 4t-30 35q-6 15 -6 30q0 6 1 13z" />
<glyph unicode="g" horiz-adv-x="834" d="M38 -126q2 36 19 52t35 15t31 -19t11 -48q-3 -37 -3 -76q0 -33 2 -67q5 -75 29 -138t69 -106t115 -49h13q47 0 86 24q45 28 80 76t62 109t46 124t30 120t15 97q14 132 17 240q1 36 1 71q0 71 -4 139q-22 -74 -59 -148t-86 -133t-106 -96t-115 -37q-78 0 -131 32t-85 85 t-45 121t-13 138q0 162 53 287t140 200t198 93q29 5 59 5q83 0 168 -37q38 -16 63 -89t40 -172t21 -213q5 -98 5 -184v-29q-1 -99 -6 -170t-11 -87q-8 -64 -22 -142t-39 -155t-62 -148t-87 -123t-116 -79q-48 -20 -105 -20q-21 0 -43 3q-82 8 -137 60t-87 129t-43 167 q-6 52 -6 104q0 37 3 74zM148 418q0 -40 6 -91t24 -96t51 -75q29 -26 75 -26h12q56 4 107 43t94 102t75 143t48 166q6 34 11 75q3 26 3 50q0 15 -1 29q-3 38 -16 68t-43 46q-56 28 -112 28q-23 0 -47 -5q-79 -17 -143 -77t-104 -158t-40 -222z" />
<glyph unicode="h" horiz-adv-x="876" d="M46 1664q0 26 18 40t41 17q5 1 10 1q17 0 31 -8q18 -10 18 -30q2 -24 6 -104t9 -191t11 -236t11 -236t8 -195t5 -112q28 52 69 118t90 124t105 99t116 43h5q87 0 135 -71q50 -73 72 -204q19 -115 19 -267v-42q-3 -178 -19 -386q-2 -26 -21 -36q-16 -8 -33 -8h-7 q-21 2 -38 14t-15 32q12 156 20 309q4 82 4 154q0 64 -3 121q-7 122 -37 194q-28 66 -86 66h-10q-38 -4 -77 -36t-76 -79t-70 -104t-59 -111t-45 -99t-25 -67l-12 -348q-4 -26 -22 -37t-38 -8t-37 19t-19 42q10 82 12 224q1 47 1 97q0 100 -3 212q-4 167 -12 343t-17 329 t-18 265t-17 152z" />
<glyph unicode="i" horiz-adv-x="272" d="M48 1152q0 26 18 48t56 22q36 0 54 -22t18 -48t-18 -48t-54 -22t-55 22t-19 48zM74 892q0 26 20 40t43 16h6q19 0 36 -10q19 -12 19 -38q2 -34 2 -77t1 -132t4 -243t9 -410q-4 -28 -23 -41t-41 -13t-40 13t-20 39q14 126 18 253q2 64 2 124.5t-2 117.5q-4 115 -13 209 t-21 152z" />
<glyph unicode="j" horiz-adv-x="392" d="M-442 -190q0 36 15 53t33 17t33 -16t15 -46q0 -68 24 -133t66 -115t101 -80t129 -30q82 0 134 62t82 148t42 177t12 151q0 132 -9 239t-26 209t-42 207t-57 231q-8 32 8 53t40 26t47 -8t27 -49q44 -240 67 -404t33 -266t11 -151t1 -57q0 -64 -6 -140t-23 -152t-45 -145 t-72 -122t-106 -83q-55 -26 -127 -26h-19q-82 2 -152 41t-122 101t-82 142t-32 166zM46 1158q0 26 18 48t56 22q36 0 54 -22t18 -48t-18 -48t-54 -22t-55 22t-19 48z" />
<glyph unicode="k" horiz-adv-x="868" d="M54 1664q0 26 20 40t43 16h6q19 0 36 -10q19 -12 19 -38q2 -26 4 -130t6 -259t8 -348t8 -397q50 36 109 103t115 142t102 145t70 112q12 20 33 18t39 -17t26 -39t-6 -44q-16 -24 -51 -75t-88 -118t-119 -143t-142 -148q154 -100 282 -197t204 -181q15 -16 15 -34 q0 -4 -1 -8q-4 -22 -20 -38t-40 -21t-46 11q-128 150 -249 243t-229 143q4 -90 5 -179t5 -175q-4 -28 -24 -41t-42 -13t-41 13t-21 39q10 84 13 226q2 85 2 180q0 63 -1 130q-2 168 -7 345t-12 330t-15 265t-16 152z" />
<glyph unicode="l" horiz-adv-x="294" d="M54 1664q0 26 20 40t43 16h6q19 0 36 -10q19 -12 19 -38q2 -22 4 -105t5 -208t7 -282t7 -331t8 -356t9 -352q-4 -28 -24 -41t-42 -13t-41 13t-21 39q10 84 13 226q2 85 2 180q0 63 -1 130q-2 168 -7 345t-12 330t-15 265t-16 152z" />
<glyph unicode="m" horiz-adv-x="1502" d="M30 898q0 26 18 40t41 17t41 -7t18 -30q8 -70 12 -146t12 -160q26 50 62 109t81 108t98 83t113 34t100 -26t67 -66t42 -88t22 -93t10 -79t7 -46q30 74 63 150t78 137t106 101t145 40q90 0 146 -46t85 -123t36 -177q4 -64 4 -131q0 -38 -1 -77q-4 -108 -16 -216t-22 -200 q-2 -18 -22 -27q-18 -8 -38 -8h-4q-22 1 -39 12t-13 31q8 38 21 115t21 170t10 192v26q0 84 -11 156q-13 83 -45 139t-88 66q-13 2 -25 2q-51 0 -95 -33q-54 -41 -98 -112t-77 -163t-55 -185t-32 -177t-10 -138q0 -26 -20 -39t-44 -14t-44 9t-20 30q2 54 5 134q2 60 2 124 v44q-1 88 -8 174t-24 154t-48 108q-27 35 -68 35q-6 0 -13 -1q-58 -8 -112 -64t-98 -128t-74 -142t-38 -104l-2 -364q-4 -26 -21 -37t-38 -8t-38 19t-19 42q9 113 9 228v23q-1 127 -9 241t-20 208t-26 154z" />
<glyph unicode="n" horiz-adv-x="886" d="M56 46q18 124 24 251q5 109 5 208v33q-1 114 -9 208t-18 154q2 26 21 40t41 16h7q18 0 33 -8q18 -10 18 -30q3 -56 3 -116v-30v-52q0 -52 1 -108q30 50 69 109t87 109t103 83t115 33q90 0 151 -68t97 -191t46 -292q4 -70 4 -146q0 -106 -8 -223q-2 -26 -21 -37 q-16 -9 -34 -9h-7q-22 2 -39 14t-15 32q16 156 16 304t-21 263t-66 181q-39 57 -100 57q-9 0 -19 -1q-58 -6 -116 -63t-106 -129t-81 -142t-45 -104l-22 -364q-4 -26 -22 -36t-38 -7t-37 19t-17 42z" />
<glyph unicode="o" horiz-adv-x="772" d="M39 289q-1 19 -1 38q0 69 14 139q18 96 60 188t100 163t128 112q61 36 127 35h19q78 -8 132 -60t83 -130t35 -173q2 -24 1 -48q0 -71 -13 -143q-16 -88 -51 -169t-86 -143t-118 -97q-60 -31 -129 -31h-16q-96 6 -157 50t-92 113t-36 156zM139 320q1 -66 21 -119t59 -89 t103 -42q10 -1 21 -1q44 0 83 21q48 26 86 75t64 114t40 135q15 75 15 151v10q-1 81 -21 144t-60 101q-36 34 -89 34h-11q-54 -4 -102 -40t-87 -92t-67 -125t-42 -141q-13 -65 -13 -127v-9z" />
<glyph unicode="p" horiz-adv-x="976" d="M36 -592q14 100 25 231t20 268t16 268t15 233q4 48 4 111t-3 130t-10 133t-19 120q-6 32 12 53t44 26q8 1 15 1q17 0 33 -8q22 -12 22 -42v-140t10 -178q32 82 81 147t108 110t125 68t136 23q88 0 142 -39t80 -103t26 -146t-22 -166q-34 -128 -102 -220t-160 -148 t-203 -75q-54 -9 -109 -9q-59 0 -118 10q-10 -234 -13 -389q-1 -66 -1 -123q0 -77 2 -136q-4 -34 -27 -52t-49 -20h-6q-23 0 -44 13q-24 15 -30 49zM208 170q62 -9 117 -9q143 0 244 59q141 82 223 304q24 62 29 123q1 16 1 31q0 43 -10 78q-14 48 -47 77t-85 29 q-94 0 -176 -53t-144 -131t-100 -168t-42 -166q-4 -42 -5 -85t-5 -89z" />
<glyph unicode="q" horiz-adv-x="800" d="M52 400q0 162 51 285t136 196t194 90q28 4 56 4q82 0 169 -37q38 -18 58 -57t28 -89q6 -40 6 -85v-23q-2 -58 -8 -114t-15 -105t-13 -81q-16 -104 -31 -211t-21 -237q-2 -40 -3 -93v-27q0 -40 2 -83q3 -57 13 -112t31 -98t57 -69q31 -23 77 -23q8 0 15 1q38 2 63 29 t37 68q10 33 10 71q0 10 -1 20q-3 50 -21 97t-52 86t-86 59q-18 6 -21 24t4 36t22 29t33 5q74 -28 120 -83t68 -122t22 -139t-21 -132t-60 -100t-93 -46q-25 -3 -47 -3q-54 0 -94 17q-57 24 -94 71t-55 112t-25 137q-6 63 -6 127v18q1 73 3 139q-2 7 -2 24q0 22 3 60 q5 68 19 166q-52 -76 -118 -127t-136 -51q-78 0 -131 32t-85 85t-45 121t-13 138zM148 418q0 -40 6 -91t24 -96t51 -75q29 -26 75 -26h12q56 4 107 43t94 102t75 143t48 166q6 34 11 75q3 26 3 50q0 15 -1 29q-3 38 -16 68t-43 46q-56 28 -112 28q-23 0 -47 -5 q-79 -17 -143 -77t-104 -158t-40 -222z" />
<glyph unicode="r" horiz-adv-x="920" d="M36 914q-1 5 -1 10q0 20 14 33q17 17 39 21q7 1 14 1q14 0 28 -5q20 -8 22 -28q8 -36 16 -80t16 -92l16 -96t16 -90q20 56 51 118t71 117t90 95t110 50q20 3 39 3q32 0 64 -8q51 -13 94 -53t75 -109t46 -171q1 -6 1 -11q0 -17 -10 -27q-13 -14 -32 -17t-36 5t-23 32 q-18 88 -44 139t-56 75t-62 28t-60 -2q-38 -8 -72 -41t-63 -79t-53 -100t-41 -105t-28 -93t-15 -66l36 -332q0 -28 -15 -45t-36 -22q-8 -2 -15 -2q-13 0 -25 6q-19 9 -25 37q-4 126 -19 262t-37 259t-46 224t-44 159z" />
<glyph unicode="s" horiz-adv-x="794" d="M42 320q-3 11 -3 20q0 17 10 29q15 17 37 20t42 -9t24 -38q6 -56 36 -107t78 -90t112 -62t138 -23q46 0 79 17t48 44t9 59t-40 62q-48 42 -134 91t-170 111t-143 139q-54 70 -54 157q0 9 1 18q2 44 24 88t61 77t95 54t126 21q84 0 143 -34t96 -83t55 -106t18 -105 q0 -24 -17 -36t-37 -14t-37 9t-17 35q-2 38 -11 81t-33 79t-65 60t-103 24q-86 0 -140 -48t-58 -134q0 -4 -1 -7q0 -44 23 -82q24 -41 66 -77t95 -69t107 -64t104 -62t86 -65q54 -50 62 -107q2 -13 2 -25q0 -43 -22 -81q-28 -49 -85 -81t-131 -32q-82 0 -159 20t-140 62 t-110 107t-67 157z" />
<glyph unicode="t" horiz-adv-x="808" d="M-64 828q-2 9 -2 17q0 13 5 26q9 21 35 25q22 6 46 11t61 12t91 17t136 26q-4 122 -9 237t-11 209t-11 161t-11 95q0 26 20 40t43 16h6q19 0 36 -10q19 -12 19 -38q0 -18 2 -78t5 -152t5 -209t6 -251l180 36t232 48q26 0 43 -17t21 -39q1 -7 1 -13q0 -15 -6 -30 q-9 -21 -35 -27q-112 -8 -222 -23t-212 -35q4 -204 9 -421t11 -423q-4 -28 -24 -41t-42 -13t-41 13t-21 39q6 60 10 150t5 199v74q0 76 -1 157q-2 122 -6 246q-98 -22 -177 -45t-131 -41q-26 -4 -43 13t-23 39z" />
<glyph unicode="u" horiz-adv-x="730" d="M47 750q1 86 1 142q0 32 18 49t40 17t40 -17t16 -53q-2 -24 -4 -91q-1 -45 -1 -98v-56q1 -87 9 -182t29 -174t59 -130t98 -51q54 0 93 43t66 113t43 159t23 180t8 177v34q0 65 -3 116q-2 36 17 49q15 11 33 11q4 0 8 -1q22 -3 41 -19t17 -36q-4 -286 -36 -468t-82 -286 t-111 -142q-58 -36 -117 -36h-6q-82 2 -137 54t-88 132t-49 180t-21 199q-4 82 -4 156v29z" />
<glyph unicode="v" horiz-adv-x="886" d="M45 916q11 16 30 19t37 -19q106 -104 181 -223t125 -226t76 -189t36 -112q52 216 101 419t95 365q12 44 37 58q15 9 29 9q9 0 17 -4q21 -9 33 -35q6 -12 6 -26q0 -16 -8 -36q-38 -112 -102 -325t-120 -521q-6 -34 -30 -54t-52 -25q-7 -1 -14 -1q-20 0 -38 11 q-24 15 -32 53q-20 102 -60 210t-93 212t-118 198t-133 164q-15 15 -15 36q0 24 12 42z" />
<glyph unicode="w" horiz-adv-x="1314" d="M39 847q9 21 28 35t40 15t33 -23q62 -120 94 -241t49 -225t26 -181t23 -109q80 188 150 392t132 384q13 38 45 38q18 0 43 -12q14 -8 37 -59t49 -127t55 -166t58 -175t56 -155t51 -106q46 42 77 132t50 199t26 227q5 92 5 173v45q-2 26 16 40t39 14t38 -16t17 -48v-76 t-4 -129t-15 -163t-31 -175t-52 -168t-80 -139q-28 -32 -59 -43t-60 -3t-53 34t-38 68l-206 630q-26 -46 -54 -130t-62 -185t-75 -211t-93 -206q-14 -28 -41 -43t-54 -16h-3q-25 0 -46 16q-22 17 -24 57q-12 176 -37 315t-53 239t-53 160t-39 78q-9 11 -9 23q0 8 4 16z" />
<glyph unicode="x" horiz-adv-x="854" d="M28 905q8 23 26 38t40 16h2q21 0 34 -21q22 -56 86 -165t190 -269q126 160 193 266t89 162q14 22 35 21t37 -14t22 -35q2 -7 2 -13q0 -15 -10 -31q-14 -34 -44 -82t-71 -105t-89 -121t-100 -130q62 -74 139 -157t169 -177q7 -14 7 -28q0 -9 -3 -18q-8 -22 -27 -36 t-42 -14t-39 20q-58 64 -128 147t-142 173q-72 -90 -142 -173t-128 -147q-16 -20 -38 -20t-38 14t-23 36t5 46q90 94 164 174t136 154q-52 66 -101 131t-90 123t-71 107t-44 83q-9 14 -9 28q0 9 3 17z" />
<glyph unicode="y" horiz-adv-x="1006" d="M42 869q8 23 26 38t40 16t36 -21q8 -34 48 -108t108 -172t162 -210t212 -224q30 132 57 255t48 224t34 173t15 100q8 24 31 33q16 6 31 6q7 0 14 -1q22 -4 38 -20q11 -11 11 -26q0 -7 -3 -16q-6 -20 -25 -95t-46 -189t-62 -260t-72 -310t-74 -339t-71 -347 q-10 -26 -33 -34q-13 -5 -26 -5q-10 0 -19 3q-22 6 -37 24t-9 44q20 54 37 111t35 129t39 167t53 227q-80 94 -175 207t-180 223t-150 204t-87 148q-9 14 -9 28q0 9 3 17z" />
<glyph unicode="z" horiz-adv-x="812" d="M19 864q0 20 9 37q10 19 32 19l30 3t26 2t45 3t86 5t150 9t237 16q14 0 27 -10t21 -26t8 -35t-10 -35q-50 -74 -117 -176t-136 -207t-131 -201t-100 -158q36 0 73 2t94 5t143 8t222 11q24 -4 36 -21t12 -38t-11 -39t-33 -20q-93 10 -178 10h-28q-98 -2 -182 -9t-151 -17 t-111 -14h-6q-16 0 -24 10q-10 12 -13 31t1 39t16 32q60 72 109 140t104 151t125 192t170 263q-64 4 -118 4q-27 0 -51 -1q-73 -3 -131 -10t-105 -18t-91 -21q-22 0 -35 19q-14 21 -14 45z" />
<glyph unicode="{" horiz-adv-x="676" d="M93 948q-5 22 5 43t42 29q34 8 72 19t70 30t51 47t17 70q-4 54 -37 106t-72 104t-72 109t-37 123q-4 92 42 144t118 76t154 29t150 7q24 2 33 -18t6 -43t-16 -40t-33 -9q-36 0 -95 2t-114 -7t-95 -38t-40 -95q0 -56 33 -108t74 -105t77 -106t40 -113q4 -40 -12 -84 t-44 -90q46 -22 67 -63t17 -93q-6 -80 -49 -174t-91 -194t-85 -203t-29 -201q2 -38 20 -74t45 -63t62 -43t73 -16q12 0 22 -15t12 -34t-6 -38t-34 -25q-60 -2 -115 25t-96 71t-67 100t-30 112q-8 114 32 217t91 198t94 186t39 181q-8 42 -35 50t-62 1t-73 -21t-68 -16 q-16 -4 -31 12t-20 38z" />
<glyph unicode="|" horiz-adv-x="1750" d="M64 787q-6 41 2 91t46 102q66 92 156 174t189 149t198 115t183 72q20 6 35 26t19 41t-5 38t-39 17q-18 0 -25 -11t-5 -23t13 -21t31 -5q12 2 8 -11t-16 -13q-30 0 -45 13t-17 30t7 36t31 35t49 21t54 2t51 -14t38 -27q8 28 28 51t48 35q-10 72 19 107t77 31q22 -2 18 -15 t-16 -13q-40 0 -62 -23t-10 -79q24 4 47 -8t41 -33t29 -50t9 -59v-4q40 -10 50 -33t28 -49l80 -44q30 -16 57 -31t31 -17l124 -98q14 -12 21 -69t11 -172t7 -295t9 -440q0 -14 -36 -30t-88 -40l-312 -78t-313 -68t-338 -50t-387 -24q-60 0 -90 30t-37 72t4 86t35 70 q6 20 10 39t0 47q-28 38 -33 74t1 67t18 55l20 40q10 18 1 44t-17 34q-8 6 -22 34t-20 69zM92 814q0 -44 11 -77t29 -33q174 0 354 21t359 59t351 90t330 114q0 14 -1 37t-4 48t-7 50t-10 45q-150 -66 -309 -106t-330 -64t-352 -33t-373 -11q-26 -16 -37 -56t-11 -84z M98 194q-6 -36 5 -66t34 -50t57 -20q156 0 321 17t335 46t344 67t350 80q0 50 2 112t2 108q-42 -16 -123 -40t-189 -50t-239 -52t-275 -47t-295 -32t-299 -7q-24 -30 -30 -66zM110 471q2 -25 11 -46t19 -37q32 2 160 13t319 37t430 69t493 109l-8 274q-92 -40 -204 -80 t-234 -74t-249 -63t-250 -49t-238 -28t-211 -2q-24 -36 -32 -67t-6 -56zM132 294q32 -10 107 -10t176 9t220 26t240 37t235 43t206 45t153 43t75 37v66q-78 -30 -202 -58t-267 -53t-293 -46t-280 -38t-227 -27t-135 -12q4 -32 1 -41t-9 -21zM140 672q4 -16 8 -35t0 -21 q204 -2 407 29t386 77t336 99t257 93l-6 50q-98 -48 -224 -89t-264 -74t-277 -59t-260 -43t-217 -24t-146 -3zM170 986q174 2 336 7t320 23t319 57t335 111q18 8 34 9t20 -33q2 -14 4 -31t5 -49t5 -87t6 -148t9 -230t11 -333q28 12 45 22t23 22q0 210 -2 355t-6 250t-9 181 t-11 148q-6 12 -46 41t-88 59t-92 55t-58 29q-24 -54 -77 -102t-121 -84t-143 -57t-142 -20t-118 25t-71 78q-6 14 11 18t21 -10q12 -48 61 -66t115 -14t141 27t138 59t104 81t41 95q0 32 -16 48t-26 16q-2 0 -4 -2q0 -24 -1 -49t-9 -48t-25 -40t-47 -25q-4 -4 -8 0t-7 9 t-2 11t9 8q6 2 17 7t21 16t18 29t8 46q-40 -30 -92 -30q-50 0 -77 32t-33 74q0 12 -15 28t-36 27t-43 14t-40 -11q22 -8 32 -31t9 -49t-16 -52t-45 -40q-4 -34 15 -42t45 -4t53 14t41 14q8 4 12 -1t4 -12t-4 -13t-12 -6q-54 -26 -90 -29t-55 7t-26 29t-5 39q-8 -2 -22 -7 t-29 -11t-29 -12t-22 -10q6 -44 40 -67t77 -28t88 5t73 32q16 4 19 -14t-15 -22q-26 -18 -75 -27t-99 -3t-90 32t-48 80q-26 0 -76 -28t-111 -71t-124 -94t-114 -98t-83 -82t-30 -47zM330 1106q-6 10 10 14t20 -6q4 -8 14 -30t14 -28q2 -10 -12 -16t-18 4q-6 6 -15 28 t-13 34zM494 1090q-6 14 4 20q6 6 26 17t30 15q10 6 16 -9t-4 -21q-8 -2 -29 -15t-27 -17q-10 -4 -16 10zM548 1262q-8 8 2 19t20 3q8 -4 25 -19t25 -25q8 -6 -3 -18t-21 -4q-4 6 -23 23t-25 21zM754 1092q4 10 19 27t25 25q6 8 18 -4t2 -20q-8 -6 -22 -25t-20 -23 q-10 -10 -19 0t-3 20zM1046 1172q2 14 14 18q8 2 30 2h34q10 0 10 -16t-12 -16q-10 0 -34 -1t-30 -1q-14 0 -12 14zM1320 1170q-10 14 0 22q8 4 25 22t23 22q8 6 18 -5t0 -21q-4 -8 -21 -23t-27 -21q-8 -10 -18 4zM1321 1315q-5 13 5 21q10 4 28 16t28 14q8 4 15 -8t-3 -18 q-6 -10 -26 -20t-32 -12q-10 -6 -15 7z" />
<glyph unicode="}" horiz-adv-x="596" d="M51 1815q-1 23 9 43t34 20q68 0 150 -2t152 -24t113 -72t31 -142q-8 -66 -45 -123t-80 -111t-80 -106t-45 -106q-6 -42 12 -70t48 -46t67 -28t71 -16q32 -6 40 -27t2 -42t-22 -38t-32 -13q-30 0 -67 13t-72 19t-63 -4t-40 -52q-6 -60 9 -119t41 -119t57 -122t56 -128 t37 -136t2 -146q-8 -56 -38 -113t-75 -102t-102 -74t-117 -29q-24 6 -32 23t-4 37t15 36t23 16q38 0 74 17t66 45t50 64t26 74q14 98 -15 199t-70 200t-77 191t-36 172q0 52 24 93t70 65q-26 44 -37 88t-5 84q8 60 47 115t84 108t83 107t42 110q4 64 -34 92t-93 35t-114 2 t-95 -5q-22 -10 -33 7t-12 40z" />
<glyph unicode="~" horiz-adv-x="792" d="M80 596q2 46 18 81t41 59t58 35t69 11q54 -2 92 -29t69 -57t61 -51t68 -9q28 8 47 34t23 68q2 18 17 27t32 10t30 -8t13 -29q-4 -84 -51 -131t-111 -55q-62 -6 -101 17t-70 53t-59 55t-68 23q-34 -4 -58 -31t-28 -73q-2 -18 -17 -27t-32 -10t-30 8t-13 29z" />
<glyph unicode="&#xa1;" horiz-adv-x="292" d="M38 1460q0 26 18 48t56 22q36 0 54 -22t18 -48t-18 -48t-54 -22t-55 22t-19 48zM64 1200q0 26 20 41t43 16t42 -11t19 -38q4 -70 2 -373t12 -819q-4 -26 -23 -40t-41 -14t-40 13t-20 39q10 84 14 193t5 228t-1 239t-7 224t-11 184t-14 118z" />
<glyph unicode="&#xa2;" horiz-adv-x="824" d="M60 498q4 66 21 132t43 127t60 115t76 94q16 16 34 30t36 24q-4 22 -5 41t-5 35q0 26 20 40t43 16t42 -10t19 -38v-20t2 -24q24 4 49 3t53 -7q44 -10 70 -48t38 -90t12 -113t-4 -117q-2 -28 -20 -41t-38 -13t-36 13t-14 37q2 38 3 80t-1 78t-9 63t-19 35q-44 26 -82 20 q4 -110 7 -302t9 -480q60 16 112 63t84 129q12 28 32 37t39 4t30 -21t3 -38q-48 -136 -126 -199t-170 -81v-29t2 -31q-4 -28 -23 -41t-41 -13t-40 13t-20 39q2 14 2 27t2 27q-60 4 -109 27t-83 63q-58 66 -81 156t-17 188zM164 488q-6 -78 15 -149t77 -123q42 -42 102 -48 q4 88 4 186t-2 194t-7 186t-11 166q-16 -12 -32 -36q-24 -34 -49 -77t-45 -92t-34 -102t-18 -105z" />
<glyph unicode="&#xa3;" horiz-adv-x="1702" d="M30 326q0 142 72 245t181 154t238 44t245 -85q26 62 36 93t20 65q-24 -2 -51 1t-51 -1q-26 4 -38 25t-10 44t16 41t40 14l27 -3t20 -2t28 -4t53 -7q38 98 93 221t131 243q110 178 208 252t192 68q66 -6 110 -45t56 -112t-11 -180t-93 -247q-16 -32 -37 -41t-37 -1t-22 29 t8 49q56 108 77 192t18 143t-26 89t-57 30q-28 0 -64 -21t-74 -57t-78 -85t-76 -105q-30 -44 -59 -99t-56 -112t-52 -115t-45 -108q64 -8 164 -18t250 -26q26 -6 38 -26t11 -39t-15 -34t-40 -13q-146 36 -254 46t-190 14q-22 -56 -38 -112t-34 -112q50 -46 104 -124 t109 -157t111 -142t108 -77q20 -6 56 -7t78 12t85 44t75 91q20 20 39 19t32 -15t16 -34t-9 -36q-42 -72 -100 -113t-115 -60t-107 -20t-80 7q-46 12 -90 49t-85 85t-79 103t-72 105t-64 90t-56 58q-34 -84 -80 -172t-106 -160t-136 -118t-170 -46q-74 0 -128 26t-90 70 t-53 104t-17 126zM122 322q0 -40 13 -80t39 -72t64 -52t88 -20q56 0 118 43t118 112t102 155t68 168q-58 54 -125 78t-135 21t-131 -31t-112 -74t-78 -110t-29 -138z" />
<glyph unicode="&#xa8;" horiz-adv-x="534" d="M44 1058q0 26 18 48t56 22q36 0 54 -22t18 -48t-18 -48t-54 -22t-55 22t-19 48zM348 1058q0 26 18 48t56 22q36 0 54 -22t18 -48t-18 -48t-54 -22t-55 22t-19 48z" />
<glyph unicode="&#xa9;" horiz-adv-x="1310" d="M47 529q-21 143 3 291q30 194 109 344t184 250t227 148t240 38q124 -12 216 -94t149 -208t76 -286t-3 -330q-20 -156 -84 -285t-157 -219t-209 -136t-238 -40q-150 10 -258 83t-171 187t-84 257zM141 550q19 -120 73 -217t139 -160t193 -75q88 -12 187 26t186 115 t151 186t84 239q28 180 9 332t-72 264t-135 178t-182 74t-199 -43t-184 -147t-150 -230t-95 -296q-24 -126 -5 -246zM300 732q4 66 21 132t43 127t60 115t76 94q58 56 131 82t157 8q44 -10 70 -48t38 -90t12 -113t-4 -117q-2 -28 -20 -41t-38 -13t-36 13t-14 37q2 38 3 80 t-1 78t-9 63t-19 35q-60 38 -117 12t-103 -88q-24 -34 -49 -77t-45 -92t-34 -102t-18 -105q-6 -78 15 -149t77 -123q46 -42 106 -48q88 -8 170 39t128 163q12 28 32 37t39 4t30 -21t3 -38q-30 -86 -74 -142t-96 -88t-110 -45t-118 -13q-66 0 -118 25t-90 65q-58 66 -81 156 t-17 188z" />
<glyph unicode="&#xab;" horiz-adv-x="1142" d="M58 265q-2 25 15 49t53 36q136 44 229 91t177 99q20 12 39 4t30 -26t9 -41t-26 -39q-94 -52 -181 -89t-171 -85q30 -10 60 -22t70 -27t94 -34t134 -43q36 -10 46 -35t2 -47t-32 -34t-58 4q-54 24 -102 44t-96 39t-102 37t-120 38q-32 10 -50 33t-20 48zM514 291 q-2 25 15 49t53 36q136 44 229 91t177 99q20 12 39 4t30 -26t9 -41t-26 -39q-94 -52 -181 -89t-171 -85q30 -10 60 -22t70 -27t94 -34t134 -43q36 -10 46 -35t2 -47t-32 -34t-58 4q-54 24 -102 44t-96 39t-102 37t-120 38q-32 10 -50 33t-20 48z" />
<glyph unicode="&#xad;" horiz-adv-x="1114" d="M82 676q0 22 13 40t39 18q126 -16 253 -20t242 -1t209 12t152 19q26 0 40 -20t16 -43t-10 -42t-38 -19q-34 -2 -77 -2h-132t-243 -1t-410 -7q-28 4 -41 24t-13 42z" />
<glyph unicode="&#xae;" horiz-adv-x="1310" d="M47 529q-21 143 3 291q30 194 109 344t184 250t227 148t240 38q124 -12 216 -94t149 -208t76 -286t-3 -330q-20 -156 -84 -285t-157 -219t-209 -136t-238 -40q-150 10 -258 83t-171 187t-84 257zM141 550q19 -120 73 -217t139 -160t193 -75q88 -12 187 26t186 115 t151 186t84 239q28 180 9 332t-72 264t-135 178t-182 74t-199 -43t-184 -147t-150 -230t-95 -296q-24 -126 -5 -246zM386 1270q0 14 17 23t37 9t37 -7t17 -21v-48t2 -88q24 48 79 103t122 89t133 31t112 -71q58 -88 42 -176t-76 -166t-150 -140t-180 -98q16 -38 68 -89 t112 -102t114 -92t78 -59q10 -8 3 -27t-23 -37t-39 -26t-43 8q-16 12 -63 58t-101 100t-103 106t-71 76q2 -90 2 -174t2 -168q-2 -16 -19 -25t-37 -9t-36 8t-16 24q6 48 8 134t1 188t-4 211t-7 202t-9 161t-9 92zM498 990q2 -54 3 -95t3 -109q54 18 118 51t119 79t94 103 t45 121q6 48 -14 78q-42 62 -116 36q-34 -10 -69 -38t-68 -67t-63 -81t-52 -78z" />
<glyph unicode="&#xaf;" horiz-adv-x="924" d="M64 1054q0 22 13 40t39 18q126 -16 224 -20t178 -2t145 10t123 18q26 0 40 -20t16 -43t-10 -42t-38 -19h-35h-29t-52 1t-101 0t-178 -2t-281 -5q-28 4 -41 24t-13 42z" />
<glyph unicode="&#xb4;" horiz-adv-x="310" d="M46 1035q-2 17 12 31q18 18 40 39t43 40t36 33t19 18q10 12 25 9t27 -15t15 -28t-13 -30q-58 -52 -88 -87t-42 -45q-16 -16 -33 -12t-28 17t-13 30z" />
<glyph unicode="&#xb8;" horiz-adv-x="334" d="M40 -51q-4 27 2 73q0 26 15 40t33 16t32 -10t14 -38v-58q98 -22 138 -77t32 -115t-59 -110t-135 -60q-20 -2 -32 13t-15 34t3 34t24 15q48 -2 80 24t38 59t-20 61t-98 32q-10 0 -21 5t-19 20t-12 42z" />
<glyph unicode="&#xbb;" horiz-adv-x="1146" d="M56 54q-8 22 2 47t46 35q80 24 134 43t94 34t70 27t60 22q-84 48 -171 85t-181 89q-24 16 -26 39t8 41t30 26t40 -4q84 -52 177 -99t229 -91q36 -12 53 -36t15 -49t-20 -48t-50 -33q-66 -20 -120 -38t-102 -37t-96 -39t-102 -44q-34 -16 -58 -4t-32 34zM508 50 q-8 22 2 47t46 35q80 24 134 43t94 34t70 27t60 22q-84 48 -171 85t-181 89q-24 16 -26 39t8 41t30 26t40 -4q84 -52 177 -99t229 -91q36 -12 53 -36t15 -49t-20 -48t-50 -33q-66 -20 -120 -38t-102 -37t-96 -39t-102 -44q-34 -16 -58 -4t-32 34z" />
<glyph unicode="&#xbf;" horiz-adv-x="958" d="M44 448q10 164 139 284t355 158q0 40 -2 73t-3 69t-3 80t-4 106q4 28 23 41t41 13t40 -13t20 -39q-6 -44 -8 -78t-3 -66t-1 -66v-78q0 -28 1 -56t-8 -50t-34 -38t-77 -20q-62 -4 -126 -32t-117 -71t-87 -100t-36 -119q-2 -116 26 -196t75 -131t105 -76t114 -29 q72 -6 141 15t123 68t85 120t27 171q0 18 15 28t33 10t35 -10t19 -28q12 -102 -18 -190t-91 -154t-150 -102t-197 -32q-88 4 -173 37t-149 100t-101 167t-29 234zM524 1594q0 26 18 48t54 22t55 -22t19 -48t-18 -48t-56 -22q-36 0 -54 22t-18 48z" />
<glyph unicode="&#xc0;" horiz-adv-x="1174" d="M32 74q44 76 111 220t143 320q-12 -4 -23 -7t-21 -7q-26 -4 -44 13t-23 40t4 43t35 24q24 6 53 11t75 13q62 146 122 293t110 274t86 224t48 143q6 18 25 30t40 14t40 -9t23 -41q6 -40 19 -119t32 -186t41 -237t46 -272l44 8l44 8q28 0 44 -16t20 -38t-6 -42t-36 -26 l-90 -6q28 -176 59 -352t59 -342q0 -28 -18 -44t-40 -19t-43 7t-27 36q-2 52 -9 128t-19 167t-28 196t-34 213q-136 -16 -260 -39t-224 -47q-68 -162 -134 -322t-126 -304q-14 -24 -38 -28t-45 5t-33 29t-2 44zM458 764q70 12 171 29t247 45q-16 90 -32 179t-33 173t-32 159 t-29 135q-26 -64 -58 -145t-70 -174t-79 -195t-85 -206zM665 1926q3 16 15 28t27 15t25 -9q4 -4 19 -18t36 -33t43 -40t40 -39q14 -14 12 -31t-13 -30t-28 -17t-33 12q-12 10 -42 45t-88 87q-16 14 -13 30z" />
<glyph unicode="&#xc1;" horiz-adv-x="1174" d="M32 74q44 76 111 220t143 320q-12 -4 -23 -7t-21 -7q-26 -4 -44 13t-23 40t4 43t35 24q24 6 53 11t75 13q62 146 122 293t110 274t86 224t48 143q6 18 25 30t40 14t40 -9t23 -41q6 -40 19 -119t32 -186t41 -237t46 -272l44 8l44 8q28 0 44 -16t20 -38t-6 -42t-36 -26 l-90 -6q28 -176 59 -352t59 -342q0 -28 -18 -44t-40 -19t-43 7t-27 36q-2 52 -9 128t-19 167t-28 196t-34 213q-136 -16 -260 -39t-224 -47q-68 -162 -134 -322t-126 -304q-14 -24 -38 -28t-45 5t-33 29t-2 44zM458 764q70 12 171 29t247 45q-16 90 -32 179t-33 173t-32 159 t-29 135q-26 -64 -58 -145t-70 -174t-79 -195t-85 -206zM674 1801q-2 17 12 31q18 18 40 39t43 40t36 33t19 18q10 12 25 9t27 -15t15 -28t-13 -30q-58 -52 -88 -87t-42 -45q-16 -16 -33 -12t-28 17t-13 30z" />
<glyph unicode="&#xc2;" horiz-adv-x="1174" d="M32 74q44 76 111 220t143 320q-12 -4 -23 -7t-21 -7q-26 -4 -44 13t-23 40t4 43t35 24q24 6 53 11t75 13q62 146 122 293t110 274t86 224t48 143q6 18 25 30t40 14t40 -9t23 -41q6 -40 19 -119t32 -186t41 -237t46 -272l44 8l44 8q28 0 44 -16t20 -38t-6 -42t-36 -26 l-90 -6q28 -176 59 -352t59 -342q0 -28 -18 -44t-40 -19t-43 7t-27 36q-2 52 -9 128t-19 167t-28 196t-34 213q-136 -16 -260 -39t-224 -47q-68 -162 -134 -322t-126 -304q-14 -24 -38 -28t-45 5t-33 29t-2 44zM458 764q70 12 171 29t247 45q-16 90 -32 179t-33 173t-32 159 t-29 135q-26 -64 -58 -145t-70 -174t-79 -195t-85 -206zM628 1812q-8 18 8 44q24 50 38 77t28 63q6 18 23 26t35 8t34 -8t22 -22q2 -6 10 -22t20 -38t25 -46t25 -46q8 -18 1 -33t-23 -23t-34 -6t-30 20q-8 14 -17 33t-33 71q-10 -24 -15 -34l-9 -18t-8 -17t-12 -29t-27 -25 t-36 1t-25 24z" />
<glyph unicode="&#xc3;" horiz-adv-x="1174" d="M32 74q44 76 111 220t143 320q-12 -4 -23 -7t-21 -7q-26 -4 -44 13t-23 40t4 43t35 24q24 6 53 11t75 13q62 146 122 293t110 274t86 224t48 143q6 18 25 30t40 14t40 -9t23 -41q6 -40 19 -119t32 -186t41 -237t46 -272l44 8l44 8q28 0 44 -16t20 -38t-6 -42t-36 -26 l-90 -6q28 -176 59 -352t59 -342q0 -28 -18 -44t-40 -19t-43 7t-27 36q-2 52 -9 128t-19 167t-28 196t-34 213q-136 -16 -260 -39t-224 -47q-68 -162 -134 -322t-126 -304q-14 -24 -38 -28t-45 5t-33 29t-2 44zM458 764q70 12 171 29t247 45q-16 90 -32 179t-33 173t-32 159 t-29 135q-26 -64 -58 -145t-70 -174t-79 -195t-85 -206zM486 1810q2 46 18 81t41 59t58 35t69 11q54 -2 92 -29t69 -57t61 -51t68 -9q28 8 47 34t23 68q2 18 17 27t32 10t30 -8t13 -29q-4 -84 -51 -131t-111 -55q-62 -6 -101 17t-70 53t-59 55t-68 23q-34 -4 -58 -31 t-28 -73q-2 -18 -17 -27t-32 -10t-30 8t-13 29z" />
<glyph unicode="&#xc4;" horiz-adv-x="1174" d="M32 74q44 76 111 220t143 320q-12 -4 -23 -7t-21 -7q-26 -4 -44 13t-23 40t4 43t35 24q24 6 53 11t75 13q62 146 122 293t110 274t86 224t48 143q6 18 25 30t40 14t40 -9t23 -41q6 -40 19 -119t32 -186t41 -237t46 -272l44 8l44 8q28 0 44 -16t20 -38t-6 -42t-36 -26 l-90 -6q28 -176 59 -352t59 -342q0 -28 -18 -44t-40 -19t-43 7t-27 36q-2 52 -9 128t-19 167t-28 196t-34 213q-136 -16 -260 -39t-224 -47q-68 -162 -134 -322t-126 -304q-14 -24 -38 -28t-45 5t-33 29t-2 44zM458 764q70 12 171 29t247 45q-16 90 -32 179t-33 173t-32 159 t-29 135q-26 -64 -58 -145t-70 -174t-79 -195t-85 -206zM556 1830q0 26 18 48t56 22q36 0 54 -22t18 -48t-18 -48t-54 -22t-55 22t-19 48zM860 1830q0 26 18 48t56 22q36 0 54 -22t18 -48t-18 -48t-54 -22t-55 22t-19 48z" />
<glyph unicode="&#xc5;" horiz-adv-x="1174" d="M32 74q44 76 111 220t143 320q-12 -4 -23 -7t-21 -7q-26 -4 -44 13t-23 40t4 43t35 24q24 6 53 11t75 13q62 146 122 293t110 274t86 224t48 143q6 18 25 30t40 14t40 -9t23 -41q6 -40 19 -119t32 -186t41 -237t46 -272l44 8l44 8q28 0 44 -16t20 -38t-6 -42t-36 -26 l-90 -6q28 -176 59 -352t59 -342q0 -28 -18 -44t-40 -19t-43 7t-27 36q-2 52 -9 128t-19 167t-28 196t-34 213q-136 -16 -260 -39t-224 -47q-68 -162 -134 -322t-126 -304q-14 -24 -38 -28t-45 5t-33 29t-2 44zM458 764q70 12 171 29t247 45q-16 90 -32 179t-33 173t-32 159 t-29 135q-26 -64 -58 -145t-70 -174t-79 -195t-85 -206zM642 1888q0 32 14 61t43 48t75 19q64 0 95 -38t31 -84t-32 -86t-92 -42q-44 -2 -73 16t-45 46t-16 60zM710 1891q0 -21 15 -39t45 -18t45 18t15 39t-15 39t-45 18t-45 -18t-15 -39z" />
<glyph unicode="&#xc6;" horiz-adv-x="1932" d="M77 17q-9 21 3 45q26 36 71 108t97 163t108 193t106 200q-14 -2 -25 -5t-21 -5q-28 -2 -43 16t-17 40t9 42t37 22q26 6 55 10t77 8q80 142 152 274t130 242t99 192t59 128q6 16 24 25t37 7t34 -14t17 -38v-24q34 4 75 8t117 13t202 22t330 35q26 -2 41 -20t17 -40t-9 -41 t-37 -23q-232 8 -417 -17t-315 -53q4 -102 7 -259t7 -345q42 2 89 8t116 14t169 19t248 27q26 -2 41 -20t17 -40t-9 -41t-37 -23q-192 6 -343 -10t-289 -40q4 -172 9 -350t9 -354q34 2 76 7t118 13t200 21t322 35q26 -2 41 -20t17 -40t-9 -41t-37 -23q-124 4 -237 -2 t-211 -18t-179 -28t-141 -32q-28 -10 -56 2t-30 46q6 56 9 139t4 184t0 215t-3 230q-120 -8 -222 -23t-194 -31q-44 -78 -99 -179t-111 -204t-108 -200t-90 -167q-16 -22 -39 -24t-41 9t-27 32zM654 862q64 6 145 16t207 26q-4 144 -10 289t-20 293q-34 -62 -67 -129 t-71 -143t-83 -163t-101 -189z" />
<glyph unicode="&#xc7;" horiz-adv-x="1082" d="M60 730q6 92 24 203t50 224t80 219t113 187t148 127t187 40q66 -6 112 -42t77 -91t47 -123t23 -139t6 -139t-5 -122q-2 -28 -23 -43t-45 -16t-42 11t-14 38q36 264 -7 403t-145 149q-78 6 -141 -39t-114 -122t-89 -177t-64 -202t-41 -198t-19 -166q-6 -114 1 -221 t41 -192t100 -138t176 -55q60 -2 124 15t122 61t103 121t67 195q6 38 29 53t45 11t37 -27t7 -63q-30 -136 -87 -228t-131 -148t-158 -80t-166 -24q-140 0 -226 69t-133 177t-61 239t-8 253zM440 -59q-4 27 2 73q0 26 15 40t33 16t32 -10t14 -38v-58q98 -22 138 -77t32 -115 t-59 -110t-135 -60q-20 -2 -32 13t-15 34t3 34t24 15q48 -2 80 24t38 59t-20 61t-98 32q-10 0 -21 5t-19 20t-12 42z" />
<glyph unicode="&#xc8;" horiz-adv-x="1024" d="M54 1664q0 26 20 40t43 16t42 -10t19 -38v-26q34 4 75 8t117 13t202 22t330 35q26 -2 41 -20t17 -40t-9 -41t-37 -23q-232 8 -417 -17t-315 -53q4 -102 7 -259t7 -345q42 2 89 8t116 14t169 19t248 27q26 -2 41 -20t17 -40t-9 -41t-37 -23q-192 6 -343 -10t-289 -40 q4 -172 9 -350t9 -354q34 2 76 7t118 13t200 21t322 35q26 -2 41 -20t17 -40t-9 -41t-37 -23q-124 4 -237 -2t-211 -18t-179 -28t-141 -32q-28 -10 -56 2t-30 46q10 84 13 226t1 310t-7 345t-12 330t-15 265t-16 152zM405 1920q3 16 15 28t27 15t25 -9q4 -4 19 -18t36 -33 t43 -40t40 -39q14 -14 12 -31t-13 -30t-28 -17t-33 12q-12 10 -42 45t-88 87q-16 14 -13 30z" />
<glyph unicode="&#xc9;" horiz-adv-x="1024" d="M54 1664q0 26 20 40t43 16t42 -10t19 -38v-26q34 4 75 8t117 13t202 22t330 35q26 -2 41 -20t17 -40t-9 -41t-37 -23q-232 8 -417 -17t-315 -53q4 -102 7 -259t7 -345q42 2 89 8t116 14t169 19t248 27q26 -2 41 -20t17 -40t-9 -41t-37 -23q-192 6 -343 -10t-289 -40 q4 -172 9 -350t9 -354q34 2 76 7t118 13t200 21t322 35q26 -2 41 -20t17 -40t-9 -41t-37 -23q-124 4 -237 -2t-211 -18t-179 -28t-141 -32q-28 -10 -56 2t-30 46q10 84 13 226t1 310t-7 345t-12 330t-15 265t-16 152zM400 1793q-2 17 12 31q18 18 40 39t43 40t36 33t19 18 q10 12 25 9t27 -15t15 -28t-13 -30q-58 -52 -88 -87t-42 -45q-16 -16 -33 -12t-28 17t-13 30z" />
<glyph unicode="&#xca;" horiz-adv-x="1024" d="M54 1664q0 26 20 40t43 16t42 -10t19 -38v-26q34 4 75 8t117 13t202 22t330 35q26 -2 41 -20t17 -40t-9 -41t-37 -23q-232 8 -417 -17t-315 -53q4 -102 7 -259t7 -345q42 2 89 8t116 14t169 19t248 27q26 -2 41 -20t17 -40t-9 -41t-37 -23q-192 6 -343 -10t-289 -40 q4 -172 9 -350t9 -354q34 2 76 7t118 13t200 21t322 35q26 -2 41 -20t17 -40t-9 -41t-37 -23q-124 4 -237 -2t-211 -18t-179 -28t-141 -32q-28 -10 -56 2t-30 46q10 84 13 226t1 310t-7 345t-12 330t-15 265t-16 152zM382 1800q-8 18 8 44q24 50 38 77t28 63q6 18 23 26 t35 8t34 -8t22 -22q2 -6 10 -22t20 -38t25 -46t25 -46q8 -18 1 -33t-23 -23t-34 -6t-30 20q-8 14 -17 33t-33 71q-10 -24 -15 -34l-9 -18t-8 -17t-12 -29t-27 -25t-36 1t-25 24z" />
<glyph unicode="&#xcb;" horiz-adv-x="1024" d="M54 1664q0 26 20 40t43 16t42 -10t19 -38v-26q34 4 75 8t117 13t202 22t330 35q26 -2 41 -20t17 -40t-9 -41t-37 -23q-232 8 -417 -17t-315 -53q4 -102 7 -259t7 -345q42 2 89 8t116 14t169 19t248 27q26 -2 41 -20t17 -40t-9 -41t-37 -23q-192 6 -343 -10t-289 -40 q4 -172 9 -350t9 -354q34 2 76 7t118 13t200 21t322 35q26 -2 41 -20t17 -40t-9 -41t-37 -23q-124 4 -237 -2t-211 -18t-179 -28t-141 -32q-28 -10 -56 2t-30 46q10 84 13 226t1 310t-7 345t-12 330t-15 265t-16 152zM286 1816q0 26 18 48t56 22q36 0 54 -22t18 -48t-18 -48 t-54 -22t-55 22t-19 48zM590 1816q0 26 18 48t56 22q36 0 54 -22t18 -48t-18 -48t-54 -22t-55 22t-19 48z" />
<glyph unicode="&#xcc;" horiz-adv-x="1186" d="M36 1539q-4 23 5 43t35 20q20 0 82 7t148 18t187 24t201 27t187 26t147 22q28 0 44 -18t19 -40t-8 -41t-37 -23q-108 -2 -219 -11t-225 -23q2 -90 5 -247t8 -351t9 -408t10 -420q90 10 202 26t254 38q28 0 44 -18t19 -40t-8 -41t-37 -23q-134 -2 -271 -15t-262 -31 t-231 -38t-178 -38q-26 -6 -43 11t-21 40t5 44t35 25q20 2 50 6t74 9t105 12t147 17q6 104 7 231t0 263t-4 273t-8 261t-12 227t-13 171q-60 -8 -118 -17t-109 -19t-93 -19t-68 -17q-26 -4 -43 15t-21 42zM445 1920q3 16 15 28t27 15t25 -9q4 -4 19 -18t36 -33t43 -40 t40 -39q14 -14 12 -31t-13 -30t-28 -17t-33 12q-12 10 -42 45t-88 87q-16 14 -13 30z" />
<glyph unicode="&#xcd;" horiz-adv-x="1186" d="M36 1539q-4 23 5 43t35 20q20 0 82 7t148 18t187 24t201 27t187 26t147 22q28 0 44 -18t19 -40t-8 -41t-37 -23q-108 -2 -219 -11t-225 -23q2 -90 5 -247t8 -351t9 -408t10 -420q90 10 202 26t254 38q28 0 44 -18t19 -40t-8 -41t-37 -23q-134 -2 -271 -15t-262 -31 t-231 -38t-178 -38q-26 -6 -43 11t-21 40t5 44t35 25q20 2 50 6t74 9t105 12t147 17q6 104 7 231t0 263t-4 273t-8 261t-12 227t-13 171q-60 -8 -118 -17t-109 -19t-93 -19t-68 -17q-26 -4 -43 15t-21 42zM482 1793q-2 17 12 31q18 18 40 39t43 40t36 33t19 18q10 12 25 9 t27 -15t15 -28t-13 -30q-58 -52 -88 -87t-42 -45q-16 -16 -33 -12t-28 17t-13 30z" />
<glyph unicode="&#xce;" horiz-adv-x="1186" d="M36 1539q-4 23 5 43t35 20q20 0 82 7t148 18t187 24t201 27t187 26t147 22q28 0 44 -18t19 -40t-8 -41t-37 -23q-108 -2 -219 -11t-225 -23q2 -90 5 -247t8 -351t9 -408t10 -420q90 10 202 26t254 38q28 0 44 -18t19 -40t-8 -41t-37 -23q-134 -2 -271 -15t-262 -31 t-231 -38t-178 -38q-26 -6 -43 11t-21 40t5 44t35 25q20 2 50 6t74 9t105 12t147 17q6 104 7 231t0 263t-4 273t-8 261t-12 227t-13 171q-60 -8 -118 -17t-109 -19t-93 -19t-68 -17q-26 -4 -43 15t-21 42zM462 1800q-8 18 8 44q24 50 38 77t28 63q6 18 23 26t35 8t34 -8 t22 -22q2 -6 10 -22t20 -38t25 -46t25 -46q8 -18 1 -33t-23 -23t-34 -6t-30 20q-8 14 -17 33t-33 71q-10 -24 -15 -34l-9 -18t-8 -17t-12 -29t-27 -25t-36 1t-25 24z" />
<glyph unicode="&#xcf;" horiz-adv-x="1186" d="M36 1539q-4 23 5 43t35 20q20 0 82 7t148 18t187 24t201 27t187 26t147 22q28 0 44 -18t19 -40t-8 -41t-37 -23q-108 -2 -219 -11t-225 -23q2 -90 5 -247t8 -351t9 -408t10 -420q90 10 202 26t254 38q28 0 44 -18t19 -40t-8 -41t-37 -23q-134 -2 -271 -15t-262 -31 t-231 -38t-178 -38q-26 -6 -43 11t-21 40t5 44t35 25q20 2 50 6t74 9t105 12t147 17q6 104 7 231t0 263t-4 273t-8 261t-12 227t-13 171q-60 -8 -118 -17t-109 -19t-93 -19t-68 -17q-26 -4 -43 15t-21 42zM304 1816q0 26 18 48t56 22q36 0 54 -22t18 -48t-18 -48t-54 -22 t-55 22t-19 48zM608 1816q0 26 18 48t56 22q36 0 54 -22t18 -48t-18 -48t-54 -22t-55 22t-19 48z" />
<glyph unicode="&#xd0;" horiz-adv-x="1130" d="M44 962q0 22 13 40t39 18q54 -6 102 -12q-6 176 -14 326t-16 242q-10 -4 -20 -6t-20 -6q-20 -6 -31 7t-12 33t10 40t37 26q6 2 13 3t13 3q6 18 22 29t35 14t36 -3t25 -22q94 8 186 -2t175 -37t154 -71t125 -104q62 -70 98 -152t49 -171t5 -183t-34 -186 q-40 -134 -111 -244t-166 -199t-206 -157t-231 -118q0 -10 1 -17t1 -15q-4 -26 -22 -39t-39 -15t-40 8t-25 32q-32 -10 -56 -16q-24 -4 -37 10t-16 35t5 40t28 25l40 12t42 10q4 70 5 158t1 186t-2 203t-4 211q-26 -2 -51 -2h-53q-28 4 -41 24t-13 42zM284 1598 q4 -86 7 -242t7 -356q158 -10 267 0t201 26q26 0 40 -20t16 -43t-10 -42t-38 -19h-32h-26t-38 1t-69 1t-119 -1t-188 -3q4 -174 8 -357t8 -365q96 38 190 99t176 142t146 180t100 213q24 80 33 163t-2 162t-43 150t-88 131q-50 50 -113 87t-135 60t-148 31t-150 2z" />
<glyph unicode="&#xd1;" horiz-adv-x="1120" d="M56 1656q-6 30 10 48t40 23t47 -3t33 -28q8 -18 46 -96t96 -195t132 -266t154 -309t163 -324t159 -310q6 140 10 293t6 305t4 295t2 262t-1 206t-1 129q0 26 19 38t42 10t43 -16t20 -40q-2 -14 -6 -92t-9 -201t-11 -280t-10 -329t-7 -347t-1 -335q0 -42 -17 -67t-41 -32 t-49 3t-39 40q-42 92 -99 211t-123 251t-135 269t-134 265t-121 240t-94 192q2 -120 6 -288t9 -360t9 -393t10 -387q-4 -28 -24 -41t-42 -13t-41 13t-21 39q10 84 14 221t3 300t-5 335t-11 324t-16 269t-19 171zM240 1796q2 46 18 81t41 59t58 35t69 11q54 -2 92 -29t69 -57 t61 -51t68 -9q28 8 47 34t23 68q2 18 17 27t32 10t30 -8t13 -29q-4 -84 -51 -131t-111 -55q-62 -6 -101 17t-70 53t-59 55t-68 23q-34 -4 -58 -31t-28 -73q-2 -18 -17 -27t-32 -10t-30 8t-13 29z" />
<glyph unicode="&#xd2;" d="M40 545q-6 151 18 311q24 168 78 331t128 289t164 198t188 60q102 -14 171 -105t106 -229t44 -307t-15 -339q-20 -154 -65 -295t-111 -247t-151 -166t-187 -52q-124 10 -202 86t-119 195t-47 270zM147 577q1 -123 27 -225t80 -171t142 -83q74 -12 142 42t124 149t97 217 t59 248q20 144 16 295t-33 276t-84 206t-135 85q-46 2 -91 -33t-88 -95t-81 -140t-69 -169t-54 -181t-35 -176q-18 -122 -17 -245zM519 1944q3 16 15 28t27 15t25 -9q4 -4 19 -18t36 -33t43 -40t40 -39q14 -14 12 -31t-13 -30t-28 -17t-33 12q-12 10 -42 45t-88 87 q-16 14 -13 30z" />
<glyph unicode="&#xd3;" d="M40 545q-6 151 18 311q24 168 78 331t128 289t164 198t188 60q102 -14 171 -105t106 -229t44 -307t-15 -339q-20 -154 -65 -295t-111 -247t-151 -166t-187 -52q-124 10 -202 86t-119 195t-47 270zM147 577q1 -123 27 -225t80 -171t142 -83q74 -12 142 42t124 149t97 217 t59 248q20 144 16 295t-33 276t-84 206t-135 85q-46 2 -91 -33t-88 -95t-81 -140t-69 -169t-54 -181t-35 -176q-18 -122 -17 -245zM470 1821q-2 17 12 31q18 18 40 39t43 40t36 33t19 18q10 12 25 9t27 -15t15 -28t-13 -30q-58 -52 -88 -87t-42 -45q-16 -16 -33 -12t-28 17 t-13 30z" />
<glyph unicode="&#xd4;" d="M40 545q-6 151 18 311q24 168 78 331t128 289t164 198t188 60q102 -14 171 -105t106 -229t44 -307t-15 -339q-20 -154 -65 -295t-111 -247t-151 -166t-187 -52q-124 10 -202 86t-119 195t-47 270zM147 577q1 -123 27 -225t80 -171t142 -83q74 -12 142 42t124 149t97 217 t59 248q20 144 16 295t-33 276t-84 206t-135 85q-46 2 -91 -33t-88 -95t-81 -140t-69 -169t-54 -181t-35 -176q-18 -122 -17 -245zM428 1804q-8 18 8 44q24 50 38 77t28 63q6 18 23 26t35 8t34 -8t22 -22q2 -6 10 -22t20 -38t25 -46t25 -46q8 -18 1 -33t-23 -23t-34 -6 t-30 20q-8 14 -17 33t-33 71q-10 -24 -15 -34l-9 -18t-8 -17t-12 -29t-27 -25t-36 1t-25 24z" />
<glyph unicode="&#xd5;" d="M40 545q-6 151 18 311q24 168 78 331t128 289t164 198t188 60q102 -14 171 -105t106 -229t44 -307t-15 -339q-20 -154 -65 -295t-111 -247t-151 -166t-187 -52q-124 10 -202 86t-119 195t-47 270zM147 577q1 -123 27 -225t80 -171t142 -83q74 -12 142 42t124 149t97 217 t59 248q20 144 16 295t-33 276t-84 206t-135 85q-46 2 -91 -33t-88 -95t-81 -140t-69 -169t-54 -181t-35 -176q-18 -122 -17 -245zM284 1804q2 46 18 81t41 59t58 35t69 11q54 -2 92 -29t69 -57t61 -51t68 -9q28 8 47 34t23 68q2 18 17 27t32 10t30 -8t13 -29 q-4 -84 -51 -131t-111 -55q-62 -6 -101 17t-70 53t-59 55t-68 23q-34 -4 -58 -31t-28 -73q-2 -18 -17 -27t-32 -10t-30 8t-13 29z" />
<glyph unicode="&#xd6;" d="M40 545q-6 151 18 311q24 168 78 331t128 289t164 198t188 60q102 -14 171 -105t106 -229t44 -307t-15 -339q-20 -154 -65 -295t-111 -247t-151 -166t-187 -52q-124 10 -202 86t-119 195t-47 270zM147 577q1 -123 27 -225t80 -171t142 -83q74 -12 142 42t124 149t97 217 t59 248q20 144 16 295t-33 276t-84 206t-135 85q-46 2 -91 -33t-88 -95t-81 -140t-69 -169t-54 -181t-35 -176q-18 -122 -17 -245zM362 1828q0 26 18 48t56 22q36 0 54 -22t18 -48t-18 -48t-54 -22t-55 22t-19 48zM666 1828q0 26 18 48t56 22q36 0 54 -22t18 -48t-18 -48 t-54 -22t-55 22t-19 48z" />
<glyph unicode="&#xd7;" horiz-adv-x="1168" d="M159 294q-5 22 15 40q16 18 35 37t51 49t79 75t119 115q-52 52 -117 114t-145 140q-16 22 -11 46t20 39t37 18t40 -15q56 -72 118 -141t126 -133q52 52 117 116t145 144q24 16 47 11t39 -20t18 -37t-16 -40q-76 -58 -147 -119t-135 -123q90 -86 169 -153t131 -103 q18 -18 14 -42t-19 -42t-37 -23t-40 15q-18 16 -38 35t-50 50t-77 78t-121 119q-88 -90 -156 -165t-104 -127q-20 -18 -44 -14t-41 19t-22 37z" />
<glyph unicode="&#xd8;" d="M40 633q2 109 18 223q24 168 78 331t128 289t164 198t188 60q74 -12 130 -62q2 10 6 26q10 24 34 31t46 -1t35 -26t3 -42q-4 -10 -13 -38t-25 -68q38 -72 62 -164t35 -196t9 -217t-16 -223q-20 -154 -65 -295t-111 -247t-151 -166t-187 -52q-36 4 -67 12t-59 22 q0 -4 -2 -6t-2 -6q-14 -24 -37 -29t-44 4t-34 28t-5 43l22 44q-52 58 -83 140t-45 180t-12 207zM148 652q-4 -86 3 -166t25 -150t52 -122q38 86 81 196t88 232t90 248t86 245t76 224t59 183q-28 34 -58 53t-68 21q-46 2 -91 -33t-88 -95t-81 -140t-69 -169t-54 -181 t-35 -176t-16 -170zM318 124q18 -10 37 -16t41 -10q74 -12 142 42t124 149t97 217t59 248q22 168 14 342t-52 306q-42 -116 -96 -268t-115 -322t-126 -347t-125 -341z" />
<glyph unicode="&#xd9;" horiz-adv-x="1002" d="M33 1031q1 131 6 251t12 221t11 171q2 32 22 49t42 17t39 -17t11 -53q-28 -218 -40 -446t-2 -436q8 -158 40 -296t85 -235t124 -142t155 -15q282 98 318 668q12 188 -3 415t-61 483q-6 36 10 51t39 16t43 -11t20 -32q38 -290 51 -517t3 -403q-10 -216 -58 -359t-113 -230 t-134 -127t-123 -50q-120 -24 -209 32t-149 165t-93 258t-41 311q-6 130 -5 261zM395 1920q3 16 15 28t27 15t25 -9q4 -4 19 -18t36 -33t43 -40t40 -39q14 -14 12 -31t-13 -30t-28 -17t-33 12q-12 10 -42 45t-88 87q-16 14 -13 30z" />
<glyph unicode="&#xda;" horiz-adv-x="1002" d="M33 1031q1 131 6 251t12 221t11 171q2 32 22 49t42 17t39 -17t11 -53q-28 -218 -40 -446t-2 -436q8 -158 40 -296t85 -235t124 -142t155 -15q282 98 318 668q12 188 -3 415t-61 483q-6 36 10 51t39 16t43 -11t20 -32q38 -290 51 -517t3 -403q-10 -216 -58 -359t-113 -230 t-134 -127t-123 -50q-120 -24 -209 32t-149 165t-93 258t-41 311q-6 130 -5 261zM390 1793q-2 17 12 31q18 18 40 39t43 40t36 33t19 18q10 12 25 9t27 -15t15 -28t-13 -30q-58 -52 -88 -87t-42 -45q-16 -16 -33 -12t-28 17t-13 30z" />
<glyph unicode="&#xdb;" horiz-adv-x="1002" d="M33 1031q1 131 6 251t12 221t11 171q2 32 22 49t42 17t39 -17t11 -53q-28 -218 -40 -446t-2 -436q8 -158 40 -296t85 -235t124 -142t155 -15q282 98 318 668q12 188 -3 415t-61 483q-6 36 10 51t39 16t43 -11t20 -32q38 -290 51 -517t3 -403q-10 -216 -58 -359t-113 -230 t-134 -127t-123 -50q-120 -24 -209 32t-149 165t-93 258t-41 311q-6 130 -5 261zM370 1800q-8 18 8 44q24 50 38 77t28 63q6 18 23 26t35 8t34 -8t22 -22q2 -6 10 -22t20 -38t25 -46t25 -46q8 -18 1 -33t-23 -23t-34 -6t-30 20q-8 14 -17 33t-33 71q-10 -24 -15 -34l-9 -18 t-8 -17t-12 -29t-27 -25t-36 1t-25 24z" />
<glyph unicode="&#xdc;" horiz-adv-x="1002" d="M33 1031q1 131 6 251t12 221t11 171q2 32 22 49t42 17t39 -17t11 -53q-28 -218 -40 -446t-2 -436q8 -158 40 -296t85 -235t124 -142t155 -15q282 98 318 668q12 188 -3 415t-61 483q-6 36 10 51t39 16t43 -11t20 -32q38 -290 51 -517t3 -403q-10 -216 -58 -359t-113 -230 t-134 -127t-123 -50q-120 -24 -209 32t-149 165t-93 258t-41 311q-6 130 -5 261zM276 1816q0 26 18 48t56 22q36 0 54 -22t18 -48t-18 -48t-54 -22t-55 22t-19 48zM580 1816q0 26 18 48t56 22q36 0 54 -22t18 -48t-18 -48t-54 -22t-55 22t-19 48z" />
<glyph unicode="&#xdd;" horiz-adv-x="976" d="M56 1619q8 23 26 38t40 16t36 -21q8 -34 48 -108t108 -172t162 -210t212 -224q30 132 57 255t48 224t34 173t15 100q8 24 31 33t45 5t38 -20t8 -42q-4 -20 -20 -99t-44 -203t-63 -283t-75 -335t-84 -362t-86 -364q-10 -26 -33 -34t-45 -2t-37 24t-9 44q42 110 82 293 t104 447q-80 94 -175 207t-180 223t-150 204t-87 148q-14 22 -6 45zM376 1793q-2 17 12 31q18 18 40 39t43 40t36 33t19 18q10 12 25 9t27 -15t15 -28t-13 -30q-58 -52 -88 -87t-42 -45q-16 -16 -33 -12t-28 17t-13 30z" />
<glyph unicode="&#xde;" horiz-adv-x="900" d="M82 -590q12 110 17 254t6 306t-1 332t-5 330t-7 302t-6 246q0 30 19 48t43 20t43 -13t19 -49q-2 -92 -2 -154t2 -119t7 -124t15 -169q6 6 18 32t31 62t48 76t71 74t98 59t130 31t121 -38t72 -110t33 -144t6 -140q-2 -100 -33 -193t-83 -165t-123 -116t-155 -46 q-54 -2 -116 15t-120 77q0 -2 -2 -54t-5 -129t-7 -166t-7 -166t-6 -129t-3 -54q-6 -20 -24 -31t-38 -11t-36 13t-20 43zM262 276q0 -42 20 -76t50 -56t67 -32t73 -4q60 8 112 45t90 92t60 124t22 141q0 30 -1 87t-12 113t-39 97t-82 41q-86 0 -153 -65t-113 -156t-70 -188 t-24 -163z" />
<glyph unicode="&#xdf;" horiz-adv-x="1020" d="M54 -76q6 54 8 140t2 194t-1 231t-1 250t1 252t7 237q2 70 24 144t65 141t107 119t154 80q66 20 124 19t104 -18t77 -49t43 -76q16 -60 -1 -136t-57 -152t-96 -146t-118 -118q74 32 153 37t145 -21t113 -87t57 -159q12 -128 -42 -243t-142 -213t-192 -176t-190 -130 q-18 -12 -38 -6t-31 20t-8 32t31 34q84 46 178 121t172 165t126 189t38 193q-10 88 -53 129t-105 49t-133 -9t-135 -41q-38 -16 -74 -33t-70 -33q-30 -16 -45 -6t-18 32t7 47t32 41q86 62 164 140t135 159t85 158t16 137q-10 48 -70 69t-138 1q-66 -16 -116 -52t-84 -86 t-55 -113t-31 -131q-12 -82 -18 -198t-7 -277t5 -373t18 -486q0 -18 -18 -28t-41 -10t-42 11t-21 35z" />
<glyph unicode="&#xe0;" horiz-adv-x="954" d="M81 273q5 69 26 139t43 124q34 84 84 159t114 133t140 92t164 34q24 0 52 -10t52 -31t41 -54t19 -77q4 -90 4 -167t3 -165t13 -197t32 -261q4 -28 -10 -42t-34 -15t-39 6t-21 21q-8 34 -14 91t-11 120t-8 125t-5 108q-34 -82 -70 -151t-83 -123t-105 -88t-136 -42 q-40 -4 -83 5t-77 33q-58 38 -77 101t-14 132zM184 190q8 -50 50 -74q36 -20 90 -20q60 0 111 36t93 95t73 132t51 147t30 142t10 116q0 36 -14 57t-50 21q-60 0 -118 -27t-108 -74t-92 -111t-72 -140q-12 -30 -29 -83t-25 -110t0 -107zM511 1170q3 16 15 28t27 15t25 -9 q4 -4 19 -18t36 -33t43 -40t40 -39q14 -14 12 -31t-13 -30t-28 -17t-33 12q-12 10 -42 45t-88 87q-16 14 -13 30z" />
<glyph unicode="&#xe1;" horiz-adv-x="954" d="M81 273q5 69 26 139t43 124q34 84 84 159t114 133t140 92t164 34q24 0 52 -10t52 -31t41 -54t19 -77q4 -90 4 -167t3 -165t13 -197t32 -261q4 -28 -10 -42t-34 -15t-39 6t-21 21q-8 34 -14 91t-11 120t-8 125t-5 108q-34 -82 -70 -151t-83 -123t-105 -88t-136 -42 q-40 -4 -83 5t-77 33q-58 38 -77 101t-14 132zM184 190q8 -50 50 -74q36 -20 90 -20q60 0 111 36t93 95t73 132t51 147t30 142t10 116q0 36 -14 57t-50 21q-60 0 -118 -27t-108 -74t-92 -111t-72 -140q-12 -30 -29 -83t-25 -110t0 -107zM488 1061q-2 17 12 31q18 18 40 39 t43 40t36 33t19 18q10 12 25 9t27 -15t15 -28t-13 -30q-58 -52 -88 -87t-42 -45q-16 -16 -33 -12t-28 17t-13 30z" />
<glyph unicode="&#xe2;" horiz-adv-x="954" d="M81 273q5 69 26 139t43 124q34 84 84 159t114 133t140 92t164 34q24 0 52 -10t52 -31t41 -54t19 -77q4 -90 4 -167t3 -165t13 -197t32 -261q4 -28 -10 -42t-34 -15t-39 6t-21 21q-8 34 -14 91t-11 120t-8 125t-5 108q-34 -82 -70 -151t-83 -123t-105 -88t-136 -42 q-40 -4 -83 5t-77 33q-58 38 -77 101t-14 132zM184 190q8 -50 50 -74q36 -20 90 -20q60 0 111 36t93 95t73 132t51 147t30 142t10 116q0 36 -14 57t-50 21q-60 0 -118 -27t-108 -74t-92 -111t-72 -140q-12 -30 -29 -83t-25 -110t0 -107zM496 1034q-8 18 8 44q24 50 38 77 t28 63q6 18 23 26t35 8t34 -8t22 -22q2 -6 10 -22t20 -38t25 -46t25 -46q8 -18 1 -33t-23 -23t-34 -6t-30 20q-8 14 -17 33t-33 71q-10 -24 -15 -34l-9 -18t-8 -17t-12 -29t-27 -25t-36 1t-25 24z" />
<glyph unicode="&#xe3;" horiz-adv-x="954" d="M81 273q5 69 26 139t43 124q34 84 84 159t114 133t140 92t164 34q24 0 52 -10t52 -31t41 -54t19 -77q4 -90 4 -167t3 -165t13 -197t32 -261q4 -28 -10 -42t-34 -15t-39 6t-21 21q-8 34 -14 91t-11 120t-8 125t-5 108q-34 -82 -70 -151t-83 -123t-105 -88t-136 -42 q-40 -4 -83 5t-77 33q-58 38 -77 101t-14 132zM184 190q8 -50 50 -74q36 -20 90 -20q60 0 111 36t93 95t73 132t51 147t30 142t10 116q0 36 -14 57t-50 21q-60 0 -118 -27t-108 -74t-92 -111t-72 -140q-12 -30 -29 -83t-25 -110t0 -107zM290 1056q2 46 18 81t41 59t58 35 t69 11q54 -2 92 -29t69 -57t61 -51t68 -9q28 8 47 34t23 68q2 18 17 27t32 10t30 -8t13 -29q-4 -84 -51 -131t-111 -55q-62 -6 -101 17t-70 53t-59 55t-68 23q-34 -4 -58 -31t-28 -73q-2 -18 -17 -27t-32 -10t-30 8t-13 29z" />
<glyph unicode="&#xe4;" horiz-adv-x="954" d="M81 273q5 69 26 139t43 124q34 84 84 159t114 133t140 92t164 34q24 0 52 -10t52 -31t41 -54t19 -77q4 -90 4 -167t3 -165t13 -197t32 -261q4 -28 -10 -42t-34 -15t-39 6t-21 21q-8 34 -14 91t-11 120t-8 125t-5 108q-34 -82 -70 -151t-83 -123t-105 -88t-136 -42 q-40 -4 -83 5t-77 33q-58 38 -77 101t-14 132zM184 190q8 -50 50 -74q36 -20 90 -20q60 0 111 36t93 95t73 132t51 147t30 142t10 116q0 36 -14 57t-50 21q-60 0 -118 -27t-108 -74t-92 -111t-72 -140q-12 -30 -29 -83t-25 -110t0 -107zM360 1082q0 26 18 48t56 22 q36 0 54 -22t18 -48t-18 -48t-54 -22t-55 22t-19 48zM664 1082q0 26 18 48t56 22q36 0 54 -22t18 -48t-18 -48t-54 -22t-55 22t-19 48z" />
<glyph unicode="&#xe5;" horiz-adv-x="954" d="M81 273q5 69 26 139t43 124q34 84 84 159t114 133t140 92t164 34q24 0 52 -10t52 -31t41 -54t19 -77q4 -90 4 -167t3 -165t13 -197t32 -261q4 -28 -10 -42t-34 -15t-39 6t-21 21q-8 34 -14 91t-11 120t-8 125t-5 108q-34 -82 -70 -151t-83 -123t-105 -88t-136 -42 q-40 -4 -83 5t-77 33q-58 38 -77 101t-14 132zM184 190q8 -50 50 -74q36 -20 90 -20q60 0 111 36t93 95t73 132t51 147t30 142t10 116q0 36 -14 57t-50 21q-60 0 -118 -27t-108 -74t-92 -111t-72 -140q-12 -30 -29 -83t-25 -110t0 -107zM442 1110q0 32 14 61t43 48t75 19 q64 0 95 -38t31 -84t-32 -86t-92 -42q-44 -2 -73 16t-45 46t-16 60zM510 1113q0 -21 15 -39t45 -18t45 18t15 39t-15 39t-45 18t-45 -18t-15 -39z" />
<glyph unicode="&#xe6;" horiz-adv-x="1388" d="M55 283q5 69 26 139t43 124q34 84 84 159t114 133t140 92t164 34q34 0 77 -22t67 -68q46 48 105 76t131 32q84 2 136 -40t82 -104t43 -132t19 -126q2 -28 -20 -48t-56 -24q-176 -18 -294 -22t-194 -2q-18 -102 -4 -182t42 -144q30 -62 79 -84t105 -15t112 36t100 69 q74 64 110 150q10 20 31 20t39 -13t27 -33t-5 -40q-16 -24 -36 -51t-42 -53t-43 -50t-41 -38q-54 -44 -129 -71t-152 -26t-146 38t-107 121q-16 30 -25 64t-13 70q-56 -100 -130 -164t-188 -76q-40 -4 -83 5t-77 33q-58 38 -77 101t-14 132zM158 200q8 -50 50 -74 q36 -20 90 -20q58 0 107 33t89 87t71 122t53 140v4q4 14 11 45t14 70t11 82t1 79t-16 59t-37 25q-60 4 -118 -22t-108 -74t-92 -114t-72 -142q-12 -30 -29 -83t-25 -110t0 -107zM742 592h55h86t99 2t94 6t69 12t29 20q0 24 -9 66t-30 82t-54 69t-81 27q-84 -4 -145 -55 t-95 -155z" />
<glyph unicode="&#xe7;" horiz-adv-x="800" d="M52 432q4 66 21 132t43 127t60 115t76 94q58 56 131 82t157 8q44 -10 70 -48t38 -90t12 -113t-4 -117q-2 -28 -20 -41t-38 -13t-36 13t-14 37q2 38 3 80t-1 78t-9 63t-19 35q-60 38 -117 12t-103 -88q-24 -34 -49 -77t-45 -92t-34 -102t-18 -105q-6 -78 15 -149t77 -123 q46 -42 106 -48q88 -8 170 39t128 163q12 28 32 37t39 4t30 -21t3 -38q-30 -86 -74 -142t-96 -88t-110 -45t-118 -13q-66 0 -118 25t-90 65q-58 66 -81 156t-17 188zM344 -51q-4 27 2 73q0 26 15 40t33 16t32 -10t14 -38v-58q98 -22 138 -77t32 -115t-59 -110t-135 -60 q-20 -2 -32 13t-15 34t3 34t24 15q48 -2 80 24t38 59t-20 61t-98 32q-10 0 -21 5t-19 20t-12 42z" />
<glyph unicode="&#xe8;" horiz-adv-x="924" d="M22 542q2 18 14 34t36 16h60t36 2q16 78 48 147t79 122t109 85t138 34q84 2 136 -40t82 -104t43 -132t19 -126q2 -28 -20 -48t-56 -24q-176 -18 -294 -22t-194 -2q-18 -102 -4 -182t42 -144q30 -62 79 -84t105 -15t112 36t100 69q74 64 110 150q10 20 31 20t39 -13 t27 -33t-5 -40q-16 -24 -36 -51t-42 -53t-43 -50t-41 -38q-54 -44 -129 -71t-152 -26t-146 38t-107 121q-22 46 -32 98t-13 102t-2 95t3 79q-16 -2 -47 -1t-47 1q-20 0 -30 16t-8 34zM276 592h55h86t99 2t95 6t70 12t29 20q0 24 -9 66t-30 82t-54 69t-81 27q-96 -4 -163 -73 t-97 -211zM455 1220q3 16 15 28t27 15t25 -9q4 -4 19 -18t36 -33t43 -40t40 -39q14 -14 12 -31t-13 -30t-28 -17t-33 12q-12 10 -42 45t-88 87q-16 14 -13 30z" />
<glyph unicode="&#xe9;" horiz-adv-x="924" d="M22 542q2 18 14 34t36 16h60t36 2q16 78 48 147t79 122t109 85t138 34q84 2 136 -40t82 -104t43 -132t19 -126q2 -28 -20 -48t-56 -24q-176 -18 -294 -22t-194 -2q-18 -102 -4 -182t42 -144q30 -62 79 -84t105 -15t112 36t100 69q74 64 110 150q10 20 31 20t39 -13 t27 -33t-5 -40q-16 -24 -36 -51t-42 -53t-43 -50t-41 -38q-54 -44 -129 -71t-152 -26t-146 38t-107 121q-22 46 -32 98t-13 102t-2 95t3 79q-16 -2 -47 -1t-47 1q-20 0 -30 16t-8 34zM276 592h55h86t99 2t95 6t70 12t29 20q0 24 -9 66t-30 82t-54 69t-81 27q-96 -4 -163 -73 t-97 -211zM430 1089q-2 17 12 31q18 18 40 39t43 40t36 33t19 18q10 12 25 9t27 -15t15 -28t-13 -30q-58 -52 -88 -87t-42 -45q-16 -16 -33 -12t-28 17t-13 30z" />
<glyph unicode="&#xea;" horiz-adv-x="924" d="M22 542q2 18 14 34t36 16h60t36 2q16 78 48 147t79 122t109 85t138 34q84 2 136 -40t82 -104t43 -132t19 -126q2 -28 -20 -48t-56 -24q-176 -18 -294 -22t-194 -2q-18 -102 -4 -182t42 -144q30 -62 79 -84t105 -15t112 36t100 69q74 64 110 150q10 20 31 20t39 -13 t27 -33t-5 -40q-16 -24 -36 -51t-42 -53t-43 -50t-41 -38q-54 -44 -129 -71t-152 -26t-146 38t-107 121q-22 46 -32 98t-13 102t-2 95t3 79q-16 -2 -47 -1t-47 1q-20 0 -30 16t-8 34zM276 592h55h86t99 2t95 6t70 12t29 20q0 24 -9 66t-30 82t-54 69t-81 27q-96 -4 -163 -73 t-97 -211zM394 1048q-8 18 8 44q24 50 38 77t28 63q6 18 23 26t35 8t34 -8t22 -22q2 -6 10 -22t20 -38t25 -46t25 -46q8 -18 1 -33t-23 -23t-34 -6t-30 20q-8 14 -17 33t-33 71q-10 -24 -15 -34l-9 -18t-8 -17t-12 -29t-27 -25t-36 1t-25 24z" />
<glyph unicode="&#xeb;" horiz-adv-x="924" d="M22 542q2 18 14 34t36 16h60t36 2q16 78 48 147t79 122t109 85t138 34q84 2 136 -40t82 -104t43 -132t19 -126q2 -28 -20 -48t-56 -24q-176 -18 -294 -22t-194 -2q-18 -102 -4 -182t42 -144q30 -62 79 -84t105 -15t112 36t100 69q74 64 110 150q10 20 31 20t39 -13 t27 -33t-5 -40q-16 -24 -36 -51t-42 -53t-43 -50t-41 -38q-54 -44 -129 -71t-152 -26t-146 38t-107 121q-22 46 -32 98t-13 102t-2 95t3 79q-16 -2 -47 -1t-47 1q-20 0 -30 16t-8 34zM276 592h55h86t99 2t95 6t70 12t29 20q0 24 -9 66t-30 82t-54 69t-81 27q-96 -4 -163 -73 t-97 -211zM326 1098q0 26 18 48t56 22q36 0 54 -22t18 -48t-18 -48t-54 -22t-55 22t-19 48zM630 1098q0 26 18 48t56 22q36 0 54 -22t18 -48t-18 -48t-54 -22t-55 22t-19 48z" />
<glyph unicode="&#xec;" horiz-adv-x="272" d="M33 1162q3 16 15 28t27 15t25 -9q4 -4 19 -18t36 -33t43 -40t40 -39q14 -14 12 -31t-13 -30t-28 -17t-33 12q-12 10 -42 45t-88 87q-16 14 -13 30zM74 892q0 26 20 40t43 16t42 -10t19 -38q2 -34 2 -77t1 -132t4 -243t9 -410q-4 -28 -23 -41t-41 -13t-40 13t-20 39 q14 126 18 253t0 242t-13 209t-21 152z" />
<glyph unicode="&#xed;" horiz-adv-x="272" d="M28 1035q-2 17 12 31q18 18 40 39t43 40t36 33t19 18q10 12 25 9t27 -15t15 -28t-13 -30q-58 -52 -88 -87t-42 -45q-16 -16 -33 -12t-28 17t-13 30zM74 892q0 26 20 40t43 16t42 -10t19 -38q2 -34 2 -77t1 -132t4 -243t9 -410q-4 -28 -23 -41t-41 -13t-40 13t-20 39 q14 126 18 253t0 242t-13 209t-21 152z" />
<glyph unicode="&#xee;" horiz-adv-x="272" d="M8 1042q-8 18 8 44q24 50 38 77t28 63q6 18 23 26t35 8t34 -8t22 -22q2 -6 10 -22t20 -38t25 -46t25 -46q8 -18 1 -33t-23 -23t-34 -6t-30 20q-8 14 -17 33t-33 71q-10 -24 -15 -34l-9 -18t-8 -17t-12 -29t-27 -25t-36 1t-25 24zM74 892q0 26 20 40t43 16t42 -10t19 -38 q2 -34 2 -77t1 -132t4 -243t9 -410q-4 -28 -23 -41t-41 -13t-40 13t-20 39q14 126 18 253t0 242t-13 209t-21 152z" />
<glyph unicode="&#xef;" horiz-adv-x="272" d="M-86 1058q0 26 18 48t56 22q36 0 54 -22t18 -48t-18 -48t-54 -22t-55 22t-19 48zM74 892q0 26 20 40t43 16t42 -10t19 -38q2 -34 2 -77t1 -132t4 -243t9 -410q-4 -28 -23 -41t-41 -13t-40 13t-20 39q14 126 18 253t0 242t-13 209t-21 152zM218 1058q0 26 18 48t56 22 q36 0 54 -22t18 -48t-18 -48t-54 -22t-55 22t-19 48z" />
<glyph unicode="&#xf0;" horiz-adv-x="964" d="M32 754q4 82 27 144t63 98t92 38q68 2 122 -43t95 -123t69 -178t45 -205t24 -206t5 -181q56 -8 103 23t80 83t53 118t24 126q14 192 -6 357t-60 303q-24 82 -53 153t-63 131q-84 -34 -204 -83t-296 -121q-28 -6 -47 7t-28 34t-3 43t30 32q132 34 260 79t238 93 q-40 60 -77 107t-67 79q-14 14 -9 34t22 32t41 12t48 -24q74 -76 142 -196q126 62 196 104q24 8 45 -5t31 -34t5 -43t-29 -30q-16 -8 -34 -15t-41 -16t-54 -21t-73 -30q64 -130 110 -288q50 -176 69 -362t-1 -368q-8 -74 -35 -149t-73 -136t-110 -97t-144 -32q-84 4 -167 57 t-153 134t-122 183t-74 206q-20 94 -16 176zM129 691q5 -63 23 -135q20 -78 59 -152t84 -132t93 -98t86 -48q2 52 -6 132t-24 169t-38 178t-50 159t-60 112t-68 38t-60 -34t-34 -78t-5 -111z" />
<glyph unicode="&#xf1;" horiz-adv-x="886" d="M56 46q18 124 24 251t5 241t-9 208t-18 154q2 26 21 40t41 16t40 -8t18 -30q4 -70 3 -146t1 -160q30 50 69 109t87 109t103 83t115 33q90 0 151 -68t97 -191t46 -292t-4 -369q-2 -26 -21 -37t-41 -9t-39 14t-15 32q16 156 16 304t-21 263t-66 181t-119 56 q-58 -6 -116 -63t-106 -129t-81 -142t-45 -104l-22 -364q-4 -26 -22 -36t-38 -7t-37 19t-17 42zM138 1070q2 46 18 81t41 59t58 35t69 11q54 -2 92 -29t69 -57t61 -51t68 -9q28 8 47 34t23 68q2 18 17 27t32 10t30 -8t13 -29q-4 -84 -51 -131t-111 -55q-62 -6 -101 17 t-70 53t-59 55t-68 23q-34 -4 -58 -31t-28 -73q-2 -18 -17 -27t-32 -10t-30 8t-13 29z" />
<glyph unicode="&#xf2;" horiz-adv-x="772" d="M39 289q-5 87 13 177q18 96 60 188t100 163t128 112t146 35q78 -8 132 -60t83 -130t35 -173t-12 -191q-16 -88 -51 -169t-86 -143t-118 -97t-145 -31q-96 6 -157 50t-92 113t-36 156zM139 320q1 -66 21 -119t59 -89t103 -42q56 -6 104 20t86 75t64 114t40 135 q16 80 15 161t-21 144t-60 101t-100 34q-54 -4 -102 -40t-87 -92t-67 -125t-42 -141q-14 -70 -13 -136zM405 1188q3 16 15 28t27 15t25 -9q4 -4 19 -18t36 -33t43 -40t40 -39q14 -14 12 -31t-13 -30t-28 -17t-33 12q-12 10 -42 45t-88 87q-16 14 -13 30z" />
<glyph unicode="&#xf3;" horiz-adv-x="772" d="M39 289q-5 87 13 177q18 96 60 188t100 163t128 112t146 35q78 -8 132 -60t83 -130t35 -173t-12 -191q-16 -88 -51 -169t-86 -143t-118 -97t-145 -31q-96 6 -157 50t-92 113t-36 156zM139 320q1 -66 21 -119t59 -89t103 -42q56 -6 104 20t86 75t64 114t40 135 q16 80 15 161t-21 144t-60 101t-100 34q-54 -4 -102 -40t-87 -92t-67 -125t-42 -141q-14 -70 -13 -136zM274 1035q-2 17 12 31q18 18 40 39t43 40t36 33t19 18q10 12 25 9t27 -15t15 -28t-13 -30q-58 -52 -88 -87t-42 -45q-16 -16 -33 -12t-28 17t-13 30z" />
<glyph unicode="&#xf4;" horiz-adv-x="772" d="M39 289q-5 87 13 177q18 96 60 188t100 163t128 112t146 35q78 -8 132 -60t83 -130t35 -173t-12 -191q-16 -88 -51 -169t-86 -143t-118 -97t-145 -31q-96 6 -157 50t-92 113t-36 156zM139 320q1 -66 21 -119t59 -89t103 -42q56 -6 104 20t86 75t64 114t40 135 q16 80 15 161t-21 144t-60 101t-100 34q-54 -4 -102 -40t-87 -92t-67 -125t-42 -141q-14 -70 -13 -136zM314 1060q-8 18 8 44q24 50 38 77t28 63q6 18 23 26t35 8t34 -8t22 -22q2 -6 10 -22t20 -38t25 -46t25 -46q8 -18 1 -33t-23 -23t-34 -6t-30 20q-8 14 -17 33t-33 71 q-10 -24 -15 -34l-9 -18t-8 -17t-12 -29t-27 -25t-36 1t-25 24z" />
<glyph unicode="&#xf5;" horiz-adv-x="772" d="M39 289q-5 87 13 177q18 96 60 188t100 163t128 112t146 35q78 -8 132 -60t83 -130t35 -173t-12 -191q-16 -88 -51 -169t-86 -143t-118 -97t-145 -31q-96 6 -157 50t-92 113t-36 156zM139 320q1 -66 21 -119t59 -89t103 -42q56 -6 104 20t86 75t64 114t40 135 q16 80 15 161t-21 144t-60 101t-100 34q-54 -4 -102 -40t-87 -92t-67 -125t-42 -141q-14 -70 -13 -136zM140 1048q2 46 18 81t41 59t58 35t69 11q54 -2 92 -29t69 -57t61 -51t68 -9q28 8 47 34t23 68q2 18 17 27t32 10t30 -8t13 -29q-4 -84 -51 -131t-111 -55 q-62 -6 -101 17t-70 53t-59 55t-68 23q-34 -4 -58 -31t-28 -73q-2 -18 -17 -27t-32 -10t-30 8t-13 29z" />
<glyph unicode="&#xf6;" horiz-adv-x="772" d="M39 289q-5 87 13 177q18 96 60 188t100 163t128 112t146 35q78 -8 132 -60t83 -130t35 -173t-12 -191q-16 -88 -51 -169t-86 -143t-118 -97t-145 -31q-96 6 -157 50t-92 113t-36 156zM139 320q1 -66 21 -119t59 -89t103 -42q56 -6 104 20t86 75t64 114t40 135 q16 80 15 161t-21 144t-60 101t-100 34q-54 -4 -102 -40t-87 -92t-67 -125t-42 -141q-14 -70 -13 -136zM246 1072q0 26 18 48t56 22q36 0 54 -22t18 -48t-18 -48t-54 -22t-55 22t-19 48zM550 1072q0 26 18 48t56 22q36 0 54 -22t18 -48t-18 -48t-54 -22t-55 22t-19 48z" />
<glyph unicode="&#xf7;" horiz-adv-x="818" d="M52 748q0 22 13 40t39 18q126 -16 213 -19t154 1t122 13t113 19q26 0 40 -20t16 -43t-10 -42t-38 -19q-24 -2 -30 -2h-17t-35 -1t-84 -2t-166 -3t-276 -6q-28 4 -41 24t-13 42zM306 976q0 26 18 48t56 22q36 0 54 -22t18 -48t-18 -48t-54 -22t-55 22t-19 48zM318 508 q0 26 18 48t56 22q36 0 54 -22t18 -48t-18 -48t-54 -22t-55 22t-19 48z" />
<glyph unicode="&#xf8;" horiz-adv-x="772" d="M46 224q-20 116 6 242q18 96 60 188t100 163t128 112t146 35q36 -4 66 -18q8 30 18 54t34 31t46 -1t35 -26t3 -42q-4 -16 -15 -37t-27 -53q64 -80 82 -206t-4 -256q-16 -88 -51 -169t-86 -143t-118 -97t-145 -31q-40 2 -74 12q-6 -14 -11 -27t-9 -27q-14 -24 -37 -29 t-44 4t-34 28t-5 43q8 16 15 32t17 32q-76 70 -96 186zM142 282q8 -84 50 -140q40 82 84 175t86 186t81 181t69 160q-30 12 -62 10q-54 -4 -102 -40t-87 -92t-67 -125t-42 -141q-18 -90 -10 -174zM286 76q10 -2 18 -4t18 -2q56 -6 104 20t86 75t64 114t40 135q18 96 13 191 t-37 159q-56 -108 -133 -277t-173 -411z" />
<glyph unicode="&#xf9;" horiz-adv-x="730" d="M47 750q1 86 1 142q0 32 18 49t40 17t40 -17t16 -53q-2 -24 -4 -91t-1 -154t9 -182t29 -174t59 -130t98 -51q54 0 93 43t66 113t43 159t23 180t8 177t-3 150q-2 36 17 49t41 10t41 -19t17 -36q-4 -286 -36 -468t-82 -286t-111 -142t-123 -36q-82 2 -137 54t-88 132 t-49 180t-21 199t-4 185zM259 1162q3 16 15 28t27 15t25 -9q4 -4 19 -18t36 -33t43 -40t40 -39q14 -14 12 -31t-13 -30t-28 -17t-33 12q-12 10 -42 45t-88 87q-16 14 -13 30z" />
<glyph unicode="&#xfa;" horiz-adv-x="730" d="M47 750q1 86 1 142q0 32 18 49t40 17t40 -17t16 -53q-2 -24 -4 -91t-1 -154t9 -182t29 -174t59 -130t98 -51q54 0 93 43t66 113t43 159t23 180t8 177t-3 150q-2 36 17 49t41 10t41 -19t17 -36q-4 -286 -36 -468t-82 -286t-111 -142t-123 -36q-82 2 -137 54t-88 132 t-49 180t-21 199t-4 185zM254 1035q-2 17 12 31q18 18 40 39t43 40t36 33t19 18q10 12 25 9t27 -15t15 -28t-13 -30q-58 -52 -88 -87t-42 -45q-16 -16 -33 -12t-28 17t-13 30z" />
<glyph unicode="&#xfb;" horiz-adv-x="730" d="M47 750q1 86 1 142q0 32 18 49t40 17t40 -17t16 -53q-2 -24 -4 -91t-1 -154t9 -182t29 -174t59 -130t98 -51q54 0 93 43t66 113t43 159t23 180t8 177t-3 150q-2 36 17 49t41 10t41 -19t17 -36q-4 -286 -36 -468t-82 -286t-111 -142t-123 -36q-82 2 -137 54t-88 132 t-49 180t-21 199t-4 185zM234 1042q-8 18 8 44q24 50 38 77t28 63q6 18 23 26t35 8t34 -8t22 -22q2 -6 10 -22t20 -38t25 -46t25 -46q8 -18 1 -33t-23 -23t-34 -6t-30 20q-8 14 -17 33t-33 71q-10 -24 -15 -34l-9 -18t-8 -17t-12 -29t-27 -25t-36 1t-25 24z" />
<glyph unicode="&#xfc;" horiz-adv-x="730" d="M47 750q1 86 1 142q0 32 18 49t40 17t40 -17t16 -53q-2 -24 -4 -91t-1 -154t9 -182t29 -174t59 -130t98 -51q54 0 93 43t66 113t43 159t23 180t8 177t-3 150q-2 36 17 49t41 10t41 -19t17 -36q-4 -286 -36 -468t-82 -286t-111 -142t-123 -36q-82 2 -137 54t-88 132 t-49 180t-21 199t-4 185zM140 1058q0 26 18 48t56 22q36 0 54 -22t18 -48t-18 -48t-54 -22t-55 22t-19 48zM444 1058q0 26 18 48t56 22q36 0 54 -22t18 -48t-18 -48t-54 -22t-55 22t-19 48z" />
<glyph unicode="&#xfd;" horiz-adv-x="1006" d="M42 869q8 23 26 38t40 16t36 -21q8 -34 48 -108t108 -172t162 -210t212 -224q30 132 57 255t48 224t34 173t15 100q8 24 31 33t45 5t38 -20t8 -42q-6 -20 -25 -95t-46 -189t-62 -260t-72 -310t-74 -339t-71 -347q-10 -26 -33 -34t-45 -2t-37 24t-9 44q20 54 37 111 t35 129t39 167t53 227q-80 94 -175 207t-180 223t-150 204t-87 148q-14 22 -6 45zM392 1035q-2 17 12 31q18 18 40 39t43 40t36 33t19 18q10 12 25 9t27 -15t15 -28t-13 -30q-58 -52 -88 -87t-42 -45q-16 -16 -33 -12t-28 17t-13 30z" />
<glyph unicode="&#xfe;" horiz-adv-x="870" d="M54 54q10 110 15 243t6 277t-1 294t-6 293t-8 273t-6 234q0 30 19 48t43 20t43 -13t19 -49q-2 -92 -3 -145t0 -100t4 -106t13 -161q6 6 18 32t31 62t48 76t71 74t98 59t130 31t121 -38t72 -110t33 -144t6 -140q-2 -100 -33 -193t-83 -165t-123 -116t-155 -46 q-54 -2 -116 15t-120 77q0 -2 -1 -47t-3 -110t-4 -141t-4 -142t-4 -110t-2 -46q-6 -20 -24 -31t-38 -11t-36 13t-20 43zM222 818q0 -42 20 -76t50 -56t67 -32t73 -4q60 8 112 45t90 92t60 124t22 141q0 30 -1 87t-12 113t-39 97t-82 41q-86 0 -153 -65t-113 -156t-70 -188 t-24 -163z" />
<glyph unicode="&#xff;" horiz-adv-x="1006" d="M42 869q8 23 26 38t40 16t36 -21q8 -34 48 -108t108 -172t162 -210t212 -224q30 132 57 255t48 224t34 173t15 100q8 24 31 33t45 5t38 -20t8 -42q-6 -20 -25 -95t-46 -189t-62 -260t-72 -310t-74 -339t-71 -347q-10 -26 -33 -34t-45 -2t-37 24t-9 44q20 54 37 111 t35 129t39 167t53 227q-80 94 -175 207t-180 223t-150 204t-87 148q-14 22 -6 45zM278 1058q0 26 18 48t56 22q36 0 54 -22t18 -48t-18 -48t-54 -22t-55 22t-19 48zM582 1058q0 26 18 48t56 22q36 0 54 -22t18 -48t-18 -48t-54 -22t-55 22t-19 48z" />
<glyph unicode="&#x152;" horiz-adv-x="1676" d="M62 523q-6 151 18 311q24 168 78 331t128 289t164 198t188 60q42 -6 74 -24q10 18 30 26t40 6t34 -14t14 -34v-26q34 4 75 8t117 13t202 22t330 35q26 -2 41 -20t17 -40t-9 -41t-37 -23q-232 8 -417 -17t-315 -53q2 -48 3 -122t3 -157t4 -168t4 -157q42 2 89 8t116 14 t169 19t248 27q26 -2 41 -20t17 -40t-9 -41t-37 -23q-192 6 -343 -10t-289 -40q4 -176 9 -352t9 -352q34 2 76 7t118 13t200 21t322 35q26 -2 41 -20t17 -40t-9 -41t-37 -23q-124 4 -237 -2t-211 -18t-179 -28t-141 -32q-18 -6 -37 19t-33 37q-30 -26 -71 -42t-85 -23 t-89 -8t-83 1q-124 10 -202 86t-119 195t-47 270zM169 554q1 -124 27 -226t80 -171t142 -81q108 -16 196 10t138 86q4 46 4 100v112v38q0 142 -3 300t-8 310t-12 284t-13 222q-54 54 -116 56q-46 2 -91 -33t-88 -95t-81 -140t-69 -169t-54 -181t-35 -176q-18 -122 -17 -246z " />
<glyph unicode="&#x153;" horiz-adv-x="1322" d="M53 305q-5 87 13 177q18 96 60 188t100 163t128 112t146 35q62 -6 107 -40t77 -86q48 58 112 91t144 37q84 2 136 -40t82 -104t43 -132t19 -126q2 -28 -20 -48t-56 -24q-176 -18 -294 -22t-194 -2q-18 -102 -4 -182t42 -144q30 -62 79 -84t105 -15t112 36t100 69 q74 64 110 150q10 20 31 20t39 -13t27 -33t-5 -40q-16 -24 -36 -51t-42 -53t-43 -50t-41 -38q-50 -40 -119 -67t-141 -30t-139 23t-111 92q-62 -44 -140 -68t-142 -20q-96 6 -157 50t-92 113t-36 156zM153 336q1 -66 21 -119t59 -89t103 -42q26 -4 58 0t65 14t64 26t55 36 q-20 68 -28 143t-3 152t22 152t49 141q-22 58 -59 91t-95 29q-54 -4 -102 -40t-87 -92t-67 -125t-42 -141q-14 -70 -13 -136zM674 592h55h86t99 2t95 6t70 12t29 20q0 24 -9 66t-30 82t-54 69t-81 27q-96 -4 -163 -73t-97 -211z" />
<glyph unicode="&#x178;" horiz-adv-x="976" d="M56 1619q8 23 26 38t40 16t36 -21q8 -34 48 -108t108 -172t162 -210t212 -224q30 132 57 255t48 224t34 173t15 100q8 24 31 33t45 5t38 -20t8 -42q-4 -20 -20 -99t-44 -203t-63 -283t-75 -335t-84 -362t-86 -364q-10 -26 -33 -34t-45 -2t-37 24t-9 44q42 110 82 293 t104 447q-80 94 -175 207t-180 223t-150 204t-87 148q-14 22 -6 45zM262 1816q0 26 18 48t56 22q36 0 54 -22t18 -48t-18 -48t-54 -22t-55 22t-19 48zM566 1816q0 26 18 48t56 22q36 0 54 -22t18 -48t-18 -48t-54 -22t-55 22t-19 48z" />
<glyph unicode="&#x2c6;" horiz-adv-x="434" d="M90 1042q-8 18 8 44q24 50 38 77t28 63q6 18 23 26t35 8t34 -8t22 -22q2 -6 10 -22t20 -38t25 -46t25 -46q8 -18 1 -33t-23 -23t-34 -6t-30 20q-8 14 -17 33t-33 71q-10 -24 -15 -34l-9 -18t-8 -17t-12 -29t-27 -25t-36 1t-25 24z" />
<glyph unicode="&#x2dc;" horiz-adv-x="710" d="M34 1038q2 46 18 81t41 59t58 35t69 11q54 -2 92 -29t69 -57t61 -51t68 -9q28 8 47 34t23 68q2 18 17 27t32 10t30 -8t13 -29q-4 -84 -51 -131t-111 -55q-62 -6 -101 17t-70 53t-59 55t-68 23q-34 -4 -58 -31t-28 -73q-2 -18 -17 -27t-32 -10t-30 8t-13 29z" />
<glyph unicode="&#x2000;" horiz-adv-x="1015" />
<glyph unicode="&#x2001;" horiz-adv-x="2030" />
<glyph unicode="&#x2002;" horiz-adv-x="1015" />
<glyph unicode="&#x2003;" horiz-adv-x="2030" />
<glyph unicode="&#x2004;" horiz-adv-x="676" />
<glyph unicode="&#x2005;" horiz-adv-x="507" />
<glyph unicode="&#x2006;" horiz-adv-x="338" />
<glyph unicode="&#x2007;" horiz-adv-x="338" />
<glyph unicode="&#x2008;" horiz-adv-x="253" />
<glyph unicode="&#x2009;" horiz-adv-x="406" />
<glyph unicode="&#x200a;" horiz-adv-x="112" />
<glyph unicode="&#x2010;" horiz-adv-x="1114" d="M82 676q0 22 13 40t39 18q126 -16 253 -20t242 -1t209 12t152 19q26 0 40 -20t16 -43t-10 -42t-38 -19q-34 -2 -77 -2h-132t-243 -1t-410 -7q-28 4 -41 24t-13 42z" />
<glyph unicode="&#x2011;" horiz-adv-x="1114" d="M82 676q0 22 13 40t39 18q126 -16 253 -20t242 -1t209 12t152 19q26 0 40 -20t16 -43t-10 -42t-38 -19q-34 -2 -77 -2h-132t-243 -1t-410 -7q-28 4 -41 24t-13 42z" />
<glyph unicode="&#x2012;" horiz-adv-x="1114" d="M82 676q0 22 13 40t39 18q126 -16 253 -20t242 -1t209 12t152 19q26 0 40 -20t16 -43t-10 -42t-38 -19q-34 -2 -77 -2h-132t-243 -1t-410 -7q-28 4 -41 24t-13 42z" />
<glyph unicode="&#x2013;" horiz-adv-x="924" d="M82 676q0 22 13 40t39 18q126 -16 224 -20t178 -2t145 10t123 18q26 0 40 -20t16 -43t-10 -42t-38 -19h-35h-29t-52 1t-101 0t-178 -2t-281 -5q-28 4 -41 24t-13 42z" />
<glyph unicode="&#x2014;" horiz-adv-x="1388" d="M82 676q0 22 13 40t39 18q84 -10 190 -15t221 -6t229 2t214 8t176 11t116 14q26 0 40 -20t16 -43t-10 -42t-38 -19q-70 -4 -353 -4t-799 -10q-28 4 -41 24t-13 42z" />
<glyph unicode="&#x2018;" horiz-adv-x="324" d="M96 1083q4 55 30 115q8 18 27 24t37 1t28 -19t0 -36q-16 -38 -22 -69t-4 -64t13 -70t31 -85q14 -34 3 -55t-30 -27t-40 2t-27 32q-8 26 -21 64t-21 85t-4 102z" />
<glyph unicode="&#x2019;" horiz-adv-x="378" d="M99 1195q11 21 30 27t40 -2t27 -32q8 -26 21 -64t21 -85t4 -102t-30 -115q-8 -18 -27 -24t-37 -2t-28 19t0 37q16 38 22 69t4 64t-13 70t-31 85q-14 34 -3 55z" />
<glyph unicode="&#x201a;" horiz-adv-x="266" d="M63 333q11 21 30 27t40 -2t27 -32q8 -26 21 -64t21 -85t4 -102t-30 -115q-8 -18 -27 -24t-37 -2t-28 19t0 37q16 38 22 69t4 64t-13 70t-31 85q-14 34 -3 55z" />
<glyph unicode="&#x201c;" horiz-adv-x="520" d="M96 949q-4 55 4 102t21 85t21 64q6 24 27 32t40 2t30 -27t-3 -55q-20 -48 -31 -85t-13 -70t4 -64t22 -69q10 -22 0 -37t-28 -19t-37 2t-27 24q-26 60 -30 115zM304 937q-4 55 4 102t21 85t21 64q6 24 27 32t40 2t30 -27t-3 -55q-20 -48 -31 -85t-13 -70t4 -64t22 -69 q10 -22 0 -37t-28 -19t-37 2t-27 24q-26 60 -30 115z" />
<glyph unicode="&#x201d;" horiz-adv-x="520" d="M99 1195q11 21 30 27t40 -2t27 -32q8 -26 21 -64t21 -85t4 -102t-30 -115q-8 -18 -27 -24t-37 -2t-28 19t0 37q16 38 22 69t4 64t-13 70t-31 85q-14 34 -3 55zM307 1207q11 21 30 27t40 -2t27 -32q8 -26 21 -64t21 -85t4 -102t-30 -115q-8 -18 -27 -24t-37 -2t-28 19 t0 37q16 38 22 69t4 64t-13 70t-31 85q-14 34 -3 55z" />
<glyph unicode="&#x201e;" horiz-adv-x="448" d="M59 355q11 21 30 27t40 -2t27 -32q8 -26 21 -64t21 -85t4 -102t-30 -115q-8 -18 -27 -24t-37 -2t-28 19t0 37q16 38 22 69t4 64t-13 70t-31 85q-14 34 -3 55zM239 365q11 21 30 27t40 -2t27 -32q8 -26 21 -64t21 -85t4 -102t-30 -115q-8 -18 -27 -24t-37 -2t-28 19t0 37 q16 38 22 69t4 64t-13 70t-31 85q-14 34 -3 55z" />
<glyph unicode="&#x2026;" horiz-adv-x="912" d="M68 72q0 26 18 48t56 22q36 0 54 -22t18 -48t-18 -48t-54 -22t-55 22t-19 48zM372 72q0 26 18 48t56 22q36 0 54 -22t18 -48t-18 -48t-54 -22t-55 22t-19 48zM676 72q0 26 18 48t56 22q36 0 54 -22t18 -48t-18 -48t-54 -22t-55 22t-19 48z" />
<glyph unicode="&#x202f;" horiz-adv-x="406" />
<glyph unicode="&#x2039;" horiz-adv-x="710" d="M58 265q-2 25 15 49t53 36q136 44 229 91t177 99q20 12 39 4t30 -26t9 -41t-26 -39q-94 -52 -181 -89t-171 -85q30 -10 60 -22t70 -27t94 -34t134 -43q36 -10 46 -35t2 -47t-32 -34t-58 4q-54 24 -102 44t-96 39t-102 37t-120 38q-32 10 -50 33t-20 48z" />
<glyph unicode="&#x203a;" horiz-adv-x="718" d="M56 54q-8 22 2 47t46 35q80 24 134 43t94 34t70 27t60 22q-84 48 -171 85t-181 89q-24 16 -26 39t8 41t30 26t40 -4q84 -52 177 -99t229 -91q36 -12 53 -36t15 -49t-20 -48t-50 -33q-66 -20 -120 -38t-102 -37t-96 -39t-102 -44q-34 -16 -58 -4t-32 34z" />
<glyph unicode="&#x205f;" horiz-adv-x="507" />
<glyph unicode="&#x20ac;" horiz-adv-x="1208" d="M62 976q0 22 13 40t39 18l108 -12q26 130 73 262t116 236t162 166t213 56q62 -4 104 -35t69 -78t42 -105t21 -115t6 -108v-83q0 -28 -22 -42t-47 -16t-43 10t-12 38q12 48 11 117t-16 135t-47 115t-82 53q-84 6 -153 -48t-121 -143t-90 -200t-62 -221q98 -4 191 -4t175 5 t148 12t112 15q26 0 40 -20t16 -43t-10 -42t-38 -19q-30 -2 -67 -2h-106t-182 -1t-299 -3q-10 -54 -15 -102t-7 -88v-6q104 -6 204 -6t188 4t160 11t120 17q26 0 40 -20t16 -43t-10 -42t-38 -19q-32 -2 -69 -2h-109t-191 -1t-315 -3q0 -98 14 -187t51 -157t99 -109t158 -43 q60 -2 124 15t122 61t103 121t67 195q6 38 29 53t45 11t37 -27t7 -63q-30 -136 -87 -228t-131 -148t-158 -80t-166 -24q-122 0 -203 53t-130 139t-71 194t-26 220h-62q-28 4 -41 24t-13 42t13 40t39 18q16 -4 32 -5t32 -3q0 4 1 8t1 8q2 76 18 170q-22 -2 -43 -2h-43 q-28 4 -41 24t-13 42z" />
<glyph unicode="&#x2122;" horiz-adv-x="1150" d="M90 1359q-2 9 1 17t13 10q38 8 108 21t147 26t149 26t114 23q6 0 15 -1t13 -7q8 -10 19 -32t31 -60t53 -92t83 -128q48 72 79 124t51 88t31 58t19 34q2 8 9 12t16 2t16 -7t7 -15q-4 -14 -7 -58t-5 -103t-4 -127t-3 -133t0 -120t5 -87q-2 -20 -24 -20t-26 20q2 74 4 152 t4 151t3 137t3 110q-34 -52 -72 -125t-74 -135q-12 -20 -32 -19t-32 19q-18 30 -38 66t-39 72t-38 69t-35 59q2 -46 3 -111t3 -139t4 -153t4 -153q-4 -22 -26 -22t-24 22q2 28 4 77t1 106t-2 120t-4 120t-6 104t-5 75q-28 -2 -65 -6t-73 -10t-68 -12t-48 -10q0 -40 2 -118 t4 -165t4 -165t4 -118q-4 -22 -26 -22t-24 22q2 22 3 94t0 159t-2 172t-3 133q-16 -2 -43 -7t-57 -11t-57 -14t-41 -16q-10 0 -17 6t-9 15z" />
<glyph unicode="&#x25fc;" horiz-adv-x="960" d="M0 0v960h960v-960h-960z" />
</font>
</defs>
</svg>
