<?xml version="1.0" standalone="no"?>
<!DOCTYPE svg PUBLIC "-//W3C//DTD SVG 1.1//EN" "http://www.w3.org/Graphics/SVG/1.1/DTD/svg11.dtd" >
<svg xmlns="http://www.w3.org/2000/svg">
<metadata></metadata>
<defs>
<font id="yummycupcakesmedium" horiz-adv-x="800" >
<font-face units-per-em="2048" ascent="1638" descent="-410" />
<missing-glyph horiz-adv-x="614" />
<glyph horiz-adv-x="2048" />
<glyph horiz-adv-x="2048" />
<glyph unicode="&#xd;" horiz-adv-x="681" />
<glyph unicode=" "  horiz-adv-x="614" />
<glyph unicode="&#x09;" horiz-adv-x="614" />
<glyph unicode="&#xa0;" horiz-adv-x="614" />
<glyph unicode="!" horiz-adv-x="233" d="M84 444q-23 641 0 975q2 20 17.5 33.5t36 11.5t33.5 -17.5t11 -35.5q-23 -328 0 -962q0 -20 -13 -36t-33.5 -16t-36 13.5t-15.5 33.5zM111 65.5q0 20.5 14 35t34.5 14.5t35 -14.5t14.5 -35t-14.5 -35t-35 -14.5t-34.5 14.5t-14 35z" />
<glyph unicode="&#x22;" horiz-adv-x="403" d="M31 1356q0 20 13 35.5t33.5 15.5t36 -13.5t15.5 -33.5q2 -82 2 -275q0 -20 -14.5 -34.5t-35 -14.5t-34.5 14.5t-14 34.5q0 193 -2 271zM238 1350q-2 20 11 35.5t33.5 17.5t36 -11.5t17.5 -33.5q2 -35 8 -124t12 -136q2 -20 -11 -37t-32.5 -19t-36 11.5t-18.5 31.5 q-4 49 -10 139.5t-10 125.5z" />
<glyph unicode="#" horiz-adv-x="1069" d="M93 717.5q-3 19.5 8.5 37t31.5 21.5q86 14 186 45q-27 436 -30 580q0 20 13 35.5t33.5 15.5t36 -13.5t15.5 -33.5q4 -152 29 -551l116 41l146 55q-2 14 -4 180q-4 115 -12 189q-2 20 10 36.5t32.5 18.5t37 -10.5t18.5 -32.5q8 -82 12 -198q0 -12 1 -65.5t1 -82.5 q92 35 164 55q20 6 37.5 -4t24 -29.5t-4 -37t-28.5 -23.5q-82 -25 -189 -63q2 -14 8.5 -142.5t10.5 -195.5q92 31 166 47q20 6 37.5 -5.5t22.5 -30.5t-6 -36.5t-30 -21.5q-84 -20 -186 -54q8 -203 8 -362q0 -20 -14.5 -34.5t-35 -14.5t-34.5 14t-14 35q0 147 -6 330 l-107 -37l-158 -51q0 -92 -2 -179q0 -20 -15 -33.5t-35.5 -13.5t-34 15.5t-13.5 36.5q2 72 2 147q-80 -18 -149 -31q-20 -2 -37 10.5t-20 32t9.5 35.5t30.5 21q78 10 164 34q-2 135 -14 322q-92 -27 -176 -43q-18 -2 -36 9t-21 30.5zM424 752q10 -186 14 -326q53 16 127 43 l133 45q-2 47 -16 332l-115 -43q-82 -31 -143 -51z" />
<glyph unicode="$" horiz-adv-x="860" d="M115 985q4 117 72.5 197t170.5 108q92 31 199 2.5t178 -110.5q16 -18 30.5 -47t20.5 -48l17 -51q10 -33 12 -37q6 -20 -3 -38.5t-28.5 -24.5t-38 3.5t-24.5 27.5q-4 14 -13.5 43.5t-14.5 44t-13 33t-18 28.5q-51 59 -129 81t-148 -1q-74 -20 -122 -76.5t-50 -138.5 q-2 -92 53 -154q49 -53 189 -155q137 -102 198 -180q127 -164 64 -289q-61 -123 -266 -123q-66 0 -199 31q-20 4 -31.5 21.5t-6.5 36.5t22.5 30.5t35.5 5.5q125 -27 179 -27q145 0 180 68q33 70 -56 184q-51 66 -180 162q-147 109 -202 170q-82 90 -78 223zM367 1536 q-2 20 9 36.5t31.5 19.5t37 -8.5t20.5 -31.5q10 -68 16 -120q2 -20 -10 -37t-32.5 -19t-37 10.5t-18.5 32.5q-6 53 -16 117zM440 -25q-2 20 10.5 37t33 19t37 -10.5t18.5 -32.5q6 -59 6 -127q0 -20 -14.5 -34.5t-35 -14.5t-35 14t-14.5 35q0 66 -6 114z" />
<glyph unicode="%" horiz-adv-x="1269" d="M288 48.5q-7 19.5 1 37.5q94 203 220 403.5t304 458.5l168 223q96 127 158 226q10 16 29.5 21t37 -6t22.5 -31t-7 -38q-53 -88 -162 -231q-129 -170 -164 -221q-178 -256 -302 -452.5t-214 -393.5q-8 -18 -27.5 -25.5t-38 1t-25.5 28zM293 1124.5q0 20.5 14.5 35 t34.5 14.5t34.5 -14.5t14.5 -35t-14.5 -35t-34.5 -14.5t-34.5 14.5t-14.5 35zM881 204.5q0 20.5 14 35t34.5 14.5t35 -14.5t14.5 -35t-14.5 -34.5t-35 -14t-34.5 14t-14 34.5z" />
<glyph unicode="&#x26;" horiz-adv-x="1112" d="M96 741q-6 113 69 263.5t177 246.5q127 117 240 97q133 -27 194 -236q6 -20 -4 -37.5t-29.5 -24t-37 4t-23.5 28.5q-45 154 -119 166q-63 12 -153 -69q-90 -86 -154 -217q-66 -131 -61 -218q2 -49 18 -59q12 -10 43 -2q49 10 141 66l9 10q37 39 61 59q20 14 37 21 q43 14 69 -21q16 -23 5 -49l-9 -16q-6 -6 -14 -13l-31 -24q-33 -25 -47 -33l-16 -10q-49 -55 -64 -78q-31 -49 -64.5 -133t-47.5 -166q-33 -188 73 -219q35 -10 82 22q47 37 102.5 115t121.5 207q-102 -16 -191 -16q-20 0 -34.5 14t-14.5 34.5t14.5 35t34.5 14.5 q51 0 103.5 5t113.5 19l98 23q35 8 116 30.5t106 28.5q18 6 36.5 -4t23.5 -29.5t-5 -38t-31 -22.5q-6 -2 -102 -28.5t-148 -38.5q-100 -203 -159 -289q-66 -92 -127 -137q-86 -63 -168 -39q-72 23 -110 79t-39 120.5t7 131.5q23 133 93 273h-5q-74 -16 -120 18 q-55 39 -60 135z" />
<glyph unicode="'" horiz-adv-x="200" d="M39 1530q0 20 14.5 34.5t35 14.5t34.5 -14.5t14 -34.5q0 -154 17 -279q2 -20 -10.5 -36.5t-33 -18.5t-37 10.5t-18.5 32.5q-16 131 -16 291z" />
<glyph unicode="(" horiz-adv-x="446" d="M42 726.5q-1 152.5 34 296.5t91 278.5t140 273.5q12 18 31.5 23.5t37 -6t22.5 -31t-5 -35.5q-82 -135 -136 -262t-86 -262.5t-31 -276.5t34 -283q29 -121 62.5 -203.5t91.5 -146.5q14 -14 14 -34.5t-15.5 -34t-36 -13.5t-32.5 17q-72 74 -109.5 169t-68.5 222 q-37 156 -38 308.5z" />
<glyph unicode=")" horiz-adv-x="360" d="M0 11.5q-6 19.5 4 37.5l76 152q23 41 55.5 125t48.5 155q37 176 40 359.5t-43 371t-142 318.5q-12 16 -9 35.5t19.5 32t36 9t31.5 -19.5q109 -143 159 -350q49 -207 46 -397q-2 -188 -43 -379q-16 -80 -52 -170q-37 -92 -57 -135l-80 -152q-8 -18 -27.5 -24.5t-38 3 t-24.5 29z" />
<glyph unicode="*" horiz-adv-x="839" d="M33 1169q8 92 73 129q51 29 132 15q100 -20 186 -90q98 156 197 186q63 20 112 -12q43 -31 62 -92q35 -115 -33 -274t-232 -279q-4 -5 -8 -7q-18 -10 -39 -4q-164 47 -286 138q-176 129 -164 290z" />
<glyph unicode="+" horiz-adv-x="706" d="M22.5 828.5q-6.5 19.5 4 37t28.5 23.5q113 33 238 53q-10 131 -14 232q0 20 13 35.5t33.5 15.5t36 -13.5t15.5 -33.5q4 -96 14 -222q115 12 225 13q20 0 35 -14.5t15 -35t-14.5 -35t-35.5 -14.5q-106 0 -217 -12q27 -283 29 -297q2 -20 -11.5 -35.5t-34 -17.5t-35.5 11 t-17 34l-27 291q-117 -18 -219 -49q-20 -6 -37.5 4t-24 29.5z" />
<glyph unicode="," horiz-adv-x="290" d="M-41 -199.5q6 19.5 23 29.5q96 53 135 118.5t35 172.5q0 20 13 35.5t33.5 15.5t36 -13.5t15.5 -33.5q6 -135 -49 -225q-51 -88 -170 -156q-18 -10 -38 -4t-30 23.5t-4 37z" />
<glyph unicode="-" horiz-adv-x="659" d="M27 653.5q0 20.5 14.5 34.5t34.5 14q57 0 123.5 5.5t111.5 11.5l125 16q80 10 121 17q20 2 36.5 -10.5t18.5 -33t-10 -37t-33 -18.5q-37 -4 -118 -14l-127 -18q-47 -6 -117 -11.5t-131 -5.5q-20 0 -34.5 14.5t-14.5 35z" />
<glyph unicode="." horiz-adv-x="149" d="M4 47.5q0 20.5 14.5 34.5t35 14t34.5 -14t14 -34.5t-14 -35t-34.5 -14.5t-35 14.5t-14.5 35z" />
<glyph unicode="/" horiz-adv-x="946" d="M9 55.5q-5 20.5 5 36.5l187 324l207 354l188 309q115 184 217 334q12 16 32.5 19.5t37 -8t19.5 -32t-7 -36.5q-104 -147 -219 -332l-187 -307l-202 -352l-187 -322q-10 -18 -30.5 -23.5t-38 5t-22.5 31z" />
<glyph unicode="0" horiz-adv-x="1101" d="M16 705q8 158 53.5 304t134.5 265t204 162q78 31 184 18q12 4 26 2q27 -6 54 -14l41 -6q23 -5 35 -25q98 -49 167.5 -140t101.5 -200.5t42 -233.5t-10 -239q-47 -297 -211 -475q-193 -205 -453 -135q-102 27 -178 98q-78 74 -120 174t-59.5 212t-11.5 233zM115 698 q-12 -236 63 -403q78 -172 232 -213q205 -53 356 108q143 156 184 424q23 121 10.5 239t-47 216t-103.5 172t-161 105q-51 8 -76.5 11t-62.5 1t-66 -12q-137 -53 -229 -236q-90 -182 -100 -412z" />
<glyph unicode="1" horiz-adv-x="825" d="M204 31.5q-3 19.5 8.5 37t29.5 21.5q98 18 215 16q33 141 45 297t15 369t9 307q4 90 11 211v29l-45 -37q-141 -113 -205 -139q-18 -8 -37 0t-27 26.5t0 37t27 26.5q51 23 180 125l86 69l31 25q6 4 11 7t9 5q18 8 37 0q12 -4 19.5 -11t9.5 -13l2 -4q0 -4 2 -11v-6v-10v-31 q0 -33 -2 -92q-6 -111 -10 -211q-4 -90 -9 -297q-4 -211 -16 -371.5t-43 -304.5q45 -2 180 -16q18 -2 31.5 -18.5t11.5 -36t-18.5 -32.5t-36.5 -11q-154 14 -166 16q-49 4 -137 3t-160 -15q-20 -2 -37.5 9t-20.5 30.5z" />
<glyph unicode="2" horiz-adv-x="1060" d="M194 1122.5q-3 20.5 9 34.5q119 160 274 234q152 72 301 49q88 -12 147.5 -66.5t67.5 -154.5q6 -92 -19.5 -194.5t-64.5 -183.5t-105.5 -179.5t-111.5 -155.5t-117 -139q-39 -49 -172 -193l-59 -63h10q72 -2 209 6q61 2 156 8l155 10q63 4 93 4q20 0 34.5 -14t14.5 -34.5 t-14.5 -35t-34.5 -14.5q-29 0 -93 -4l-153 -10q-92 -6 -154 -9q-139 -8 -215 -6q-49 2 -78 6q-18 4 -32 9q-27 12 -35 34q-4 12 -4 20.5t2 12.5l2 6q2 4 4 6q2 4 4 7q4 4 8 10l27 29l80 88q133 143 172 188l143 182q59 76 127 184.5t98.5 214t24.5 201.5q-8 115 -131 133 q-121 16 -246 -43q-131 -63 -237 -200q-12 -16 -33 -19.5t-36 9t-18 33z" />
<glyph unicode="3" horiz-adv-x="999" d="M39 49.5q0 20.5 14.5 34.5t34.5 14q98 0 171 5.5t156 21.5t146.5 46t125 81t106.5 123q78 123 59 215q-16 76 -96 121q-68 39 -172 39q-104 -2 -197 -50l-31 -20q-10 -4 -14 -8q-2 0 -4 -2q-4 -2 -8 -2q-6 -2 -11 -2q-23 -2 -38 14q-23 25 -11 53q4 8 9 12l10 11l4 2 l47 28q90 55 172 115q4 4 45 35l61 43l48 42t55 50q106 111 82 201q-20 74 -88 86t-178 -29q-100 -39 -196.5 -106.5t-135.5 -118.5q-12 -16 -32.5 -18.5t-37 10t-18.5 33t10 36.5q49 61 156 138q109 74 219 116q135 53 231 35q129 -23 164 -158q39 -141 -104 -292 q-61 -63 -191 -156q115 -4 201 -51q121 -68 145 -189q25 -131 -74 -286q-53 -84 -126.5 -145.5t-145.5 -95.5t-167 -52.5t-171 -23.5t-176 -5q-20 0 -34.5 14.5t-14.5 35z" />
<glyph unicode="4" horiz-adv-x="1148" d="M-27 496q-2 18 9 34q8 12 26 25q2 0 8.5 4t8.5 6q2 0 4 2q51 55 161 215l86 119l95 135q29 43 75 119t73.5 141.5t43.5 130.5v5q4 16 16.5 27t28.5 14q20 2 36 -12t18 -34q8 -125 -7 -337q-16 -242 -14 -330q2 -86 6 -203l406 10q20 0 35.5 -13t15.5 -33.5t-13.5 -36 t-33.5 -15.5l-406 -10q12 -301 13 -434q0 -20 -14.5 -35t-35 -15t-35 14.5t-14.5 35.5q0 133 -12 432l-242 -6l-145 -5q-61 0 -96 -2h-33h-10h-4h-3h-6q-2 2 -6 2q-10 4 -18 15q-14 14 -17 35zM139 545h23l145 4l242 6q-4 117 -6 205q-2 94 14 336q4 39 4 67 q-29 -55 -68.5 -118.5t-70.5 -106.5l-80 -113l-70 -100q-90 -129 -133 -180z" />
<glyph unicode="5" horiz-adv-x="1064" d="M30 98.5q7 18.5 25.5 27.5t36.5 3q117 -43 268.5 -35t282.5 68q137 61 214 164.5t69 240.5q-6 113 -49 181q-51 82 -158 104q-106 25 -197 -23q-23 -14 -90 -81q-74 -78 -125 -93q-41 -12 -61 27q-4 10 -6 23q-2 14 -4 43q-2 51 -3 182v39q0 33 -1 87t-1 97q-2 88 -2 137 v47q2 8 2 15v8q0 2 2 6q2 14 17 27q16 12 57 20q27 4 72 8q63 4 192 6q254 6 326 -4q20 -2 32.5 -18t10.5 -36.5t-18.5 -33t-36.5 -10.5q-70 8 -312 4q-115 0 -188 -6q-35 -4 -57 -6v-27q0 -49 2 -137q0 -43 1 -96t1 -86v-41q0 -94 2 -144q10 12 26 29q78 80 117 100 q117 66 262.5 33t218.5 -147q57 -90 66 -230q10 -172 -85 -300t-257 -199q-147 -66 -316 -76t-307 39q-18 8 -27 26.5t-2 37z" />
<glyph unicode="6" horiz-adv-x="917" d="M135 532q-12 195 15 316q61 295 227 477q158 172 307 133q76 -18 126 -88t73 -176q2 -20 -9.5 -37.5t-31 -20.5t-37 8.5t-21.5 29.5q-33 166 -125 190.5t-208 -104.5q-150 -164 -207 -433q-8 -41 -11 -104q20 27 52 53q109 98 204 133q55 20 127 16.5t127 -34.5 q133 -78 138 -258q2 -147 -80 -311q-82 -162 -201 -246q-141 -102 -266 -37q-80 41 -129 158q-39 94 -58 229q-6 41 -10 82q-4 12 -2 24zM236 524l8 -84q18 -123 51 -204q37 -86 84 -111q72 -37 164 31q98 70 170 209q72 143 69 266q-4 125 -88 174q-35 20 -83 23t-89 -13 q-78 -27 -172 -113q-89 -80 -114 -178z" />
<glyph unicode="7" horiz-adv-x="1056" d="M86 1382.5q2 20.5 17.5 33.5t35.5 11q33 -4 166 -4q82 0 273 -2h253q55 0 84 -2h27q6 -2 10 -2t6 -2q12 -2 21 -8q41 -31 31 -72q-2 -14 -15 -32q-6 -10 -22 -33q-119 -164 -244 -373q-250 -418 -422 -917q-8 -18 -25.5 -27.5t-37 -2.5t-28.5 24.5t-3 37.5 q176 510 430 934q129 215 246 377h-58h-253q-190 2 -273 2q-137 0 -174 4q-20 2 -33.5 17.5t-11.5 36z" />
<glyph unicode="8" horiz-adv-x="1009" d="M162 418q16 111 69.5 218t137.5 193q-6 2 -11 5q-70 18 -112.5 70t-59.5 122q-16 86 9.5 179t99.5 169t180 101q188 45 311 -33q123 -76 132 -219q8 -147 -113 -260q33 -12 61 -37q125 -100 127 -320q2 -131 -41 -258t-139 -230.5t-229 -129.5q-233 -43 -351 98 q-102 123 -71 332zM258 403q-23 -164 51 -256q80 -96 258 -61q147 27 238.5 182.5t89.5 335.5q-2 174 -90 246q-47 39 -115 35q-63 -29 -139 -45q-12 -2 -25 -6q-109 -74 -179.5 -191t-88.5 -240zM283 1047q20 -96 102 -119q35 -10 80 -6q10 6 20 8h9l2 2q88 53 184 74h2 q4 2 10 2t10 -2q61 43 90 100t27 113q-6 88 -89 142t-234 19q-115 -27 -174.5 -130t-38.5 -203z" />
<glyph unicode="9" horiz-adv-x="950" d="M92 348q-2 20 10.5 35.5t33 19t35.5 -9.5t19 -33q8 -68 51.5 -137t102.5 -112q131 -92 240 6q82 74 144.5 249t76.5 371q-14 -12 -35 -26q-94 -66 -200.5 -74t-196.5 30t-156 109q-70 76 -96.5 169t2.5 201.5t123 205.5q111 115 297 84q113 -18 191.5 -94t115.5 -176.5 t49 -227.5q2 -4 2 -10v-2q6 -66 4 -133q-6 -225 -76 -437q-72 -215 -180 -313q-57 -51 -123.5 -66.5t-125 0t-113.5 54.5q-76 55 -129.5 141t-65.5 176zM215.5 968.5q20.5 -69.5 73.5 -124.5q80 -88 195.5 -106.5t228.5 55.5q51 35 67 61q19 27 23 72q-16 174 -86 283.5 t-191 127.5q-135 23 -211 -55q-74 -76 -97 -160t-2.5 -153.5z" />
<glyph unicode=":" horiz-adv-x="290" d="M106 116.5q0 20.5 14.5 35t35 14.5t35 -14.5t14.5 -35t-14.5 -34.5t-35 -14t-35 14t-14.5 34.5zM145 913.5q0 20.5 14.5 35t35 14.5t35 -14.5t14.5 -35t-14.5 -35t-35 -14.5t-35 14.5t-14.5 35z" />
<glyph unicode=";" horiz-adv-x="229" d="M-130 -154.5q5 19.5 21 29.5q74 47 108 93t38 116q2 20 16.5 34.5t35 12.5t34.5 -16.5t12 -34.5q-6 -100 -53 -165t-137 -122q-18 -12 -38 -7t-31 22.5t-6 37zM90 919.5q0 20.5 14.5 35t35 14.5t34.5 -14.5t14 -35t-14 -35t-34.5 -14.5t-35 14.5t-14.5 35z" />
<glyph unicode="&#x3c;" horiz-adv-x="659" d="M-4 567q2 12 10 25l10 10q6 6 19 14q18 14 51 37l53 39q29 18 37 25q16 16 72 61l80 66l65 59q43 37 75 69t62 66q14 14 34 16.5t35 -12t17 -34t-12 -35.5q-31 -35 -65.5 -70t-77.5 -73.5t-70 -59.5l-80 -70q-55 -45 -73 -57q-10 -10 -41 -31l-54 -39l-28 -20l22 -21 l144 -131l313 -274q14 -12 16 -32.5t-11 -36t-33.5 -17.5t-37.5 12l-313 275l-145 133q-31 27 -45 43q-10 10 -15 16l-8 8l-4 9q-6 14 -2 30z" />
<glyph unicode="=" horiz-adv-x="665" d="M102 720.5q2 20.5 18 34t36 11.5q61 -6 112 -8q55 0 145.5 1t112.5 1q20 0 34.5 -14.5t14.5 -35t-14 -34.5t-35 -14q-31 0 -92 -1.5t-99 -1.5t-91.5 2.5t-96.5 6.5q-20 2 -33.5 17t-11.5 35.5zM103 973.5q3 19.5 21 31t38 9.5q57 -12 120.5 -14.5t156.5 1t132 3.5 q20 0 35 -14.5t15 -35t-14.5 -35t-35.5 -14.5q-29 0 -127 -3t-168.5 -1t-134.5 14q-18 4 -29.5 21.5t-8.5 37z" />
<glyph unicode="&#x3e;" horiz-adv-x="716" d="M39 94.5q0 20.5 12 34.5l68 68q35 35 80 73l69 60l84 67q57 45 72 58l43 28l53 37l29 19l-21 22l-141 133q-207 195 -307 281q-14 12 -16.5 32.5t11 36t34 17.5t36.5 -12q100 -86 310 -283l141 -135l45 -45q8 -8 12 -15l6 -6l5 -8q2 0 3 -3t3 -12.5t-2 -19.5 q-2 -12 -13 -22q-2 -4 -8 -11q-8 -6 -20 -16q-16 -12 -52 -35l-55 -37q-27 -16 -35 -24q-14 -12 -71 -58l-82 -65l-70 -57q-43 -37 -74 -70l-63 -64q-14 -16 -34.5 -16t-36 13.5t-15.5 34z" />
<glyph unicode="?" horiz-adv-x="778" d="M13.5 1075.5q-2.5 20.5 9.5 36.5q154 201 299 303q72 49 151.5 48t140 -41t95 -112.5t22.5 -158.5q-6 -41 -27.5 -91t-38 -80t-49.5 -83l-41 -66q-113 -188 -160.5 -327t-25.5 -293q2 -20 -10 -36.5t-31.5 -19.5t-36 9t-20.5 31q-6 49 -7 97t5 94t15 88t26 87l32 82 q16 37 41 82l41 78l45 78q12 18 44 69t46.5 78t32 67t21.5 72q10 55 -12.5 101.5t-60.5 71t-88 24.5t-93 -31q-133 -92 -279 -282q-12 -14 -32.5 -17.5t-36 9t-18 33zM285 49.5q0 20.5 14 34.5t34.5 14t35 -14t14.5 -34.5t-14.5 -35t-35 -14.5t-34.5 14.5t-14 35z" />
<glyph unicode="@" horiz-adv-x="1667" d="M-2 700q31 203 178.5 396.5t355.5 318.5q139 86 285 125t301.5 19.5t282.5 -109.5q156 -111 211 -295q27 -90 14 -205q-14 -115 -65 -215q-55 -109 -149.5 -168t-217.5 -28q-82 18 -115 106q-20 55 -18 139l-41 -53q-127 -154 -244 -244q-98 -76 -176 -92 q-113 -25 -178 62q-72 92 0 266q59 145 184 276q135 141 260 175q76 18 141.5 -9.5t106.5 -107.5q10 -20 2 -41q25 6 47 -8q8 -6 13.5 -15.5t7.5 -15.5v-6v-13q0 -6 -2 -16q0 -6 -3 -20.5t-5 -20.5q-12 -68 -15 -115q-2 -68 12 -108q14 -37 48 -45q160 -39 254 147 q43 82 55 180.5t-10 165.5q-45 150 -175 242q-109 76 -237 94q-133 16 -264 -18.5t-260 -112.5q-190 -115 -324.5 -291t-161.5 -356q-37 -246 127 -393q152 -133 430 -162q270 -29 533.5 50t392.5 229q12 14 32.5 16t36 -11.5t17.5 -34t-12 -36.5q-145 -170 -434 -256 q-289 -84 -574 -55q-311 31 -487 186q-205 182 -160 483zM500 518q29 -37 80 -26q55 12 135 73q109 84 227 228q35 41 119 155l2 6q8 18 8 21q2 6 6 10q-35 -4 -49 27q-47 88 -137 65q-100 -25 -213 -145q-113 -117 -164 -246q-51 -121 -14 -168z" />
<glyph unicode="A" horiz-adv-x="1064" d="M86 298q-2 8 -2 15q0 11 5 23q9 18 30 24l84 27l127 444q104 369 153 568q-2 27 17 43q14 17 33 17q7 0 16 -3q18 -4 28.5 -20.5t8.5 -34.5q51 -166 139 -475l111 -394q61 10 135 17q20 2 35.5 -11.5t17.5 -33.5v-6q0 -17 -12 -30q-14 -15 -33 -17q-57 -4 -115 -13 q68 -223 133 -401q6 -18 -2 -36.5t-27.5 -26t-38 1t-26.5 28.5q-66 184 -137 420q-209 -37 -481 -117q-45 -164 -78 -303q-3 -20 -21 -32q-12 -8 -26 -8q-6 0 -12 2q-20 5 -31 22.5t-4 36.5q26 116 61 249l-27 -8q-18 -6 -36.5 3.5t-24.5 28.5zM313 418q236 68 426 100 l-200 699l-121 -431z" />
<glyph unicode="B" horiz-adv-x="925" d="M72 1315q-1 5 -1 10q0 15 8 27q11 16 32 22h10q84 56 215 74q53 7 103 8q75 0 145 -16q141 -33 213 -117q62 -72 62 -166q0 -40 -11 -84q-25 -106 -116 -203.5t-204 -169.5q74 -6 136 -24q162 -49 204 -187q16 -51 16 -98q0 -67 -33 -125q-56 -98 -169 -166 q-96 -55 -214 -86.5t-214 -36.5h-2q-12 -6 -25 -6q-20 0 -34.5 14.5t-14.5 34.5q0 762 -106 1295zM178 1294q53 -279 78 -604q23 10 59 23q98 35 109 41q115 63 210 155t120 189q7 29 7 56q0 62 -38 106q-51 59 -162 83q-62 14 -126 14q-43 -1 -86 -7q-108 -16 -171 -56z M264 563q10 -217 12 -485q199 14 355 106q154 91 154 211q0 32 -11 66q-27 86 -139 121q-69 23 -160 23q-32 0 -67 -3q-47 -4 -123 -31z" />
<glyph unicode="C" horiz-adv-x="1083" d="M16 516q-1 23 -1 46q0 136 31 260q36 144 101 284q88 182 209 280q84 68 166 68q98 -2 174 -98q12 -16 10.5 -37t-18 -33t-37.5 -10t-33 18q-47 59 -96 62q-47 0 -104 -47q-102 -82 -180 -244q-63 -133 -97 -266q-28 -116 -28 -239q1 -22 1 -42q6 -146 54 -268 q48 -113 162 -161q56 -23 109 -23q57 0 112 26q109 57 225 223q39 53 72 125t51.5 126.5t44.5 144.5q6 18 23.5 28.5t36.5 4.5q20 -6 30 -24q6 -11 6 -23q0 -7 -2 -15l-47 -147q-18 -55 -55 -136.5t-78 -140.5q-133 -186 -262 -252q-80 -38 -160 -38q-22 0 -46 4 q-102 14 -189 79q-84 66 -123 162q-57 141 -62 303z" />
<glyph unicode="D" horiz-adv-x="1058" d="M129 698q6 447 6 614v66q0 20 14.5 34.5t35 14.5t34.5 -14t14 -35q2 -63 3 -137q70 78 133 119q80 51 170 74q54 12 107 12q37 0 73 -6q96 -14 170 -72.5t106 -161.5q24 -70 24 -157q0 -25 -2 -51q-9 -118 -45 -237.5t-95 -240.5q-88 -184 -210 -329.5t-247 -204.5 q-48 -23 -114 -27q-33 -2 -59.5 -2t-47.5 2q-27 0 -41 25q-12 12 -15 30q-15 203 -15 498q0 89 1 186zM227 696q-1 -85 -1 -164q0 -283 14 -477h15q83 0 124 21q104 49 215 181t194.5 306t115.5 336q15 77 15 144q0 73 -18 135q-45 141 -196 165q-30 5 -60 5 q-115 0 -223 -70l-27 -21q-14 -10 -30 -24l-27 -25q-8 -8 -26.5 -28.5t-24.5 -26.5t-27.5 -31.5t-26.5 -29.5q0 -74 -3 -210.5t-3 -185.5z" />
<glyph unicode="E" horiz-adv-x="966" d="M63 1331v5q-1 15 9 31q12 18 32 22q185 35 384 35q129 0 264 -15q18 -2 31.5 -18.5t11.5 -36t-18.5 -32.5t-37.5 -11q-128 13 -248 13q-170 0 -325 -26q6 -119 10 -241q118 17 273 17q98 0 210 -7q20 -2 35 -16.5t13 -35t-16.5 -34.5t-35.5 -12q-108 6 -201 6 q-158 0 -276 -17q3 -155 3 -311q0 -273 -9 -549q164 31 329 31q190 0 382 -41q19 -4 31 -20q8 -11 8 -25q0 -7 -2 -13q-6 -20 -21.5 -31t-36.5 -5q-178 37 -355 37q-183 0 -366 -39q-10 -4 -22 -4h-5q-14 0 -28 9q-16 11 -18 30q-4 18 4 34q12 298 12 589q0 338 -16 667v2z " />
<glyph unicode="F" horiz-adv-x="839" d="M63 1331v5q-1 15 9 31q12 18 32 22q185 35 384 35q129 0 264 -15q18 -3 32 -19q12 -14 11 -31q-1 -23 -19 -37q-16 -13 -37 -11q-128 13 -248 13q-170 0 -325 -26q6 -119 10 -241q118 17 273 17q98 0 210 -7q20 -2 35 -16.5t13 -35t-16.5 -34.5t-35.5 -12q-108 6 -201 6 q-158 0 -276 -17q3 -152 3 -306q0 -307 -11 -617q0 -20 -15.5 -33.5t-36 -13.5t-33.5 15t-13 36q12 303 12 600q0 344 -16 678v2z" />
<glyph unicode="G" horiz-adv-x="1024" d="M32 794q19 212 109 377q55 98 136 168t178 95q43 11 86 11q57 0 113 -19q100 -33 182 -126q14 -16 12 -35.5t-17.5 -33.5t-35 -12t-33.5 16q-97 111 -215 111q-34 0 -70 -9q-72 -18 -138.5 -74.5t-111.5 -140.5q-82 -147 -97 -338q-3 -39 -3 -78q0 -151 47 -296 q61 -180 191 -283q92 -74 163 -74h4q59 0 111 51q82 80 166 324q51 147 53 156l29 94v4h-21q-53 -2 -153 -14q-141 -18 -279 -43q-20 -2 -36.5 9t-19.5 31.5t8 37t32 20.5q145 25 283 43q102 12 161 14q39 2 62 -2q16 -2 26 -6q25 -8 35 -29q6 -11 6 -24v-6v-19l-10 -41 q-8 -37 -29 -100q-4 -8 -53 -158q-90 -262 -190 -360q-82 -80 -181 -80h-4q-107 0 -225 94q-152 121 -221 327q-53 162 -53 328q0 45 3 90z" />
<glyph unicode="H" horiz-adv-x="1075" d="M-5 536q-2 7 -2 14q0 12 7 24q10 18 31 22q80 20 162 35q4 110 4 209q0 368 -58 592q-6 20 4.5 37.5t30.5 22.5q7 2 13 2q13 0 25 -8q17 -10 21 -30q63 -238 63 -625q0 -89 -3 -186q96 11 185 10q172 0 317 -39q-12 428 -41 678q-2 20 10 37t32.5 19t37 -10.5t18.5 -32.5 q29 -258 43 -723q61 -25 117 -60q16 -10 21 -30q2 -6 2 -11q0 -13 -8 -25q-11 -18 -30.5 -23t-38.5 7l-59 33q3 -74 2 -139q0 -213 -29 -338q-4 -20 -21 -32q-12 -8 -25 -8q-6 0 -12 2q-20 5 -31 22.5t-5 35.5q25 106 27 244v54q0 106 -6 198q-142 43 -317 43 q-93 0 -195 -12q-18 -340 -76 -541q-6 -20 -23.5 -30.5t-37 -4.5t-29.5 23.5t-4 36.5q51 186 71 501q-68 -12 -133 -28q-20 -6 -37.5 4t-22.5 30z" />
<glyph unicode="I" horiz-adv-x="284" d="M96 1405v5q0 18 10 32q12 16 34 18h5q17 0 31 -10q16 -12 19 -33q39 -311 45 -701q2 -111 2 -216q0 -262 -11 -484q0 -20 -15 -33.5t-35.5 -13.5t-34 15.5t-13.5 35.5q10 216 10 470q0 108 -2 224q-6 386 -45 691z" />
<glyph unicode="J" horiz-adv-x="946" d="M-36 292q3 66 30 126q37 86 116.5 159.5t170.5 118.5q18 10 37.5 4t28.5 -24.5t3 -38t-24 -27.5q-78 -41 -145.5 -103.5t-96.5 -129.5q-23 -51 -23 -102q0 -40 13 -79q32 -92 121 -116q54 -16 116 -16q68 0 146 20q328 84 348 543q1 31 1 63q0 290 -112 701 q-6 18 4.5 36.5t29.5 23.5q7 2 13 2q13 0 25 -7q18 -11 22 -31q116 -423 116 -727q0 -33 -1 -65q-23 -530 -422 -633q-92 -24 -174 -24q-75 0 -141 20q-70 20 -118 68t-68 110q-16 53 -16 110v18z" />
<glyph unicode="K" horiz-adv-x="958" d="M74 27q20 267 30 465q8 164 7 361v85q-2 248 -23 463q-2 20 12 35q14 16 34 18h5q17 0 30 -12q15 -14 17 -33q23 -249 23 -540q0 -124 -4 -255q147 156 286.5 361t188.5 358q6 20 24.5 29.5t38 3.5t28.5 -24.5t3 -36.5q-53 -168 -200.5 -384t-301.5 -378 q106 -176 255 -289t352 -174q19 -6 29 -24q6 -11 6 -23q0 -7 -2 -15q-6 -20 -25 -29t-37 -3q-424 129 -649 487q-10 -190 -29 -455q-2 -20 -18 -34q-14 -12 -30 -11h-6q-20 1 -33 17q-11 13 -11 31v6z" />
<glyph unicode="L" horiz-adv-x="1038" d="M82 401q-1 77 -1 151q0 272 17 503q4 43 21 176q12 106 14 170q0 20 15.5 33.5t36 13.5t33.5 -15.5t13 -35.5q-2 -68 -16 -178q-14 -131 -18 -172q-18 -228 -18 -501q0 -71 1 -145q2 -74 8 -178q4 -66 9 -110q2 -25 4 -35v-2q17 -12 55 -12q21 0 47 4q88 10 225 61 q74 25 158 59l156 70q70 31 88 37q18 8 36 0q19 -9 27 -27q4 -9 4 -18q0 -8 -4 -18q-8 -18 -26 -27l-90 -41l-156 -66q-84 -37 -160 -63q-147 -51 -246 -66q-31 -4 -58 -4q-93 0 -134 49q-12 14 -19 43q-2 18 -6 45q-4 43 -8 115q-6 106 -8 184z" />
<glyph unicode="M" horiz-adv-x="1298" d="M78 57q18 158 42.5 475.5t43.5 475.5q0 2 3 26.5t7 66.5t8 79q10 92 13 112l6 41q0 8 2 13q0 4 2 6q0 10 8 18q16 23 43 23q33 0 47 -29q4 -12 6 -33q2 -6 2 -24q2 -10 2 -13q33 -227 39 -256q39 -168 125 -293q89 -135 189 -135q17 0 34 4q86 20 166 211q33 82 99 314 q23 86 34 217v12v12v11q0 14 2.5 23t6.5 16q14 26 40 26q7 0 15 -2q18 -4 31 -22q2 -4 4 -11q6 -14 10 -47q2 -25 6 -65q4 -66 10 -176q2 -51 5 -121t4.5 -114t3.5 -60q25 -332 116 -793q1 -5 1 -10q0 -15 -8 -27q-12 -16 -32 -21q-6 -2 -12 -2q-12 0 -24 8q-16 11 -23 32 q-90 440 -117 804q-2 20 -8 181q-37 -131 -74 -222q-98 -238 -235 -268q-31 -7 -61 -7q-147 0 -265 177q-88 133 -133 305q-20 -158 -43.5 -475t-42.5 -475q-2 -20 -18.5 -32.5t-37 -10.5t-32.5 18q-10 14 -10 31v6z" />
<glyph unicode="N" horiz-adv-x="1269" d="M96 1241v29v10v8q2 4 2 8q6 18 26.5 27.5t41.5 3.5q18 -4 31 -22q8 -12 12 -35l4 -23v-6q27 -70 31 -76q16 -47 51 -130t45 -111l51 -129q12 -31 51 -121t62 -133l63 -115q41 -76 77 -119t84 -92t99 -84q49 -32 88 -32q8 0 15 1q37 6 69 47q63 78 95 234q32 160 32 320 q0 97 -12 194q-29 258 -131 500q-8 18 -1 37q6 18 26 26q10 4 21 4q9 0 17 -3q18 -7 27 -27q109 -254 139 -526q11 -102 12 -203q0 -171 -32 -343q-37 -180 -115 -274q-57 -70 -131 -82q-17 -3 -34 -3q-66 0 -138 48q-66 43 -123 99.5t-106 130t-86 135t-78 151.5l-62 144 l-57 143q-8 25 -12 35l-49 119q16 -657 16 -957q0 -20 -14.5 -34.5t-35 -14.5t-34.5 14.5t-14 34.5q0 297 -17 967q0 4 -1 25.5t-2 54t-1 59.5q-2 55 -2 86z" />
<glyph unicode="O" horiz-adv-x="1101" d="M16 705q8 158 53.5 304t134.5 265t204 162q55 22 124 22q29 0 60 -4q8 3 17 3q4 0 9 -1q27 -6 54 -14l41 -6q23 -5 35 -25q98 -49 167.5 -140t101.5 -200.5t42 -233.5q3 -41 3 -82q0 -81 -13 -157q-47 -297 -211 -475q-144 -153 -325 -153q-62 0 -128 18q-102 27 -178 98 q-78 74 -120 174q-41 100 -59 212q-13 83 -14 172q0 30 2 61zM115 698q-2 -33 -2 -64q0 -195 65 -339q78 -172 232 -213q51 -13 98 -13q144 0 258 121q143 156 184 424q15 78 15 156q-1 42 -5 83q-12 118 -46.5 216t-103.5 172t-161 105q-51 8 -77 11q-15 2 -34 2 q-13 0 -28 -1q-37 -2 -66 -12q-137 -53 -229 -236q-90 -182 -100 -412z" />
<glyph unicode="P" horiz-adv-x="944" d="M35 1362v6q0 16 9 30q12 16 32 20q4 1 8 1q14 0 28 -9q16 -11 21 -32q10 -61 17 -131q70 55 166 100.5t190 63.5q51 9 97 9q78 0 140 -27q119 -53 150 -197q8 -38 7 -77q0 -158 -128 -322q-133 -170 -317 -262q-106 -54 -258 -72q22 -277 22 -446v-15q0 -20 -14.5 -34.5 t-34.5 -14.5t-34.5 14.5t-14.5 34.5q0 117 -7.5 244t-21.5 289l-18 241q-4 70 -7.5 189.5t-10.5 215t-21 181.5zM158 1122q2 -49 6 -163.5t8 -174.5q4 -82 16 -223q133 16 222 60q166 84 284 235q107 137 107 261q0 30 -6 59q-18 94 -93 127q-41 18 -96 18q-38 0 -82 -8 q-102 -18 -205 -72q-102 -55 -153 -113q-4 -4 -8 -6z" />
<glyph unicode="Q" horiz-adv-x="1241" d="M16 684q8 162 53.5 312.5t134.5 271.5t204 166q55 22 124 22q29 0 60 -4q7 2 13.5 2t12.5 -2q29 -4 54 -14q29 -4 41 -6q23 -4 35 -25q98 -51 167.5 -145.5t101.5 -206t42 -237.5q3 -42 3 -83q0 -82 -13 -160q-35 -223 -140 -389q117 -59 260 -118q18 -8 27 -26 q4 -10 4 -20q0 -9 -4 -18q-8 -18 -26.5 -26.5t-36.5 -0.5q-156 63 -283 129l-12 -12q-145 -157 -327 -157q-61 0 -126 18q-104 27 -181 100.5t-118 176t-58 216.5q-14 86 -14 175q0 30 2 61zM115 680q-2 -37 -2 -73q0 -195 65 -341q78 -176 232 -217q50 -13 98 -13 q140 0 252 118q-115 63 -217 135q-16 12 -19.5 32.5t8 37t32 19.5t36.5 -7q104 -75 221 -138q98 147 129 359q15 78 15 157q0 42 -5 85q-12 120 -46.5 221.5t-103.5 177.5t-163 110q-49 8 -75 11q-17 3 -38 3q-12 0 -25 -1q-36 -2 -65 -13q-135 -55 -225 -241 q-92 -186 -104 -422z" />
<glyph unicode="R" horiz-adv-x="1052" d="M35 1362v6q0 16 9 30q12 16 32 20q4 1 8 1q14 0 28 -9q16 -11 21 -32q8 -53 14 -112q100 82 269 129q72 23 156 23h28q100 -4 172 -42q86 -47 115 -131q15 -40 15 -86q0 -58 -23 -125q-76 -221 -332 -387q-107 -69 -246 -100q330 -377 676 -520q19 -9 27 -27q4 -9 4 -18 q0 -8 -4 -18q-8 -18 -28 -28q-9 -4 -17 -4q-9 0 -19 5q-389 162 -747 587q26 -332 26 -509v-13q0 -20 -14.5 -34.5t-34.5 -14.5t-34.5 14.5t-14.5 34.5q0 117 -7.5 244t-21.5 289l-18 241q-4 70 -7.5 189.5t-10.5 215t-21 181.5zM158 1141q2 -55 6 -174q4 -115 8 -183 q4 -75 12 -157q184 20 310 102q227 150 290 338q19 53 19 96q0 27 -8 49q-16 49 -68 76q-53 29 -131 32h-18q-69 0 -134 -20q-182 -51 -280 -153z" />
<glyph unicode="S" horiz-adv-x="833" d="M63 1018q20 129 112.5 241.5t209.5 161.5q70 29 135 29q57 0 109 -23q125 -53 180 -223q2 -7 2 -14q0 -10 -5 -22q-9 -18 -28.5 -24.5t-38 3t-24.5 29.5q-41 127 -125 161q-32 15 -69 15q-45 0 -97 -23q-96 -39 -170 -131q-76 -92 -92 -197q-2 -11 -2 -22q0 -89 114 -178 q18 -14 172 -117q111 -74 175 -137q93 -93 129 -199q19 -57 19 -110q0 -44 -13 -86q-32 -94 -130 -142q-78 -38 -184 -37q-27 0 -55 2q-76 8 -229 58q-18 6 -27.5 24.5t-3.5 38t24.5 28.5t38.5 3q139 -47 205 -53q27 -2 51 -2q78 0 130 24q66 32 88 88q7 23 7 50 q1 39 -15 86q-26 79 -105 157q-55 55 -160 125q-154 102 -178 121q-153 119 -153 257q0 19 3 38z" />
<glyph unicode="T" horiz-adv-x="917" d="M-43 1238q6 19 25 28q315 166 843 184q20 0 36 -13.5t16 -34t-13.5 -35.5t-34.5 -15q-203 -6 -383 -39v-4q15 -225 16 -545q0 -53 -1 -109q0 -47 -5 -284.5t-5 -364.5q0 -20 -14.5 -34.5t-35 -14.5t-35 14.5t-14.5 34.5q0 127 5 365.5t5 285.5q1 69 1 134q0 293 -15 501 q-186 -43 -321 -112q-18 -10 -38 -4t-29 24q-5 11 -5 23q0 7 2 15z" />
<glyph unicode="U" horiz-adv-x="987" d="M49 1203q2 171 2 181q0 20 14.5 35t35 15t35 -15t14.5 -35q0 -14 -4 -179q-2 -105 -2 -195q0 -52 1 -99q4 -123 17 -249q47 -481 223 -596q46 -30 88 -29q45 0 84 33q59 51 125 196q92 209 139 553q24 180 24 325q0 132 -20 236q-2 18 9.5 36t31.5 21q4 1 7 1 q15 0 29 -10q18 -12 22 -31q20 -109 21 -246q-1 -155 -27 -346q-48 -361 -146 -580q-74 -164 -151 -231q-69 -59 -144 -59q-69 0 -145 49q-219 143 -269 667q-10 123 -13 252q-2 77 -2 170q0 62 1 130z" />
<glyph unicode="V" horiz-adv-x="958" d="M32 1413q7 19 25.5 28t37 1.5t28.5 -25.5q43 -88 86 -227t72 -248l65 -272l53 -226q31 -115 70 -241q18 76 47 180q139 510 195 680q10 35 37.5 113.5t44 135t28.5 109.5q5 19 21 31q12 8 24 9q6 0 12 -2q20 -5 32 -21q7 -10 8 -22q0 -7 -3 -15q-10 -55 -28.5 -115.5 t-46 -142.5t-35.5 -109q-55 -172 -195 -676q-51 -188 -71 -305v-2q0 -6 2 -22q1 -9 1 -17q0 -45 -38 -63q-11 -6 -23 -6q-10 0 -20 4q-20 6 -31 26q-6 14 -8 35q0 4 -1 12.5t-1 10.5v4q-72 215 -115 385q-18 68 -57 229l-64 269q-27 106 -68.5 239t-82.5 219q-4 10 -4 19 t3 18z" />
<glyph unicode="W" horiz-adv-x="1409" d="M44 1428q6 18 26 26q10 4 21 4q9 0 17 -3q18 -7 27 -25q43 -102 78 -231.5t50.5 -216.5t40 -250t34.5 -218q39 195 108 348q43 94 86 160q39 59 74 90q37 31 72 31q24 0 47 -15q25 -16 47 -59q16 -33 35 -86q31 -90 67 -231q45 -164 80 -336q47 438 322 966 q8 18 27.5 24.5t38.5 -2.5q18 -8 24 -28q2 -7 2 -15q0 -12 -6 -24q-276 -539 -313 -979q0 -6 -2 -57v-100q-2 -63 -7 -101q-4 -25 -8 -41l-8 -20q-10 -18 -31 -27q-9 -3 -17 -3q-11 0 -22 5q-18 6 -28 25q-8 12 -11 35v20l-2 8l-14 78l-16 88q-8 49 -15 78q-27 147 -88 381 q-37 141 -67 223q-16 47 -29 74q-6 10 -10 16l-4 -4q-25 -20 -56 -67q-39 -59 -77 -148q-104 -227 -131 -536q0 -8 -1.5 -24.5t-2.5 -43.5t-1 -45q-2 -43 -4 -72q-4 -41 -12 -57q-4 -10 -12 -18q-18 -16 -45 -11q-16 4 -27 17q-4 4 -6 10l-4 10v4v6q0 4 -2 15q0 16 -2 43 q-6 61 -6 71q-6 115 -33 265q-14 80 -37 233l-41 250q-14 96 -48 224t-77 227q-4 11 -4 21q0 9 3 18z" />
<glyph unicode="X" horiz-adv-x="1185" d="M2 54q2 20 16 32q182 158 428 561q-145 223 -256 443q-27 51 -69 157q-43 100 -68 150q-10 18 -4 37q7 20 25 30q11 6 22 5q8 -1 16 -3q20 -6 27 -24q29 -53 72 -156.5t65 -150.5q98 -195 226 -394q229 395 321 670q6 18 24.5 27.5t38 3.5t29 -24.5t3.5 -39.5 q-100 -299 -355 -729q303 -449 553 -598q18 -11 24 -31q2 -6 1 -13q1 -13 -7 -25q-12 -18 -32 -22q-6 -2 -12 -2q-12 0 -23 7q-258 156 -561 592q-238 -385 -422 -545q-16 -14 -36 -12t-34 18q-12 14 -12 30v6z" />
<glyph unicode="Y" horiz-adv-x="1028" d="M135 1413q-2 7 -2 14q0 11 5 23q9 18 28 24q8 3 16 3q12 0 22 -5q19 -10 25 -30q86 -279 174 -469q125 -270 250 -361q195 389 236 805q2 20 17.5 33.5t36 11.5t33.5 -17q11 -13 11 -31v-5q-25 -256 -113 -518q-86 -264 -239.5 -511t-343.5 -400q-14 -11 -31 -11 q-2 0 -4 1q-20 1 -33.5 17.5t-11.5 36t18 33.5q213 170 377 467q-152 102 -293 408q-90 193 -178 481z" />
<glyph unicode="Z" horiz-adv-x="1177" d="M104 150q14 49 52 114q27 43 67 103q47 68 49 69l193 289q-121 -10 -266 -35q-20 -2 -37 9.5t-20 32t8.5 36.5t31.5 20q197 31 355 41q133 197 211 326q10 14 67 121l27 51q-33 0 -269 -4q-46 -1 -88 -1q-125 0 -209 9q-20 2 -33.5 17.5t-11.5 35.5t18 34q14 12 31 12h5 q82 -10 216 -10q34 0 70 1q246 4 291 4h12q12 2 21 2q51 -2 68 -43q4 -8 4 -16v-10l-2 -4q0 -2 -2 -6q0 -2 -2 -5q0 -4 -5 -10l-14 -26l-41 -78l-67 -123q-72 -117 -177 -272h33q125 0 240 -13q20 -2 32.5 -18.5t10.5 -37t-18.5 -32.5t-36.5 -10q-107 12 -223 12 q-52 0 -105 -2l-236 -350q-2 -2 -49 -72q-39 -57 -63 -98q-33 -55 -43 -92q-6 -20 -6 -33q8 -2 18 -4q33 -6 94 -10q42 -2 96 -2q81 0 191 4q123 4 305 14t205 10q20 0 35.5 -14t15.5 -33.5t-14.5 -35t-32.5 -15.5q-25 0 -206 -10t-304 -15q-113 -4 -197 -4q-56 0 -100 2 q-66 4 -106 13q-25 4 -41 10q-27 10 -39 31q-18 26 -18 63q0 26 9 58z" />
<glyph unicode="[" horiz-adv-x="1409" d="M51 731q10 160 68 307q59 147 171.5 264t260.5 160q94 29 233 17q12 4 25 2l63 -13q43 -6 62 -8q23 -2 35 -20q100 -39 178 -104.5t124 -146.5t73.5 -175t26.5 -190.5t-17 -192.5q-27 -141 -96.5 -262t-173 -213.5t-252 -130t-314.5 -5.5q-127 25 -223 96.5t-150.5 170 t-78.5 209.5q-23 115 -15 235zM150 770q-14 -201 73 -348q4 8 10 12q336 262 404 455q6 262 -8 483q-27 -4 -49 -10q-182 -49 -299 -217t-131 -375zM270 315q100 -143 269 -178q37 -10 71 -14q-8 16 -8 37q21 348 29 559q-111 -176 -332 -389q-12 -12 -29 -15zM690 123 q215 8 371 182q-207 172 -332 416q-8 -213 -29 -569q-2 -14 -10 -29zM727 1372q14 -219 10 -479q2 -9 2 -21q45 -131 148.5 -259t236.5 -220q98 125 133 289q29 109 12.5 218.5t-61.5 201.5t-136 160.5t-216 97.5q-88 10 -129 12z" />
<glyph unicode="\" horiz-adv-x="878" d="M2 1518q-6 20 4 37.5t30.5 22.5t38 -5.5t21.5 -30.5q23 -84 64 -183t69 -155l99 -186q70 -129 86 -162l131 -250l151 -295l135 -248q10 -18 5 -37.5t-23 -29.5t-37.5 -5t-30.5 23l-137 248l-151 297l-129 252l-86 160q-72 131 -100.5 189.5t-72.5 164t-67 193.5z" />
<glyph unicode="]" horiz-adv-x="1259" d="M63 1243q14 57 52 88q37 33 90 29q82 -6 178 -103q84 -84 162 -225l35 -63q76 215 266 370q74 59 149 97q59 29 107 30q74 2 108 -57q47 -78 17 -231q-25 -121 -90 -283q-72 -170 -228 -465l-92 -174l-45 -86l-14 -27l-6 -8q0 -4 -2 -4q-2 -4 -5 -6l-6 -6q-12 -8 -26 -10 q-16 -2 -33.5 2t-34 11t-27.5 13l-24 17l-14 10q-178 115 -312 332q-133 215 -182 436q-47 207 -23 313zM160 1221q-20 -86 20 -271q47 -203 170 -403.5t283 -302.5q12 -8 28.5 -21.5t18.5 -15.5l6 10l45 84l92 174q154 289 221 457q63 158 86 264q23 117 -6 164q-4 8 -20 8 q-25 -2 -68 -22q-63 -29 -129 -84q-100 -82 -172.5 -199t-89.5 -234l39 -88q8 -18 1 -37.5t-25.5 -27.5t-38 -1t-27.5 25l-14 35q-37 10 -37 49q0 14 2 29q-45 98 -86 174q-68 123 -146 201q-72 70 -116 74q-12 2 -19 -5q-12 -10 -18 -36z" />
<glyph unicode="^" horiz-adv-x="540" d="M-3 1135.5q-3 19.5 9 35.5l23 33l41 62l49 71q47 66 76 101q18 23 32 37q8 8 17 14q18 12 37 10q25 -2 49 -22q12 -12 26 -33q25 -31 58 -84q55 -92 80 -146q8 -18 0.5 -37.5t-25.5 -27.5t-37.5 -1t-28.5 26q-23 49 -73 135q-31 49 -51 75l-9 -8l-71 -96 q-23 -31 -48.5 -70t-44 -64.5t-22.5 -31.5q-12 -16 -31.5 -19t-36 9t-19.5 31.5z" />
<glyph unicode="_" horiz-adv-x="1001" d="M-49 -309.5q-2 20.5 10.5 37t32.5 18.5q135 14 283.5 37.5t338.5 58.5l283 52q20 2 36.5 -9.5t19.5 -32t-8 -37t-32 -20.5q-88 -14 -282 -49l-344 -59q-147 -25 -283 -39q-20 -2 -36.5 10t-18.5 32.5z" />
<glyph unicode="`" horiz-adv-x="315" d="M26 1563.5q3 19.5 19 32t36 9t32 -19.5q129 -172 157 -338q2 -20 -9 -36.5t-31.5 -19.5t-37 8t-20.5 32q-23 143 -137 297q-12 16 -9 35.5z" />
<glyph unicode="a" d="M49 281q37 133 176 262q137 127 277 162q39 10 74 10q31 0 59 -8q-4 14 -6 26q-49 156 -133 182q-17 5 -36 5q-95 0 -241 -129q-14 -14 -34.5 -12.5t-35 16t-12 35t16.5 34.5q173 154 305 154q34 0 65 -10q135 -41 199 -246q20 -74 35 -164v-2q19 -137 19 -275 q0 -145 -21 -290q-4 -18 -20.5 -30.5t-36 -9.5t-32 19.5t-10.5 36.5q4 29 9 62q-80 -53 -164 -84q-84 -29 -168 -37q-23 -2 -44 -2q-85 0 -140 32q-76 45 -98 114q-12 37 -12 76q0 35 9 73zM145 254q-8 -26 -7 -48q0 -65 61 -102q34 -20 92 -20q16 0 35 2q72 6 143 33 q104 37 205 119q2 52 2 101q0 124 -14 234q-28 44 -87 44q-23 0 -51 -7q-113 -29 -231.5 -139.5t-147.5 -216.5z" />
<glyph unicode="b" horiz-adv-x="808" d="M76 1368q0 20 13 35.5t33.5 15.5t36 -13t15.5 -34q8 -217 10 -475q94 115 228 133q22 3 43 3q100 0 180 -70q98 -88 121 -261q8 -60 8 -118q0 -174 -70 -328q-111 -246 -342 -287q-22 -4 -42 -4q-60 0 -109 31q-10 6 -21 14q-14 -25 -43 -24q-20 0 -34.5 14t-14.5 35v293 v295q-6 12 -4 26l4 25q-2 399 -12 694zM186 168l9 -12q25 -55 59 -76q24 -14 55 -15q13 0 27 3q178 31 268 229q61 134 61 285q0 53 -8 108q-15 138 -83 196q-58 50 -126 49q-12 0 -24 -1q-80 -12 -147.5 -83t-90.5 -185v-498z" />
<glyph unicode="c" horiz-adv-x="804" d="M27 266q-15 65 -15 133q0 73 18 149q34 148 111 271q82 129 181 182q55 30 106 30q83 0 154 -79q12 -14 11 -34.5t-15.5 -34t-35 -12t-34.5 15.5q-37 43 -82 43q-28 0 -59 -17q-74 -39 -144 -147q-67 -109 -97 -237q-16 -69 -17 -134q0 -55 12 -108q20 -92 67.5 -141.5 t108.5 -57.5q12 -2 24 -2q47 0 101 26q66 32 123 101q72 88 149 287q6 18 25.5 26.5t38 1t26.5 -27.5q4 -9 5 -18q0 -10 -5 -19q-82 -211 -161 -311q-70 -88 -160 -130q-70 -33 -140 -33l-40 3q-94 12 -163 83.5t-93 190.5z" />
<glyph unicode="d" horiz-adv-x="755" d="M23 572q8 114 40 206q41 110 119 178q68 59 167 60q15 0 30 -2q100 -8 176 -82q33 -33 61 -84q-2 270 -10 493q0 20 13.5 36t34 16t36 -13.5t15.5 -33.5q12 -346 12 -1338q0 -20 -14.5 -34.5t-35 -14.5t-35 14.5t-14.5 34.5v66q-70 -63 -160 -84q-38 -9 -74 -9 q-51 0 -101 17q-86 29 -146 108q-72 94 -106 277q-11 51 -11 118q0 33 3 71zM121 565q-2 -30 -2 -57q0 -63 10 -109q29 -158 86 -235q64 -85 162 -85q28 0 59 7q61 14 110.5 55t71.5 99v274q-16 82 -28 132t-41 115.5t-64 100.5q-49 47 -114 53q-9 1 -18 1q-133 0 -197 -171 q-29 -80 -35 -180z" />
<glyph unicode="e" horiz-adv-x="757" d="M31 436q-4 45 -4 89q0 126 34 241q51 172 162 235q47 27 99 31q10 1 20 1q40 0 77 -13q46 -16 85 -40t71 -56q66 -63 99 -136q16 -35 20 -65q1 -6 1 -12q0 -37 -23 -60q-6 -6 -11.5 -9t-9.5 -3h-2l-4 -2h-2h-2h-2h-4l-17 -2l-57 -4l-176 -13l-256 -16q-4 -40 -4 -79.5 t4 -78.5q16 -162 85 -263t175 -103h7q82 0 134 47q54 49 103 154q10 18 28.5 25t36.5 -2q19 -10 26 -28q3 -9 3 -17q0 -10 -4 -19q-29 -57 -54.5 -97.5t-65.5 -81.5t-95 -61q-48 -18 -107 -18h-12q-84 2 -151 40q-66 41 -108 109t-66.5 144.5t-32.5 162.5zM145 700l234 17 l176 12l37 2q-2 8 -6 17q-27 53 -78 104q-58 56 -118 74q-22 7 -45 7q-37 0 -73 -18q-76 -43 -116 -178q-6 -18 -11 -37z" />
<glyph unicode="f" horiz-adv-x="776" d="M35 750q6 20 24.5 29t38.5 3q47 -16 103 -20q0 211 28 381q37 209 154 297q57 45 129 45q13 0 27 -2q88 -10 180 -88q14 -12 16 -33v-5q0 -18 -11 -31q-13 -15 -34 -17t-37 12q-76 64 -138 64q-39 0 -73 -25q-86 -63 -114 -234q-29 -166 -29 -364q25 2 207 24 q20 2 36.5 -10t18.5 -32.5t-10 -37t-33 -18.5q-190 -23 -217 -24q10 -289 72 -637q2 -20 -9.5 -37t-31.5 -20q-5 -1 -9 -1q-15 0 -28 9q-16 12 -21 32q-61 356 -71 654q-74 4 -137 24q-18 6 -28 24q-5 12 -5 24q0 7 2 14z" />
<glyph unicode="g" horiz-adv-x="722" d="M-2 414q0 199 84 377q113 237 311 237h2q86 0 152 -74q-2 12 -4 23q-2 20 9 36.5t32 19.5q4 1 8 1q15 0 28 -10q17 -11 21 -31q37 -231 37 -573q0 -410 -66 -563q-49 -111 -161 -183q-90 -57 -178 -57q-37 0 -74 10q-29 8 -51.5 19.5t-43 30t-29.5 28.5t-28.5 36 t-26.5 32q-12 16 -10 35.5t18.5 33t36 11t33.5 -18.5q8 -12 27 -35l25 -28q6 -8 18 -20.5t25.5 -17.5t33.5 -12q22 -7 45 -7q59 0 125 42q88 57 125 142q29 68 45 213q-109 -125 -256 -125q-137 0 -225 112.5t-88 315.5zM96 414q0 -170 63.5 -250t151.5 -80q86 0 164 72.5 t96 199.5q2 10 9 19v45v72q-9 10 -11 24q-12 117 -28 195q-23 119 -60 168q-35 51 -86 51q-139 0 -225 -182q-74 -158 -74 -334z" />
<glyph unicode="h" horiz-adv-x="876" d="M35 1391q0 20 14 34.5t34.5 14.5t35 -14.5t14.5 -34.5q0 -229 21 -656q45 98 104 164q102 116 217 115q23 0 47 -4q139 -27 223 -201q84 -176 84 -451q0 -82 -1 -115.5t-9 -102t-24 -122.5q-6 -18 -24.5 -27t-38 -3t-29 24.5t-3.5 38.5q14 43 21.5 101.5t8.5 93.5t1 112 q0 250 -76 408q-61 129 -151 147q-13 2 -25 2q-75 0 -147 -81q-106 -121 -164 -363q0 -4 -2 -6q12 -264 12 -453q0 -20 -14 -34.5t-34.5 -14.5t-35 14.5t-14.5 34.5q0 229 -22.5 689t-22.5 690z" />
<glyph unicode="i" horiz-adv-x="231" d="M92 967q2 20 18.5 32.5t37 10.5t32.5 -19t10 -37q-22 -177 -22 -339q0 -312 80 -570q2 -7 2 -14q0 -11 -5 -23q-9 -18 -29 -24q-8 -3 -15 -3q-11 -1 -23 5q-18 10 -24 30q-84 275 -84 602q0 168 22 349zM117 1255.5q0 20.5 14 35t34.5 14.5t35 -14.5t14.5 -35t-14.5 -35 t-35 -14.5t-34.5 14.5t-14 35z" />
<glyph unicode="j" horiz-adv-x="307" d="M-140 -312q7 19 25 27q217 100 271 537q16 135 16 279q0 199 -31 415q-2 18 10.5 34.5t32 20t36 -9.5t20.5 -33q32 -219 32 -422q0 -152 -18 -294q-59 -494 -328 -617q-10 -4 -20 -4q-8 0 -18 3q-19 7 -27 26q-4 9 -4 20q0 8 3 18zM131 1296.5q0 20.5 14.5 35t35 14.5 t34.5 -14.5t14 -35t-14 -35t-34.5 -14.5t-35 14.5t-14.5 35z" />
<glyph unicode="k" horiz-adv-x="806" d="M-8 1348q-2 7 -2 14q0 12 7 24q11 18 31 22q6 2 11 2q13 0 25 -8q18 -12 22 -30q84 -346 84 -751v-19l8 6l189 158q291 244 317 268q14 12 34 11t34 -15q13 -13 13 -32q0 -22 -15 -37q-27 -25 -320 -271l-188 -158l-60 -51l-14 -12v-5q0 -28 39 -71q53 -59 166 -129 q170 -104 362 -182q19 -6 27 -26q5 -11 4 -21q0 -9 -3 -17q-7 -18 -26.5 -26t-38.5 0q-201 80 -376 188q-102 63 -164 121q-10 -143 -29 -297q-3 -20 -19 -32q-14 -11 -31 -11h-5q-20 2 -32.5 18.5t-10.5 36.5q40 319 40 603q0 399 -79 729z" />
<glyph unicode="l" horiz-adv-x="284" d="M83 608q-1 33 -1 76q0 57 2 132q4 130 8 190l10 206q8 150 11 193q2 19 16 33q13 13 32 13h3q20 -1 33.5 -15.5t13.5 -34.5q-2 -43 -10 -193l-11 -209q-4 -55 -8 -185q-2 -65 -2 -116t2 -88l6 -184q4 -109 17.5 -203t34.5 -188q1 -5 1 -10q-1 -15 -9 -27q-12 -16 -32 -22 q-7 -2 -12 -1q-12 -1 -24 7q-16 12 -23 32q-18 96 -31.5 194.5t-18.5 210t-8 189.5z" />
<glyph unicode="m" horiz-adv-x="1314" d="M33 936q0 20 14 34.5t34.5 14.5t35 -14.5t14.5 -34.5q0 -111 12 -389v-25q20 80 41 148q47 143 105 217q65 83 143 83q25 0 51 -9q129 -43 179 -283q4 -29 10 -64q10 39 22 74q90 264 248 311q33 10 64 10q41 0 77 -18q55 -27 95 -94q61 -106 79 -305q9 -130 10 -240 q0 -56 -3 -106q-7 -150 -21 -244q-4 -20 -20.5 -31.5t-37 -8.5t-31.5 19.5t-9 36.5q17 88 23 234q2 48 2 101q0 106 -9 229q-18 180 -67 266q-26 42 -54 56q-15 8 -33 7q-17 0 -36 -6q-109 -33 -183 -248q-57 -166 -71 -352q-2 -20 -2 -108q0 -76 -8 -121q-2 -4 -3.5 -8.5 t-1.5 -6.5q-4 -12 -14 -20q-16 -14 -41 -10q-18 2 -31 20q-6 8 -8 19q-2 4 -2 10v24q0 6 1 18.5t1 20.5v17q0 70 -12 202q0 10 -5 76t-11.5 119t-16.5 102q-35 182 -112 207q-9 3 -17 3q-33 0 -67 -42q-47 -61 -88 -188q-59 -184 -82 -391q-4 -31 -7 -96q-2 -68 -6 -105v-10 v-21q0 -18 -4 -28q-2 -10 -8 -19q-16 -18 -41 -18q-18 0 -33 12q-6 4 -10 12q-8 12 -14 35q-2 14 -4 37q-4 33 -7 90q-2 25 -3 58.5t-1 57t-2 34.5q-2 29 -12 256q-12 281 -12 393z" />
<glyph unicode="n" horiz-adv-x="942" d="M41 977v6q0 17 9 31q12 16 32 19q4 1 8 1q14 0 28 -9q16 -11 21 -32q31 -178 51 -530q53 147 119 264q84 150 170 217q72 55 142 55q46 0 92 -24q78 -41 123 -187q33 -111 49 -280q14 -156 14 -347q0 -76 -2 -157q0 -20 -15.5 -33.5t-36 -13.5t-33.5 15.5t-13 35.5 q2 74 2 145q0 186 -15 345q-14 164 -45 262q-33 106 -73 129q-22 11 -44 11q-40 0 -83 -34q-72 -55 -146 -188q-61 -111 -108 -240q-47 -127 -58 -196q-6 -27 -6 -90q0 -68 -6 -105q-2 -8 -4 -12q-6 -10 -14 -19q-20 -18 -47 -8q-10 4 -17.5 11.5t-9.5 11.5l-2 4l-4 8 q0 6 -2 14q-2 12 -4 35q-2 41 -7 94q-2 39 -5 112t-5 110q-25 399 -55 569z" />
<glyph unicode="o" horiz-adv-x="751" d="M20 477q10 207 95 367q96 184 243 194q4 0 7 1q26 0 55 -13l20 -8l13 -6q12 -5 20 -13q74 -33 127 -104q100 -131 115 -342q2 -28 1 -56q0 -173 -65 -311q-88 -186 -260 -209q-25 -3 -49 -3q-163 0 -252 149q-71 122 -71 307q0 23 1 47zM119 473q-1 -24 -1 -48 q0 -155 58 -253q58 -99 166 -99q18 0 37 3q117 14 184 153q54 117 54 269q0 24 -1 49q-12 180 -94 289q-67 89 -166 89q-23 0 -47 -5h-4q-57 -35 -104 -123q-74 -137 -82 -324z" />
<glyph unicode="p" horiz-adv-x="808" d="M31 973v6q0 16 10 31q12 16 33 18h5q17 0 31 -10q17 -12 19 -33q6 -59 10 -92q88 98 211 117q22 3 43 3q70 0 137 -30q88 -39 154 -129q68 -94 78 -198q2 -23 2 -46q0 -77 -26 -144q-33 -87 -101 -171q-88 -104 -214 -184t-251 -111q0 -152 -6 -319q0 -20 -15.5 -34 t-36 -14t-33.5 15.5t-13 36.5q7 214 7 411q0 490 -44 877zM152 733q22 -293 22 -631q104 31 208.5 99.5t178.5 156.5q106 129 106 252q0 96 -65 187q-47 68 -110 97q-48 21 -96 21q-16 0 -32 -3q-65 -9 -121.5 -54t-88.5 -123z" />
<glyph unicode="q" horiz-adv-x="755" d="M-10 279v9q0 169 72 336q75 171 204 287q94 84 199 101q18 3 36 3q60 0 111 -32v10q2 20 18 33q13 12 30 12h6q20 -2 34 -17q11 -13 11 -31v-5q-25 -342 -31 -491v-13q-7 -156 -7 -297q0 -282 27 -503q2 -20 -10 -37t-32 -19h-6q-17 0 -32 11q-16 12 -18 32 q-28 225 -28 499q0 63 1 128l-43 -57q-14 -16 -33.5 -45t-36 -47.5t-42.5 -45.5q-117 -114 -220 -114q-36 0 -71 14q-68 27 -102.5 100.5t-36.5 178.5zM88 279q2 -158 77 -188q16 -6 34 -6q65 0 151 85q25 25 37 39t31 41l37 49q74 94 127 203q6 139 20 356q-4 2 -6 8 q-38 48 -98 48q-10 0 -21 -1q-74 -10 -145 -75q-115 -102 -180 -254q-64 -147 -64 -296v-9z" />
<glyph unicode="r" horiz-adv-x="671" d="M29 891v6q0 17 10 29q12 16 32.5 19t36 -9t19.5 -33q14 -117 23 -266q63 150 167.5 254t249.5 133h6q17 0 32 -9q18 -11 21 -31q1 -4 1 -7q1 -15 -9 -29q-12 -18 -30 -22q-115 -20 -205 -110.5t-139 -205t-68 -243.5q-4 -25 -6 -52q7 -103 7 -183q0 -67 -5 -118 q0 -6 -1 -9t-1 -7q-4 -10 -12 -21q-14 -16 -36 -16h-5q-20 2 -35 21q-6 8 -8 18q-2 4 -2 10q-2 8 -2 35q0 14 -1 45t-1 39q-1 35 -1 68q0 65 5 120q-14 180 -17 230q-8 205 -26 344z" />
<glyph unicode="s" horiz-adv-x="681" d="M38 74q3 20 19.5 32.5t36.5 10.5q130 -19 234 -19h10q115 2 145 11q68 12 72 49q1 7 1 14q0 40 -38 84q-39 47 -131 106l-86 54q-57 35 -76 47q-96 59 -129 102q-45 59 -55 109q-5 27 -5 52q0 89 62 159q80 88 195 119q52 15 99 15q59 0 108 -24q108 -53 108 -182 q0 -22 -14 -36.5t-34.5 -14.5t-35 14.5t-14.5 34.5q0 70 -53 94q-30 15 -68 15q-33 0 -72 -11q-88 -25 -140 -85q-41 -47 -41 -103q0 -15 3 -31q4 -25 35 -63q23 -31 105 -82l75 -45l88 -56q102 -68 152 -125q61 -73 61 -147q0 -13 -2 -27q-16 -106 -149 -133 q-39 -10 -162 -12h-22q-109 0 -242 18q-18 4 -30 20q-10 13 -11 29q0 3 1 7z" />
<glyph unicode="t" horiz-adv-x="714" d="M43 938q0 20 14.5 34.5t34.5 14.5q66 0 162 2q4 102 4 191q0 125 -8 225q-2 20 11 35.5t33 17.5h6q16 0 30 -12q16 -14 18 -33q8 -104 8 -231q0 -91 -4 -193q115 2 187 2q20 0 34.5 -14t14.5 -34.5t-14.5 -35t-34.5 -14.5q-72 0 -191 -2q-20 -401 -20 -506 q0 -23 -1.5 -62.5t-2 -64.5t2 -55.5t9.5 -55.5q8 -27 26.5 -49t32.5 -24q16 -3 31 -3q37 0 66 21q37 29 63 96q33 82 55 279q2 20 18.5 32.5t37 10.5t32.5 -18q11 -14 11 -32v-5q-25 -209 -62 -302.5t-94 -138.5q-58 -43 -131 -43q-23 0 -47 4q-49 10 -90 62q-31 39 -43 86 q-10 37 -14 81q-2 28 -2 65q0 21 1 45q2 66 2 71q0 111 21 506q-94 -2 -158 -2q-20 0 -34.5 14.5t-14.5 34.5z" />
<glyph unicode="u" horiz-adv-x="839" d="M61 743q2 39 4.5 87.5t3.5 78t1 45.5q0 20 14 35t34.5 15t35 -15t14.5 -35q0 -16 -1 -46.5t-3 -80t-4 -88.5q-3 -79 -3 -149q0 -93 5 -170q10 -184 47 -273q18 -45 43 -61q18 -14 45 -10q115 27 192 241q20 57 36 119t34.5 149t20.5 95q27 125 34 182v6v17v18q0 23 4 35 q10 37 48 39q27 0 45 -23q6 -10 10 -22q2 -4 2 -12q2 -12 4 -31q4 -33 8 -96q2 -33 19 -283q27 -424 43 -498q2 -7 2 -13q1 -13 -7 -25q-12 -18 -32 -22q-6 -2 -11 -2q-13 0 -25 8q-17 11 -22 30q-20 84 -47 516l-2 49q-35 -166 -71 -268q-98 -268 -265 -303q-20 -5 -39 -5 q-47 0 -85 29q-45 35 -74 105q-43 104 -56 303q-5 78 -5 175q0 72 3 154z" />
<glyph unicode="v" horiz-adv-x="882" d="M51 961q-2 8 -2 16q0 11 5 21q8 18 28 25q8 3 17 3q11 0 21 -6q18 -10 25 -27q16 -51 37 -108l49 -129l41 -109q78 -211 115 -356q2 -4 23 -94q25 94 57 172q182 434 283 614q10 16 29.5 22.5t36.5 -3.5q18 -10 24 -30q2 -7 2 -15q0 -12 -6 -23q-98 -176 -279 -602 q-37 -88 -80 -275q0 -4 -2 -14q-2 -16 -4 -25q-4 -23 -14 -36q-21 -24 -50 -24q-6 0 -12 1q-8 2 -15 7t-9 9l-4 5l-7 6q0 4 -2 6q0 2 -2 6q0 2 -2 8l-6 31l-22 88q-6 25 -14.5 60.5t-13.5 56t-5 24.5q-35 141 -113 346l-41 109l-47 131z" />
<glyph unicode="w" horiz-adv-x="1150" d="M35 971q-2 7 -2 14q0 11 7 23q10 18 30 23q6 2 12 2q14 -1 26 -9q18 -12 21 -29l158 -616l37 -139q39 121 90 235q45 104 86 162q27 37 51 57q32 24 65 24l13 -1q31 -6 57 -35q20 -18 43 -51q35 -51 76 -139q37 -80 88 -207v22q2 104 21.5 212t53 246t44.5 198 q4 18 21.5 29.5t37 8t30.5 -20.5q9 -14 9 -32v-6q-14 -70 -48 -204t-51.5 -234.5t-19.5 -200.5v-24v-54q0 -33 2 -57q0 -53 -2 -82v-31q0 -6 -2 -12q0 -4 -2 -8q-2 -12 -12 -21q-16 -18 -35 -18q-12 0 -25 8q-8 4 -14 12l-8 13q-6 8 -12 22q-10 23 -27 64l-37 96 q-76 184 -102 240q-37 80 -68 124q-16 25 -29 37l-4 4h-2q-14 -10 -32 -36q-33 -47 -76 -144q-78 -174 -101 -274v-74q0 -72 -38 -108q-15 -14 -32 -14q-12 0 -24 7q-12 6 -20 19q-2 4 -4 10q-2 4 -4 10q0 2 -1 6.5t-2.5 9.5t-1.5 7q-8 41 -18 76q-18 61 -37 133l-28 110 q-72 256 -158 617z" />
<glyph unicode="x" horiz-adv-x="716" d="M34 -1q-3 9 -3 18q0 10 4 20q94 213 246 469l-56 110q-10 18 -41.5 84t-46 92.5t-42 72.5t-52.5 81q-10 13 -10 28q0 4 1 8q3 20 19.5 32t36 9t31.5 -19q29 -37 58.5 -87.5t45 -79t48 -95t38.5 -80.5l29 -58l244 400q10 18 30 23q7 2 14 2q12 0 24 -7q18 -10 23 -30 q2 -7 2 -14q0 -13 -7 -24l-277 -452l234 -465q10 -18 4 -37q-7 -20 -25 -30q-11 -6 -23 -5q-7 0 -15 2q-20 6 -27 25l-207 409q-121 -207 -209 -405q-7 -18 -27 -26q-9 -4 -19 -3q-9 1 -19 5q-18 8 -26 27z" />
<glyph unicode="y" horiz-adv-x="886" d="M53 956q-2 7 -2 14q0 13 7 24q10 18 29 24q7 2 14 2q12 0 23 -6q17 -10 23 -29q57 -203 152.5 -403.5t210.5 -315.5q92 176 155.5 365.5t82.5 343.5q2 20 18 33q14 10 31 10h5q21 -2 34 -18q10 -15 10 -32v-5q-23 -172 -95.5 -386.5t-181.5 -406.5q-2 -6 -6 -10 q-166 -295 -352 -428q-13 -10 -28 -10q-4 0 -9 1q-20 3 -31.5 19t-8.5 36.5t20 31.5q160 114 307 368q-133 123 -238 342q-104 215 -170 436z" />
<glyph unicode="z" horiz-adv-x="825" d="M0 51q0 6 2 12q0 6 4 11q0 2 2 4q0 2 2 4l4 6l17 18l43 58l71 90l150 184q-33 -2 -59 -4q-20 0 -36 13.5t-16 34t13.5 35.5t33.5 15q4 0 150 11l70 88q119 150 172 227l26 39h-8q-98 -14 -104 -14q-47 -1 -88 -1q-167 0 -256 19q-20 4 -31.5 20.5t-6.5 37t21.5 31.5 t36.5 5q75 -15 224 -15q44 0 95 1q2 0 97 12l65 8q14 2 21 5h8h2h2h6q6 0 10 -2q23 -4 31 -29q5 -12 5 -24.5t-5 -26.5q-4 -14 -16 -35q-18 -33 -56 -86q-59 -90 -174 -234l-18 -22q45 0 84 -4q20 -2 33.5 -17.5t11.5 -36t-17.5 -34t-35.5 -11.5q-41 4 -89 4q-32 0 -67 -2 l-207 -253l-71 -91l-5 -6q12 2 27.5 4t26 3t14.5 1q123 8 242 8q134 0 262 -10q20 -2 33.5 -17t11.5 -35.5t-17.5 -34t-35.5 -11.5q-125 10 -254 10q-115 0 -234 -8q-6 0 -36.5 -4t-51.5 -4q-23 -3 -41 -3q-9 0 -16 1q-16 0 -29 2q-23 6 -36 20.5t-13 32.5z" />
<glyph unicode="{" horiz-adv-x="712" d="M25 707q-2 31 24 47q68 37 117 147q16 35 84 234q20 61 35 94q14 39 43.5 87t62.5 76.5t82 47t111 14.5q20 -2 33.5 -17.5t11.5 -36t-18 -33.5t-36 -11q-86 6 -136 -54.5t-97 -197.5q-72 -211 -86 -242q-41 -94 -96 -147q35 -23 62.5 -58.5t42 -64.5t26.5 -79t16 -72.5 t10 -75.5q18 -133 47 -192.5t107 -74.5q45 -10 68.5 -7t50.5 22q16 10 36.5 7t32 -19.5t8.5 -37t-20 -32.5q-47 -33 -96 -38t-96 7q-41 8 -74 25.5t-54.5 36t-40 52t-27.5 54t-18.5 63.5t-11.5 59.5t-8 59.5q-10 70 -18 108t-25.5 84t-46.5 72.5t-74 40.5q-35 12 -32 52z " />
<glyph unicode="|" horiz-adv-x="1554" d="M129 750q12 63 53 122q43 61 99 97q12 55 53 116q39 61 94 115.5t104 83.5q-16 47 0.5 93t53.5 74t85 36t97 -21q55 113 197 152q74 20 157.5 10t147.5 -53q82 -55 78 -125q-2 -59 -58 -98q-57 -39 -102 -13q-53 31 -17 121q6 12 18.5 17.5t25 0.5t17.5 -17.5t1 -24.5 q-12 -29 -10 -41q14 0 30 12q29 18 29 45q2 35 -49 70q-49 33 -117 43q-70 8 -135 -11q-82 -23 -129 -79q29 6 53 -5q53 -20 62 -88q102 -20 159 -73q78 -70 70 -185q0 -6 -2 -12q-4 -18 -8 -39q84 2 160.5 -37t123.5 -102q55 -76 55.5 -160t-65.5 -174q-12 -14 -24 -27 l-215 -555v-24l-836 4v6l-195 563q-25 16 -40 41q-37 59 -21 142zM225 729q-8 -43 6 -67q12 -18 41 -27q14 0 54.5 -1t58.5 -1t47 2t51 8q88 16 197 66q106 49 201 118q217 164 217 328v2q-4 47 -37 80q-39 33 -111 49q-27 -57 -85 -95t-142 -38q-76 0 -133 49 q-37 -16 -87 -64t-87 -106q-41 -63 -43 -108q-2 -35 30 -54q88 -49 228 41q74 47 217 189q14 14 34.5 14t35 -14.5t14.5 -35t-14 -34.5q-152 -150 -234 -203q-188 -121 -330 -43q-43 25 -63 66q-53 -55 -66 -121zM300 705.5q13 17.5 32 5.5l28 -23q16 -14 3 -31.5t-31 -5.5 l-29 23q-16 14 -3 31.5zM307 530l150 -434h75q-2 2 -2 4q-6 57 -36 222q-27 143 -35 217q-52 -4 -140 -2q-6 -4 -12 -7zM435 912.5q11 19.5 13.5 29.5t-2.5 37q-2 23 21 25t25 -21q4 -31 2 -47q-4 -20 -19 -47q-12 -18 -31.5 -7t-8.5 30.5zM497 688.5q-4 22.5 19 26.5l35 6 q23 4 27 -18.5t-19 -26.5l-35 -6q-23 -4 -27 18.5zM522 549q8 -72 37 -213q29 -152 37 -227q0 -6 -2 -15h149q0 37 -6 178q-6 131 -2 201q0 4 2 8q-59 27 -104 68q-12 12 -17 29q-49 -18 -94 -29zM550.5 1135.5q11.5 19.5 29.5 9.5l18 -10q8 -4 10 -7q6 -4 10 -10l13 -14 q12 -18 -5.5 -31.5t-31.5 2.5l-10 17l-2 2l-4 2l-19 8q-20 12 -8.5 31.5zM580 956.5q-12 18.5 6 30.5l43 29q18 12 30.5 -6.5t-6.5 -30.5l-43 -29q-18 -12 -30 6.5zM709 614q45 -39 120 -65q117 -27 209 -29t186.5 32t157.5 110q88 106 9 212q-35 49 -95.5 77t-121.5 24 q-12 0 -25 4q-63 -121 -209 -231q-106 -79 -231 -134zM727 1090l4 22q4 23 26.5 18.5t18.5 -26.5l-4 -23q-4 -23 -26.5 -18.5t-18.5 27.5zM735 811l39 59q12 18 30.5 6t6.5 -30l-39 -60q-12 -18 -30.5 -5.5t-6.5 30.5zM801 455q-4 -70 2 -181q6 -141 6 -180l213 -2 q2 39 4 160q4 106 12 172q-100 0 -221 27q-8 0 -14 2zM873.5 929q-9.5 21 13.5 29q10 6 20 11q10 6 15 6q6 2 16 2h6h14q23 0 23 -22.5t-23 -22.5h-12h-8h-2q-2 0 -8 -2q-10 -6 -25 -12q-20 -10 -29.5 11zM918 647q-10 18 9 29.5t31 -8.5l17 -29q10 -18 -9.5 -29.5 t-31.5 8.5zM956 1196q-6 20 15.5 27.5t29.5 -15.5q2 -8 4.5 -15t2.5 -9t2 -4v-4l4 -5q0 -2 4 -8l10 -18q10 -18 -9.5 -29.5t-31.5 8.5q-18 33 -18 35zM1038 731q35 35 56 51q16 16 31.5 -1t-3.5 -31l-51 -52q-16 -16 -32.5 0.5t-0.5 32.5zM1075.5 585.5q-10.5 20.5 9.5 30.5 q33 16 56 29q18 10 29.5 -9.5t-9.5 -31.5q-23 -12 -55 -29q-20 -10 -30.5 10.5zM1087 92h56l147 377q-84 -37 -186 -45q-8 -63 -12 -174q-2 -119 -5 -158zM1155 872q-16 16 1.5 31.5t31.5 -2.5l16 -18q16 -16 -1 -31.5t-32 2.5zM1220 686.5q13 17.5 29 5.5q25 -16 43 -35 q18 -14 3 -31.5t-31 -0.5l-39 30q-18 14 -5 31.5zM1292 797l13 37q6 23 27.5 15t13.5 -28l-13 -37q-6 -23 -27.5 -15.5t-13.5 28.5z" />
<glyph unicode="}" horiz-adv-x="665" d="M-16 74.5q2 19.5 17.5 34t35.5 12.5q104 -6 162 35q47 33 75 108q4 12 45 172q31 119 70 182q33 51 100 109q-55 53 -90 154q-14 41 -34 125q-27 109 -31 120q-35 129 -84 177q-59 59 -178 34q-20 -2 -38 9.5t-21 31t8.5 37t29.5 21.5q172 33 268 -62q68 -68 111 -223 q2 -12 31 -123q16 -72 31 -115q39 -111 102 -145q18 -10 24.5 -29.5t-4 -37t-28.5 -23.5q-2 -4 -6 -6q-82 -63 -105 -103q-33 -51 -59 -157q-39 -150 -49 -181q-39 -106 -111 -155q-86 -61 -227 -53q-18 2 -32.5 17t-12.5 34.5z" />
<glyph unicode="~" horiz-adv-x="854" d="M-18 1100q-2 21 10 37q74 94 98 116q80 78 162 74q37 -2 68.5 -22.5t45 -36t31.5 -43.5q27 -39 42.5 -54.5t33.5 -21.5q49 -10 123 29q12 8 70 43l69 43q18 10 38 4t30 -23.5t4 -37t-23.5 -30t-64.5 -40.5q-49 -31 -76 -45q-106 -57 -190 -37q-27 6 -48.5 17t-41 33.5 t-24.5 30t-22 33.5q-23 33 -37 46.5t-32 13.5q-41 2 -90 -45q-18 -18 -88 -109q-12 -16 -33 -18t-37 10t-18 33z" />
<glyph unicode="&#xa1;" horiz-adv-x="245" d="M51 68q25 152 37 338t13 296.5t1 344.5q0 20 14.5 34.5t35 14.5t35 -14.5t14.5 -34.5q0 -236 -1 -346.5t-13.5 -302t-36.5 -347.5q-4 -20 -20.5 -31.5t-37 -8.5t-32 19.5t-9.5 37.5zM68 1386.5q0 20.5 14 35t34.5 14.5t35 -14.5t14.5 -35t-14.5 -35t-35 -14.5t-34.5 14.5 t-14 35z" />
<glyph unicode="&#xa2;" horiz-adv-x="667" d="M66 281q-20 193 69 383q100 219 285 268q18 6 36.5 -4t23.5 -29.5t-5.5 -38t-30.5 -22.5q-137 -37 -221 -215q-76 -168 -59 -332q8 -72 31.5 -108t56.5 -38q45 -4 122 50.5t179 185.5q12 16 32.5 18t37 -10t18.5 -32.5t-10 -37.5q-223 -283 -385 -272q-82 4 -126 71.5 t-54 162.5zM281 1069.5q0 20.5 14 34.5t34.5 14t35 -14t14.5 -34.5t-14.5 -35t-35 -14.5t-34.5 14.5t-14 35zM297 -172.5q0 20.5 14.5 35t35 14.5t34.5 -14.5t14 -35t-14 -34.5t-34.5 -14t-35 14t-14.5 34.5z" />
<glyph unicode="&#xa3;" horiz-adv-x="1144" d="M16 690.5q-2 20.5 12.5 34.5t34.5 16q74 4 191 9q4 20 6 38q6 41 13.5 140.5t19.5 179.5q14 78 41 147q45 117 131 172.5t176 43t145.5 -84t40.5 -172.5q-4 -20 -20 -31.5t-36.5 -8t-32 20t-9.5 36.5q10 57 -19.5 96t-80.5 45q-55 8 -112.5 -28.5t-92.5 -124.5 q-25 -61 -35 -129q-10 -70 -17 -165.5t-14 -148.5l-4 -22q35 2 64 4q201 8 352 30q18 2 34.5 -10t19.5 -31.5t-9 -36t-33 -20.5q-156 -23 -360 -31q-35 -2 -84 -4q-25 -131 -72 -293q-27 -100 -47 -151q10 2 23 4q10 2 80 2q74 0 167 -8t149 -11t123.5 2t130 31.5 t128.5 79.5q16 12 36.5 10t33 -18t10.5 -36.5t-19 -33.5q-76 -59 -152.5 -91.5t-155.5 -39t-142.5 -3.5t-155.5 11.5t-153 8.5h-68q-18 -4 -66 -23l-4 -4l-16 -14q-16 -16 -33 -21q-41 -16 -67 19q-23 29 -9 63q6 16 21 33q6 6 11 10t6 6t3 5h2q31 59 70 194q41 147 66 264 q-100 -4 -170 -8q-20 -2 -35 12.5t-17 35z" />
<glyph unicode="&#xa4;" horiz-adv-x="1038" d="M-65.5 217.5q2.5 20.5 16.5 32.5q100 86 137 123l2 2q-74 100 -75 241.5t59 255.5q37 76 90 138q-104 90 -170 168q-14 16 -12 36.5t17 34t35.5 11t33.5 -16.5q63 -74 163 -162q2 -2 5 -6q68 53 142.5 78t167.5 18.5t187 -53.5l92 70q59 47 88 67q16 12 36 9.5t32 -19 t9 -36t-19 -31.5l-162 -125q90 -84 125 -192.5t16.5 -210t-78.5 -191.5q-8 -14 -16 -27q80 -90 123 -133q14 -14 14 -34.5t-14 -35t-34.5 -14.5t-35.5 14l-118 129q-102 -98 -232.5 -130.5t-286.5 14.5q-65 24 -114 61q-41 -41 -142 -127q-16 -14 -36.5 -12t-34 17.5t-11 36 zM112 629.5q-3 -99.5 47 -180t146 -113.5q141 -51 275 2q131 53 211 174q51 80 63 162q12 84 -20.5 172t-114.5 155l-8 7q-12 4 -21 14q-20 12 -43.5 19.5t-65.5 16.5t-67 15q-2 0 -6 2q-113 -2 -203 -69.5t-143 -176.5q-47 -100 -50 -199.5z" />
<glyph unicode="&#xa5;" horiz-adv-x="1228" d="M21.5 800.5q-5.5 20.5 6 37t31.5 20.5l230 57q-129 254 -152 496q-2 20 11.5 35.5t34 17.5t35.5 -11t18 -34q23 -229 151 -477q284 75 444 102q78 233 87 365q2 18 17 32.5t34.5 12.5t34 -17.5t12.5 -35.5q-8 -127 -76 -340q96 10 180 10q20 0 34.5 -14.5t14.5 -35 t-14 -34.5t-35 -14q-100 0 -215 -17q-47 -133 -106 -272q172 29 331 47q20 2 37 -11t19 -32.5t-11.5 -36t-31.5 -18.5q-195 -23 -393 -58q-193 -422 -344 -573q-14 -14 -35 -14t-35 14t-14 34.5t14 35.5q106 106 254 395l-8 8l-43 55q-193 -43 -402 -100q-18 -6 -35.5 4 t-23.5 29.5t4 37t31 23.5q186 53 360 92q-76 106 -135 211q-160 -43 -258 -63q-20 -6 -36.5 5t-22 31.5zM436 854q61 -106 142 -213l104 21l16 38q54 121 97 238q-131 -25 -359 -84z" />
<glyph unicode="&#xa6;" horiz-adv-x="462" d="M289 61q-6 209 4 347q2 20 17.5 33.5t36 11.5t33.5 -18t11 -36q-10 -131 -4 -333q10 -338 10 -342q0 -20 -14 -35t-34.5 -15t-35 14.5t-14.5 35.5q0 45 -10 337zM293 782q0 463 31 688q4 20 19 33t35.5 9.5t33 -19t10.5 -35.5q-31 -219 -31 -676q0 -20 -14.5 -34.5 t-34.5 -14.5t-34.5 14.5t-14.5 34.5z" />
<glyph unicode="&#xa7;" horiz-adv-x="620" d="M35 154.5q2 19.5 18.5 33t36 11.5t33.5 -19q37 -47 91 -55t105 18q55 27 92.5 77t39.5 106q6 117 -54 166q-10 10 -21 17t-27.5 13t-26 10.5t-32 12.5t-30.5 10q-33 12 -53.5 22.5t-45 37t-32.5 61.5q-14 84 76 239q-20 16 -37 35q-96 98 -82 213q12 94 78.5 145.5 t150.5 55.5q82 2 156 -41t102 -125q6 -20 -3 -37.5t-28.5 -25t-37 2t-25.5 27.5q-16 49 -61 76t-98.5 25t-91.5 -32t-44 -83q-10 -68 56 -133q27 -29 153 -121q111 -78 127 -141q20 -86 -88 -168q16 -10 29 -21q96 -82 88 -245q-4 -86 -57.5 -158t-131.5 -109 q-51 -25 -104 -30q-55 -4 -111.5 19.5t-99.5 74.5q-12 16 -10 35.5zM225 694q6 -25 68 -47l39 -12q6 8 14 12q84 55 78 86q-6 27 -88 84l-51 37q-68 -115 -60 -160z" />
<glyph unicode="&#xa8;" horiz-adv-x="405" d="M14 1370.5q0 20.5 14.5 34.5t35 14t35 -14t14.5 -34.5t-14.5 -35t-35 -14.5t-35 14.5t-14.5 35zM260 1341.5q0 20.5 14.5 35t35 14.5t34.5 -14.5t14 -35t-14 -35t-34.5 -14.5t-35 14.5t-14.5 35z" />
<glyph unicode="&#xa9;" horiz-adv-x="1150" d="M98 823q45 319 193 543q170 258 395 252q16 0 29.5 -11.5t17.5 -27.5q100 -37 179 -106.5t127 -157.5t78 -193.5t33 -213t-7 -216.5q-20 -143 -72.5 -275t-133.5 -237.5t-198.5 -164t-255.5 -48.5q-127 10 -214 90t-134 207q-84 231 -37 559zM195 809q-43 -301 32 -512 q80 -217 265 -231q141 -10 260.5 74.5t193.5 233t98 331.5q25 186 -9 350t-135 287.5t-257 160.5q-12 2 -20 10q-137 -29 -250 -200q-135 -207 -178 -504zM332 741q-6 184 86 326q113 170 301 152q20 -2 33.5 -17.5t11.5 -36t-17.5 -34t-35.5 -11.5q-131 12 -211 -108 q-76 -113 -70 -267q4 -145 72 -186q76 -43 215 80q16 14 35.5 12t34 -17.5t12.5 -34.5t-17 -34q-195 -172 -329 -90q-117 70 -121 266z" />
<glyph unicode="&#xaa;" horiz-adv-x="587" d="M27 883q-8 37 6 80q25 66 96 141q66 70 143 123q72 49 127 61q-6 10 -14 19q-35 41 -94 30q-90 -14 -164 -100q-12 -16 -32.5 -18t-36 11t-17.5 33.5t12 34.5q94 115 221 138q115 18 187 -66q51 -61 74 -180q8 -45 12 -103.5t4 -95.5t-1 -93t-1 -64q0 -20 -14.5 -35 t-35 -15t-34.5 14.5t-14 35.5q0 4 1 82.5t-1 101.5q-63 -72 -113 -117q-66 -59 -119 -84q-80 -35 -141 -2q-41 25 -51 68zM121 905q2 -2 6 -4q16 -10 51 6q39 18 94 66l50 49q27 27 43 45l38 47q23 27 29 33l8 8q-2 8 -4 19l-4 20h-2q-37 -4 -102 -49q-70 -45 -127 -107 q-57 -63 -74 -108q-6 -16 -6 -25z" />
<glyph unicode="&#xab;" horiz-adv-x="712" d="M-47 547q6 18 27 47l40 49l117 117l119 112q70 66 82 78q14 14 34.5 14.5t35 -14t14.5 -35t-14 -34.5q-12 -12 -84 -78l-117 -113q-72 -70 -113 -115q-25 -25 -37 -40q-6 -10 -8 -15q16 -31 23 -41q31 -41 92 -102q33 -33 72 -70l75 -65q35 -29 43 -37q16 -14 16.5 -34.5 t-13 -36t-34 -15.5t-34.5 12q-8 8 -45 41l-76 66q-41 37 -74 69q-66 63 -102 115q-53 74 -39 125zM256 530l8 19l2 2v2l2 2l2 2l2 2l11 10l32 37l107 113q154 168 166 182t32.5 16.5t36 -11t17.5 -34t-12 -36.5q-12 -14 -168 -183l-105 -112l-31 -33q8 -16 25 -39 q33 -43 94 -109q96 -100 185 -176q16 -12 18 -32.5t-11.5 -36t-34 -17.5t-34.5 13q-96 78 -194 182q-63 66 -103 119q-23 31 -35 55q-16 35 -12 63z" />
<glyph unicode="&#xac;" horiz-adv-x="813" d="M36 628.5q-3 20.5 8.5 37t31.5 20.5q109 16 354 47l172 21q35 4 55 4q10 2 17 2h8h6q4 0 8 -2q14 -4 23 -17q8 -8 12 -22q2 -6 4 -17q4 -14 6 -38q4 -37 11 -105q4 -27 7 -68.5t5 -65.5t4 -32q2 -20 -10.5 -36.5t-31.5 -19.5t-35.5 9t-20.5 31q0 10 -3 34.5t-6.5 68.5 t-5.5 71q-6 66 -10 100l-2 8l-31 -4l-170 -20q-254 -31 -350 -47q-20 -2 -36.5 9t-19.5 31.5z" />
<glyph unicode="&#xad;" horiz-adv-x="659" d="M27 653.5q0 20.5 14.5 34.5t34.5 14q57 0 123.5 5.5t111.5 11.5l125 16q80 10 121 17q20 2 36.5 -10.5t18.5 -33t-10 -37t-33 -18.5q-37 -4 -118 -14l-127 -18q-47 -6 -117 -11.5t-131 -5.5q-20 0 -34.5 14.5t-14.5 35z" />
<glyph unicode="&#xae;" horiz-adv-x="1185" d="M59 803q25 299 162 518q94 152 219 217q4 16 17.5 27.5t31.5 11.5q43 0 74 -2q18 4 37 4q15 0 27 -6q131 -12 235 -62q45 -23 87 -66.5t63.5 -76.5t48.5 -84q137 -266 93 -543.5t-241 -494.5q-164 -180 -358 -189q-276 -12 -410 232q-113 205 -86 514zM156 795 q-23 -279 75 -459q104 -190 320 -180q154 6 289 155q178 197 217 445t-82 483q-82 150 -154 182q-105 50 -252 56q-152 -25 -266 -209q-123 -199 -147 -473zM338 1124q-6 20 5 38t30.5 23t37 -6.5t21.5 -29.5l6 -25q20 16 41 27q70 31 146 27q49 -2 89 -28t48 -83 q12 -96 -74 -186q-39 -41 -135 -111q-2 0 -6 -2q20 -18 53 -41l45 -31l49 -28q20 -14 25 -19q16 -10 21 -30.5t-6 -37t-31.5 -21.5t-36.5 7q-4 2 -27 17l-47 30q-25 14 -49 33q-45 33 -70 53l-6 7q-4 -70 -14 -150q-2 -20 -18.5 -32.5t-37 -10.5t-33 18.5t-10.5 36.5 q31 238 8 412q-14 20 -6 45q-6 49 -18 98zM459 1004q10 -78 12 -162l2 2q16 6 21 6q2 0 2 2q90 63 120 96q53 57 48 107q-2 23 -46 24q-51 2 -98 -18q-26 -10 -61 -57z" />
<glyph unicode="&#xaf;" horiz-adv-x="825" d="M-18 1378.5q2 20.5 17.5 33.5t35.5 11q117 -10 342 9q262 20 354 20q20 0 34.5 -14.5t14.5 -35t-14 -34.5t-35 -14q-88 0 -346 -21q-227 -18 -358 -8q-20 2 -33.5 17.5t-11.5 36z" />
<glyph unicode="&#xb0;" horiz-adv-x="501" d="M-49 1034q2 88 43 191q37 96 92 168q66 82 129 92q70 10 111 -15q10 -6 61 -57q12 -13 14 -31q45 -66 53.5 -145.5t-12 -150t-61.5 -130.5q-72 -106 -168 -141q-117 -43 -203 45q-61 61 -59 174zM49 1032q0 -70 31 -102q43 -43 100 -23q66 25 119 103q55 84 59 175 t-57 165q-8 10 -12 22q-8 10 -15 14q-10 6 -43 0q-27 -4 -67 -55q-47 -59 -80 -141q-33 -86 -35 -158z" />
<glyph unicode="&#xb1;" horiz-adv-x="860" d="M-29 677.5q-2 20.5 11.5 36t33.5 17.5q133 10 273 39q-20 141 -4 313q2 20 17 33.5t35.5 11.5t34 -17.5t11.5 -35.5q-14 -156 2 -282q121 31 272 81q20 6 39 -3t25 -28.5t-3 -38t-28 -24.5q-160 -53 -287 -84q35 -143 121 -260q115 16 242 17q20 0 34.5 -14.5t14.5 -35 t-14.5 -35t-34.5 -14.5q-123 0 -244 -20.5t-191.5 -41t-238.5 -73.5q-18 -6 -36.5 3t-24.5 28.5t3 38t29 24.5q250 80 355 103q-76 119 -111 258q-143 -31 -282 -41q-20 -2 -36 11t-18 33.5z" />
<glyph unicode="&#xb2;" horiz-adv-x="698" d="M115 1198.5q-2 20.5 12 34.5q31 35 96.5 85t130.5 83q90 45 158 43q96 -4 133 -94q31 -74 -37 -205q-47 -92 -145 -219q-55 -72 -154 -187l-24 -28q39 -4 96 -6h88q37 0 77 1t48 1q20 0 34.5 -14.5t14.5 -35t-14.5 -35t-34.5 -14.5q-8 0 -49 -1t-76 -1h-90q-80 2 -127 8 q-31 4 -49 13q-43 16 -49 51q0 8 1 14t1 10l2 5l4 8q2 4 6 8q6 8 16 20l52 60q90 104 149 182q90 119 135 205q47 90 35 121q-14 33 -47 35q-41 0 -109 -33q-59 -29 -116.5 -74t-81.5 -72q-14 -14 -35 -16t-35 12.5t-16 35z" />
<glyph unicode="&#xb3;" horiz-adv-x="643" d="M9 439.5q-5 19.5 5.5 38t30.5 22.5q172 47 311 137q170 113 129 213q-16 39 -110 49q-27 4 -82 6h-31q-10 2 -16 4q-18 4 -29 17q-27 27 -8 61q6 8 16 19q6 6 27 18q45 33 61 47q96 84 119 107q63 68 70 106q4 29 -8 35q-23 12 -80 2q-53 -8 -112.5 -30.5t-86.5 -41.5 q-16 -10 -35.5 -7t-31 20.5t-8 37t21.5 31.5q35 25 104.5 51.5t132.5 36.5q86 12 138 -12q78 -37 63 -135q-10 -72 -98 -162q-27 -29 -123 -113h6q154 -18 190 -110q74 -174 -165 -332q-154 -100 -340 -149q-18 -6 -37 4t-24 29.5z" />
<glyph unicode="&#xb4;" horiz-adv-x="354" d="M55 1143q0 178 162 407q12 16 32.5 19.5t37 -8t19.5 -32t-7 -36.5q-145 -205 -145 -350q0 -20 -14.5 -34.5t-35 -14.5t-35 14t-14.5 35z" />
<glyph unicode="&#xb5;" horiz-adv-x="796" d="M6 -104q100 485 100 1085q0 20 14.5 34.5t35 14.5t35 -14.5t14.5 -34.5q0 -340 -31 -641q2 -6 2 -12q8 -86 47 -145.5t90 -78.5q45 -18 93.5 4.5t87.5 98.5q2 2 2 4l6 12q59 125 63 350q2 35 2 119t2 147.5t9 118.5q2 20 18 33t36.5 10.5t33 -18.5t10.5 -37 q-6 -51 -8 -110.5t-2 -141.5t-2 -123q-4 -240 -68 -378q55 -61 129 -93q18 -8 26.5 -26.5t0 -37t-26.5 -26.5t-37 0q-84 35 -143 94q-55 -72 -126 -96t-140 4q-80 29 -134 109q-18 -125 -45 -246q-4 -20 -20.5 -31.5t-36.5 -6.5t-31.5 21.5t-5.5 37.5z" />
<glyph unicode="&#xb6;" horiz-adv-x="854" d="M111 1268q37 106 134 149t216 33q174 -16 293 -115q2 43 2 84q0 20 14 34.5t34.5 14.5t35 -14.5t14.5 -34.5q0 -94 -14 -254q-16 -182 -19 -247q-6 -143 -15 -442.5t-15 -455.5q0 -20 -15.5 -33.5t-36 -13.5t-34 15.5t-13.5 36.5q6 150 19 522q-106 35 -183 69 q-20 -319 -77 -624q-4 -20 -21.5 -31.5t-37 -8.5t-31 20.5t-9.5 35.5q61 324 82 660q-182 109 -276 286q-94 176 -47 314zM205 1235q-33 -96 39 -236q69 -133 196 -219q12 322 -20 572v2q-82 0 -138.5 -30t-76.5 -89zM520 1339q33 -270 17 -616q74 -37 176 -74q6 158 10 273 q2 74 18 252l2 28q-4 4 -8 10q-27 41 -85 76t-130 51z" />
<glyph unicode="&#xb7;" horiz-adv-x="229" d="M84 841.5q0 20.5 14.5 35t35 14.5t34.5 -14.5t14 -35t-14 -34.5t-34.5 -14t-35 14t-14.5 34.5z" />
<glyph unicode="&#xb8;" horiz-adv-x="227" d="M-75 -197.5q3 19.5 22 31.5q143 96 139 254q0 20 13.5 35.5t34 15.5t35.5 -13.5t15 -33.5q6 -213 -184 -340q-16 -10 -35.5 -7t-31 20.5t-8.5 37z" />
<glyph unicode="&#xb9;" horiz-adv-x="626" d="M132 1269.5q-7 18.5 1.5 38t26.5 25.5q8 4 35 19q45 25 59 30q37 20 63 29q43 14 74 6q37 -10 53 -63q8 -29 13 -78q6 -80 2 -213q-6 -150 -25 -356h103q20 0 34.5 -14.5t14.5 -35t-14.5 -35t-34.5 -14.5q-274 0 -353 6q-20 2 -33.5 17.5t-11.5 36t17.5 34t36.5 11.5 q63 -6 141 -6q20 211 26 358q4 129 -2 203q-2 31 -6 51l-4 -2q-18 -6 -51 -23l-55 -28q-33 -18 -45 -23q-18 -8 -38 0t-27 26.5z" />
<glyph unicode="&#xba;" horiz-adv-x="677" d="M99 904q3 75 20 155q29 111 88 215q59 106 121 160q16 14 36.5 12t32.5 -16q11 -13 13 -27q113 -27 168 -123t57 -217q2 -119 -45 -228.5t-135 -162.5q-115 -68 -211 -21q-74 37 -111 107.5t-34 145.5zM215 1034q-57 -229 74 -293q47 -25 117 17q59 35 96 120t35 183 q-2 100 -44 167.5t-116 80.5q-13 2 -23 10q-98 -121 -139 -285z" />
<glyph unicode="&#xbb;" horiz-adv-x="757" d="M-6 202.5q-2 20.5 12 35.5q16 18 88 84q76 70 113 106q61 61 90 104q20 29 25 46l-5 6q-10 12 -30 32l-92 99q-150 154 -179 205q-10 18 -5 37.5t23.5 29.5t38 5t29.5 -23q20 -37 162 -185l96 -100l33 -39q18 -23 23 -39q14 -53 -37 -129q-35 -51 -103 -119 q-37 -37 -116 -108q-63 -59 -80 -78q-14 -14 -34.5 -16t-35 12t-16.5 34.5zM211 182.5q2 20.5 18 32.5q145 115 248 217q78 78 113 133q12 20 19 34.5t7 21.5v4q-25 49 -131 151l-161 150q-16 12 -16.5 32.5t13 36t34 15t34.5 -14.5l164 -149q119 -113 149 -176 q33 -63 -30 -158q-41 -66 -125 -150q-106 -106 -256 -225q-16 -12 -37 -10t-33 18.5t-10 37z" />
<glyph unicode="&#xbc;" horiz-adv-x="1570" d="M16 1226.5q2 20.5 19 35.5l92 77l57 45q14 10 23 15q6 6 12 8l12 4q20 2 37 -8q51 -33 76 -148q16 -80 23 -208q6 -141 0 -347q66 8 114 9q20 0 34.5 -14.5t14.5 -35t-14 -35t-35 -14.5q-47 0 -159 -14q-111 -14 -172 -10q-20 2 -34 16t-13 34.5t16 34t35 13.5 q47 -2 112 4q8 211 2 352q-4 123 -20 197q-8 35 -17 59l-41 -32l-94 -80q-14 -12 -34.5 -10t-34 17t-11.5 35.5zM150 -45.5q0 20.5 12 35.5q180 197 353 436.5t378 550.5l317 471q12 16 33 19t37 -8t19 -31.5t-7 -36.5q-111 -154 -316.5 -467.5t-382.5 -557t-357 -442.5 q-14 -16 -35 -16t-36 13t-15 33.5zM899 328q-8 49 43 84l19 10l9 6t5 4q207 209 278 363q1 22 17 36q10 16 27.5 22.5t33.5 -1.5q18 -8 26.5 -26.5t0.5 -37.5l-6 -14q8 -170 8 -412h2q96 6 119 5q20 -2 33.5 -17.5t11.5 -36t-17.5 -34t-35.5 -11.5q-16 2 -105 -4h-8v-110 v-111q0 -20 -14.5 -34.5t-35 -14.5t-34.5 14.5t-14 34.5v109v106q-39 0 -70 -2q-111 -2 -172 4q-41 4 -66 12q-47 16 -55 56zM1038 356q53 -4 150 -2q33 2 74 2q0 143 -2 254q-74 -104 -216 -248z" />
<glyph unicode="&#xbd;" horiz-adv-x="1310" d="M11.5 1166.5q3.5 19.5 19.5 31.5q10 6 112 84l64 49l22 17q4 4 9 6l8 4q2 2 6 2q14 4 27 0q12 -2 20 -9.5t10 -13.5l2 -6q2 -4 4 -10v-8q2 -6 2 -17q0 -18 2 -51v-168v-123v-127v-116q41 4 78 8q20 2 36 -11.5t18 -34t-11.5 -35.5t-33.5 -17q-98 -10 -287 -41 q-20 -2 -36.5 9t-20 31.5t8 37t31.5 20.5l119 18v164v217v142l-18 -15l-115 -88q-18 -10 -37.5 -7t-31 20.5t-8 37zM248 88q176 502 594 1065q35 47 127 152q88 100 123 145q12 16 32.5 18t37 -10t18.5 -32.5t-11 -36.5q-37 -45 -129 -150q-82 -94 -120 -143 q-408 -553 -578 -1041q-8 -18 -25.5 -27.5t-37 -2t-28.5 25t-3 37.5zM775 589q-5 20 7 38q35 53 100.5 96t131.5 53q84 14 137 -28q61 -49 61 -154q0 -113 -120 -279q-33 -47 -99 -125q-61 -74 -75 -92q37 0 88 8l120 21q70 14 84 16q20 2 37 -10t19 -32.5t-10.5 -37 t-32.5 -18.5q-10 0 -78 -14q-76 -14 -125 -21q-76 -12 -123 -12q-33 0 -53 6q-39 10 -53 37q-25 45 20 88q6 6 10 9t6 5l2 4h5q16 25 84 107q61 72 94 119q102 139 102 221q0 57 -24 76q-18 16 -60 10q-47 -8 -95 -39t-71 -68q-10 -16 -29.5 -21t-37 6t-22.5 31z" />
<glyph unicode="&#xbe;" horiz-adv-x="1558" d="M88 1239.5q0 20.5 14 34.5q66 68 154 123q61 39 106 49q80 18 119 -37q55 -80 -20 -188q-10 -14 -23 -29q39 -4 70 -23q49 -31 67.5 -85t-2.5 -121q-29 -94 -180 -195q-90 -61 -219 -121q-18 -8 -37.5 -1t-28 25.5t-1 38t25.5 27.5q123 55 207 113q121 80 139 141 q20 68 -22 94q-47 27 -111 -10q-8 -4 -27 -20q-27 -23 -40 -33q-4 -2 -7.5 -4t-7.5 -4q-12 -4 -24 -2q-23 2 -35 18q-10 16 -8 35q2 12 6 20q4 4 8 11l25 24q45 43 53 54l45 47q31 33 47 57q35 51 18 74q-4 2 -14 0q-31 -8 -76 -37q-78 -49 -137 -111q-14 -14 -34.5 -14 t-35 14.5t-14.5 35zM192.5 20.5q2.5 20.5 18.5 32.5q125 98 240.5 219t229.5 275.5t187 265.5l191 293q16 27 53 82l55 86q20 31 45 77t43 87q8 18 26.5 26.5t37 0t27 -27t0.5 -36.5q-18 -45 -46 -96.5t-49 -83.5l-59 -91l-51 -77l-150 -232q-55 -86 -152.5 -223 t-175 -231.5t-182 -202t-209.5 -189.5q-16 -12 -36.5 -10t-33 18.5t-10 37zM891 369q2 10 8 16t14 12q2 2 29 25q53 41 98 84q150 147 279 342q2 31 29 43q29 31 63 8q16 -10 21.5 -30.5t-7.5 -37.5l-6 -10q6 -139 -4 -358l-4 -55h51q20 0 34.5 -14.5t14.5 -35t-14 -35 t-35 -14.5h-28h-29q-6 -133 -6 -223q0 -20 -14.5 -34.5t-35 -14.5t-35 14.5t-14.5 34.5q0 90 7 223q-168 0 -289 -6q-4 0 -7 -1t-10.5 -3t-19.5 -4q-55 -12 -84 24q-18 23 -6 50zM1075 403q101 5 238 5l4 61q6 129 6 213q-100 -135 -213 -246z" />
<glyph unicode="&#xbf;" horiz-adv-x="788" d="M18 98q-4 47 7 105q8 43 29.5 91t39.5 79l51 82q33 51 43 65l41 70l37 65q23 37 37 66t30.5 65.5t26 67.5t18.5 67.5t12 70.5t3 71t-6 76q-2 18 10.5 34.5t32 19.5t35.5 -9.5t20 -32.5q6 -43 6.5 -87t-3 -83t-14.5 -81t-21.5 -75.5t-28.5 -75.5t-32.5 -72t-39.5 -71 l-41 -69l-41 -70q-12 -20 -43.5 -68.5t-47 -75t-33 -65.5t-23.5 -72q-10 -47 -6 -80q2 -39 18 -53q117 -109 271 -12q109 68 251 248q12 16 33 18t37 -10t18 -33t-10 -37q-156 -195 -276 -270q-219 -135 -389 23q-45 43 -52 118zM375 1349.5q0 20.5 14 35t34.5 14.5 t35 -14.5t14.5 -35t-14.5 -35t-35 -14.5t-34.5 14.5t-14 35z" />
<glyph unicode="&#xc0;" horiz-adv-x="1064" d="M86 298q-6 19 3 37.5t30 24.5l84 27l127 444q104 369 153 568q-2 27 17 43q20 23 49 14q18 -4 28.5 -20.5t8.5 -34.5q51 -166 139 -475l111 -394q61 10 135 17q20 2 35.5 -11.5t17.5 -34t-11.5 -35.5t-33.5 -17q-57 -4 -115 -13q68 -223 133 -401q6 -18 -2 -36.5 t-27.5 -26t-38 1t-26.5 28.5q-66 184 -137 420q-209 -37 -481 -117q-45 -164 -78 -303q-4 -20 -21.5 -31.5t-37 -6.5t-31 22.5t-4.5 36.5q26 116 61 249l-27 -8q-18 -6 -36.5 3.5t-24.5 28.5zM313 418q236 68 426 100l-200 699l-121 -431zM324 1646.5q-2 20.5 11 36t34 17.5 t37 -12q119 -104 270 -148q18 -6 28.5 -23.5t4 -37t-23.5 -29.5t-38 -4q-170 51 -307 168q-14 12 -16 32.5z" />
<glyph unicode="&#xc1;" horiz-adv-x="1064" d="M86 298q-6 19 3 37.5t30 24.5l84 27l127 444q104 369 153 568q-2 27 17 43q20 23 49 14q18 -4 28.5 -20.5t8.5 -34.5q51 -166 139 -475l111 -394q61 10 135 17q20 2 35.5 -11.5t17.5 -34t-11.5 -35.5t-33.5 -17q-57 -4 -115 -13q68 -223 133 -401q6 -18 -2 -36.5 t-27.5 -26t-38 1t-26.5 28.5q-66 184 -137 420q-209 -37 -481 -117q-45 -164 -78 -303q-4 -20 -21.5 -31.5t-37 -6.5t-31 22.5t-4.5 36.5q26 116 61 249l-27 -8q-18 -6 -36.5 3.5t-24.5 28.5zM313 418q236 68 426 100l-200 699l-121 -431zM357 1508.5q-3 19.5 8.5 37 t29.5 21.5q68 12 166 71q8 6 74.5 48.5t99.5 58.5q18 10 38 4t29 -24.5t3 -38t-25 -27.5q-33 -18 -94 -57l-74 -48q-115 -70 -196 -86q-20 -2 -38 9.5t-21 31z" />
<glyph unicode="&#xc2;" horiz-adv-x="1064" d="M86 298q-6 19 3 37.5t30 24.5l84 27l127 444q104 369 153 568q-2 27 17 43q20 23 49 14q18 -4 28.5 -20.5t8.5 -34.5q51 -166 139 -475l111 -394q61 10 135 17q20 2 35.5 -11.5t17.5 -34t-11.5 -35.5t-33.5 -17q-57 -4 -115 -13q68 -223 133 -401q6 -18 -2 -36.5 t-27.5 -26t-38 1t-26.5 28.5q-66 184 -137 420q-209 -37 -481 -117q-45 -164 -78 -303q-4 -20 -21.5 -31.5t-37 -6.5t-31 22.5t-4.5 36.5q26 116 61 249l-27 -8q-18 -6 -36.5 3.5t-24.5 28.5zM279 1501.5q0 20.5 14 34.5l102 102l62 60l22 20l6 6l4 5q2 2 5 2l8 4q2 2 4 2 t11 2t18 -2q14 -4 30 -21l21 -20l45 -58l71 -98q10 -16 7.5 -36.5t-19 -32t-37 -8.5t-32.5 20l-70 96l-33 41l-53 -53l-103 -101q-14 -14 -34.5 -14t-34.5 14.5t-14 35zM313 418q236 68 426 100l-200 699l-121 -431z" />
<glyph unicode="&#xc3;" horiz-adv-x="1064" d="M86 298q-6 19 3 37.5t30 24.5l84 27l127 444q104 369 153 568q-2 27 17 43q20 23 49 14q18 -4 28.5 -20.5t8.5 -34.5q51 -166 139 -475l111 -394q61 10 135 17q20 2 35.5 -11.5t17.5 -34t-11.5 -35.5t-33.5 -17q-57 -4 -115 -13q68 -223 133 -401q6 -18 -2 -36.5 t-27.5 -26t-38 1t-26.5 28.5q-66 184 -137 420q-209 -37 -481 -117q-45 -164 -78 -303q-4 -20 -21.5 -31.5t-37 -6.5t-31 22.5t-4.5 36.5q26 116 61 249l-27 -8q-18 -6 -36.5 3.5t-24.5 28.5zM278 1522q-3 21 9 37q98 127 172 147q72 18 133 -49q10 -10 32.5 -38t37.5 -38 q29 -23 67 -6q10 4 27 24q35 45 43 54q16 14 36.5 14t34 -15.5t13.5 -36t-15 -32.5q-4 -4 -35.5 -44t-66.5 -54q-90 -39 -164 16q-14 12 -30.5 29.5t-32 36t-19.5 22.5q-23 25 -37 21q-41 -10 -118 -113q-12 -14 -33 -17t-36 9t-18 33zM313 418q236 68 426 100l-200 699 l-121 -431z" />
<glyph unicode="&#xc4;" horiz-adv-x="1064" d="M86 298q-6 19 3 37.5t30 24.5l84 27l127 444q104 369 153 568q-2 27 17 43q20 23 49 14q18 -4 28.5 -20.5t8.5 -34.5q51 -166 139 -475l111 -394q61 10 135 17q20 2 35.5 -11.5t17.5 -34t-11.5 -35.5t-33.5 -17q-57 -4 -115 -13q68 -223 133 -401q6 -18 -2 -36.5 t-27.5 -26t-38 1t-26.5 28.5q-66 184 -137 420q-209 -37 -481 -117q-45 -164 -78 -303q-4 -20 -21.5 -31.5t-37 -6.5t-31 22.5t-4.5 36.5q26 116 61 249l-27 -8q-18 -6 -36.5 3.5t-24.5 28.5zM313 418q236 68 426 100l-200 699l-121 -431zM408 1595.5q0 20.5 14 35 t34.5 14.5t35 -14.5t14.5 -35t-14.5 -35t-35 -14.5t-34.5 14.5t-14 35zM612 1595.5q0 20.5 14.5 35t35 14.5t35 -14.5t14.5 -35t-14.5 -35t-35 -14.5t-35 14.5t-14.5 35z" />
<glyph unicode="&#xc5;" horiz-adv-x="1064" d="M86 298q-6 19 3 37.5t30 24.5l84 27l127 444q104 369 153 568q-2 27 17 43q20 23 49 14q18 -4 28.5 -20.5t8.5 -34.5q51 -166 139 -475l111 -394q61 10 135 17q20 2 35.5 -11.5t17.5 -34t-11.5 -35.5t-33.5 -17q-57 -4 -115 -13q68 -223 133 -401q6 -18 -2 -36.5 t-27.5 -26t-38 1t-26.5 28.5q-66 184 -137 420q-209 -37 -481 -117q-45 -164 -78 -303q-4 -20 -21.5 -31.5t-37 -6.5t-31 22.5t-4.5 36.5q26 116 61 249l-27 -8q-18 -6 -36.5 3.5t-24.5 28.5zM313 418q236 68 426 100l-200 699l-121 -431zM315 1571q2 33 31 59q18 18 51 37 q51 29 123 49q39 12 72 17q6 2 14 2h6h21q4 0 8 -2q82 -6 107 -56q33 -59 -35 -123q-47 -45 -127 -71q-80 -25 -156 -8q-49 8 -76 26q-41 27 -39 70zM434 1573q6 -2 17 -4q51 -10 106 8t88 49q4 2 6 6q-14 4 -37 4q-27 -2 -67 -14q-59 -18 -103 -41q-6 -4 -10 -8z" />
<glyph unicode="&#xc6;" horiz-adv-x="1527" d="M113 25q39 170 96 381q-18 0 -31.5 10t-17.5 26q-6 20 5 38t30 22l43 10l79 274l95 340l71 273q-2 27 17 43q20 23 49 14q10 -2 18 -10q84 -6 175.5 3t204 25.5t183.5 22.5q20 2 36 -11t18 -33.5t-11.5 -36t-33.5 -17.5q-31 -2 -229.5 -29t-307.5 -22q8 -25 203 -707 q272 49 493 49q20 0 35 -14t15 -34.5t-14.5 -35t-35.5 -14.5q-209 0 -464 -45q78 -266 145 -463q166 66 459 66q20 0 34.5 -14.5t14.5 -35t-14.5 -35t-34.5 -14.5q-299 0 -453 -71q-6 -2 -14 -5q-2 0 -4 -2q-18 -6 -37 2.5t-27 28.5q-78 219 -168 524q-135 -29 -418 -96 q-68 -244 -110 -428q-4 -20 -21.5 -31.5t-37 -6.5t-31 22.5t-4.5 36.5zM348 541q227 55 361 82l-170 594z" />
<glyph unicode="&#xc7;" horiz-adv-x="1075" d="M121 334q-61 231 4 465.5t221 439.5q113 145 221 199q166 78 299 -62q14 -16 14.5 -36.5t-15 -34t-36 -13t-32.5 14.5q-86 90 -187 41q-88 -41 -186 -170q-143 -188 -202.5 -401.5t-6.5 -418.5q31 -113 94.5 -171t144.5 -66t169 33q84 41 155 127q158 193 217 348 q6 20 24.5 28.5t38 1t28 -26t-0.5 -36.5q-66 -176 -229 -377q-78 -92 -174 -144t-197 -55q-74 -180 -237 -305q-16 -12 -37 -9t-33 18.5t-9 36t17 32.5q133 100 199 240q-94 27 -163.5 103.5t-100.5 197.5z" />
<glyph unicode="&#xc8;" horiz-adv-x="966" d="M63 1331q-2 18 9.5 36t31.5 22q305 57 648 20q18 -2 31.5 -18.5t11.5 -36t-18.5 -32.5t-37.5 -11q-309 31 -573 -13q6 -119 10 -241q193 27 483 10q20 -2 35 -16.5t13 -35t-16.5 -34.5t-35.5 -12q-289 16 -477 -11q8 -426 -6 -860q352 66 711 -10q20 -4 31.5 -20.5t6 -37 t-21.5 -31.5t-37 -5q-360 74 -721 -2q-10 -4 -22 -4q-18 -2 -33.5 9t-17.5 30q-4 18 4 34q25 643 -4 1256v2zM128.5 1606.5q-5.5 19.5 5.5 37t31 22.5t38 -7q133 -84 295 -105q20 -2 32.5 -18t10.5 -36.5t-18.5 -33t-37.5 -10.5q-182 23 -335 121q-16 10 -21.5 29.5z" />
<glyph unicode="&#xc9;" horiz-adv-x="966" d="M63 1331q-2 18 9.5 36t31.5 22q305 57 648 20q18 -2 31.5 -18.5t11.5 -36t-18.5 -32.5t-37.5 -11q-309 31 -573 -13q6 -119 10 -241q193 27 483 10q20 -2 35 -16.5t13 -35t-16.5 -34.5t-35.5 -12q-289 16 -477 -11q8 -426 -6 -860q352 66 711 -10q20 -4 31.5 -20.5t6 -37 t-21.5 -31.5t-37 -5q-360 74 -721 -2q-10 -4 -22 -4q-18 -2 -33.5 9t-17.5 30q-4 18 4 34q25 643 -4 1256v2zM220 1489.5q-7 19.5 1.5 38t28.5 26.5q57 20 149 72q127 70 160 86q18 8 37.5 1t28 -25.5t1 -38t-25.5 -27.5q-20 -10 -151 -82q-100 -55 -166 -80q-18 -6 -37 2 t-26 27.5z" />
<glyph unicode="&#xca;" horiz-adv-x="966" d="M63 1331q-2 18 9.5 36t31.5 22q305 57 648 20q18 -2 31.5 -18.5t11.5 -36t-18.5 -32.5t-37.5 -11q-309 31 -573 -13q6 -119 10 -241q193 27 483 10q20 -2 35 -16.5t13 -35t-16.5 -34.5t-35.5 -12q-289 16 -477 -11q8 -426 -6 -860q352 66 711 -10q20 -4 31.5 -20.5t6 -37 t-21.5 -31.5t-37 -5q-360 74 -721 -2q-10 -4 -22 -4q-18 -2 -33.5 9t-17.5 30q-4 18 4 34q25 643 -4 1256v2zM132 1495.5q-5 20.5 7 36.5q41 66 103 145q41 55 71 86q18 20 35 33q27 20 53 19q23 -2 45 -23q12 -12 29 -31q27 -31 66 -84l102 -149q10 -16 7 -35.5t-20.5 -31 t-37 -8.5t-31.5 22l-100 145l-60 78l-8 8l-8 -10q-27 -27 -66 -78q-57 -76 -98 -139q-10 -16 -30.5 -21.5t-37 6t-21.5 32z" />
<glyph unicode="&#xcb;" horiz-adv-x="966" d="M63 1331q-2 18 9.5 36t31.5 22q305 57 648 20q18 -2 31.5 -18.5t11.5 -36t-18.5 -32.5t-37.5 -11q-309 31 -573 -13q6 -119 10 -241q193 27 483 10q20 -2 35 -16.5t13 -35t-16.5 -34.5t-35.5 -12q-289 16 -477 -11q8 -426 -6 -860q352 66 711 -10q20 -4 31.5 -20.5t6 -37 t-21.5 -31.5t-37 -5q-360 74 -721 -2q-10 -4 -22 -4q-18 -2 -33.5 9t-17.5 30q-4 18 4 34q25 643 -4 1256v2zM229 1601.5q0 20.5 14.5 35t35 14.5t35 -14.5t14.5 -35t-14.5 -35t-35 -14.5t-35 14.5t-14.5 35zM479 1603.5q0 20.5 14.5 35t35 14.5t35 -14.5t14.5 -35 t-14.5 -35t-35 -14.5t-35 14.5t-14.5 35z" />
<glyph unicode="&#xcc;" horiz-adv-x="462" d="M-43 1680.5q0 19.5 14.5 35t34 15t35.5 -14.5q63 -61 142 -92t192 -47q18 -4 30.5 -20.5t9.5 -36t-19.5 -31.5t-37.5 -10q-121 18 -214 55t-173 113q-14 14 -14 33.5zM94 1405q-2 20 10.5 36.5t33 18.5t37 -10.5t18.5 -32.5q39 -311 45 -701t-9 -700q0 -20 -15 -33.5 t-35.5 -13.5t-34 15.5t-13.5 35.5q14 309 8 694.5t-45 690.5z" />
<glyph unicode="&#xcd;" horiz-adv-x="497" d="M58.5 1603.5q5.5 20.5 23.5 30.5q186 109 305 154q20 8 38.5 0t26 -27.5t-1 -38t-26.5 -24.5q-113 -43 -293 -150q-16 -10 -36.5 -5t-31 22.5t-5 38zM98 1405q-2 20 10.5 36.5t33 18.5t37 -10.5t18.5 -32.5q39 -311 45 -701t-9 -700q0 -20 -15 -33.5t-35.5 -13.5 t-34 15.5t-13.5 35.5q14 309 8 694.5t-45 690.5z" />
<glyph unicode="&#xce;" horiz-adv-x="421" d="M-100 1556.5q0 20.5 14 36.5l45 49l45 48l29 30q57 55 106 54q45 -2 103 -60l53 -59l65 -72q14 -14 14.5 -34.5t-15 -34t-36 -13.5t-32.5 17q-27 27 -66 69.5t-53 57t-23.5 21.5t-11.5 9h-2q-4 2 -33 -26q-14 -12 -30 -31l-43 -45l-45 -49q-12 -14 -33 -14.5t-36 13 t-15 34zM94 1405q-2 20 10.5 36.5t33 18.5t37 -10.5t18.5 -32.5q39 -311 45 -701t-9 -700q0 -20 -15 -33.5t-35.5 -13.5t-34 15.5t-13.5 35.5q14 309 8 694.5t-45 690.5z" />
<glyph unicode="&#xcf;" horiz-adv-x="387" d="M-6 1607.5q0 20.5 14.5 35t34.5 14.5t34.5 -14.5t14.5 -35t-14.5 -34.5t-34.5 -14t-34.5 14t-14.5 34.5zM94 1405q-2 20 10.5 36.5t33 18.5t37 -10.5t18.5 -32.5q39 -311 45 -701t-9 -700q0 -20 -15 -33.5t-35.5 -13.5t-34 15.5t-13.5 35.5q14 309 8 694.5t-45 690.5z M242 1619.5q0 20.5 14 35t34.5 14.5t35 -14.5t14.5 -35t-14.5 -34.5t-35 -14t-34.5 14t-14 34.5z" />
<glyph unicode="&#xd0;" horiz-adv-x="1058" d="M-172 855q-6 19 4 36.5t31 23.5q113 31 270 50q4 252 2 413q0 20 14.5 34.5t35 14.5t34.5 -14t14 -35q2 -63 3 -137q70 78 133 119q80 51 170 74q92 20 180 6q96 -14 170 -72.5t106 -161.5q31 -90 22 -208.5t-45 -237.5t-95 -240q-88 -184 -210 -329.5t-247 -204.5 q-49 -23 -114.5 -27t-106.5 0q-27 0 -41 25q-12 12 -15 30q-20 264 -14 684q0 55 2 168q-141 -18 -244 -45q-18 -6 -35.5 4.5t-23.5 29.5zM227 696q-5 -393 13 -641q94 -2 139 21q104 49 215 181t194.5 306t115.5 336t-3 279q-45 141 -196 165q-147 23 -283 -65l-27 -21 q-14 -10 -30 -24l-27 -25q-8 -8 -26.5 -28.5t-24.5 -26.5t-27.5 -31.5t-26.5 -29.5q0 -51 -2 -117q236 16 365 -21q18 -6 28.5 -23.5t4.5 -37t-23.5 -29.5t-38.5 -4q-113 33 -338 17q-2 -125 -2 -181z" />
<glyph unicode="&#xd1;" horiz-adv-x="1269" d="M96 1241v29v10v8q2 4 2 8q6 18 26.5 27.5t41.5 3.5q18 -4 31 -22q8 -12 12 -35l4 -23v-6q27 -70 31 -76q16 -47 51 -130t45 -111l51 -129q12 -31 51 -121t62 -133l63 -115q41 -76 77 -119t84 -92t99 -84q59 -39 103 -31q37 6 69 47q63 78 95 234q51 258 20 514 q-29 258 -131 500q-8 18 -1 36.5t26.5 26.5t38 1t26.5 -27q109 -254 139.5 -525.5t-20.5 -546.5q-37 -180 -115 -274q-57 -70 -131 -82q-82 -16 -172 45q-66 43 -123 99.5t-106 130t-86 135t-78 151.5l-62 144l-57 143q-8 25 -12 35l-49 119q16 -657 16 -957 q0 -20 -14.5 -34.5t-35 -14.5t-34.5 14.5t-14 34.5q0 297 -17 967q0 4 -1 25.5t-2 54t-1 59.5q-2 55 -2 86zM204 1414.5q-3 19.5 9 35.5q96 131 170 168q74 39 143 -4q14 -8 30.5 -21.5t33 -29t22.5 -19.5q37 -29 70 -28q29 0 58.5 10t45.5 20l60 35l59 37q16 10 37 5 t31 -22.5t5 -38t-24 -30.5q-8 -4 -53 -33t-67.5 -40t-65.5 -25.5t-82 -16.5q-70 -2 -135 51l-39 33q-23 20 -35 29q-25 14 -51 0q-51 -27 -135 -137q-12 -16 -31.5 -19.5t-36 9t-19.5 32z" />
<glyph unicode="&#xd2;" horiz-adv-x="1101" d="M16 705q8 158 53.5 304t134.5 265t204 162q78 31 184 18q12 4 26 2q27 -6 54 -14l41 -6q23 -5 35 -25q98 -49 167.5 -140t101.5 -200.5t42 -233.5t-10 -239q-47 -297 -211 -475q-193 -205 -453 -135q-102 27 -178 98q-78 74 -120 174t-59.5 212t-11.5 233zM115 698 q-12 -236 63 -403q78 -172 232 -213q205 -53 356 108q143 156 184 424q23 121 10.5 239t-47 216t-103.5 172t-161 105q-51 8 -76.5 11t-62.5 1t-66 -12q-137 -53 -229 -236q-90 -182 -100 -412zM248 1722.5q0 20.5 13 36t33.5 15.5t37.5 -15q29 -27 68.5 -52.5t68.5 -39.5 l88 -37l84 -39q18 -8 25.5 -27.5t-1 -38t-28 -25.5t-37.5 1q-20 10 -80.5 36t-93.5 42t-81 46t-83 65q-14 12 -14 32.5z" />
<glyph unicode="&#xd3;" horiz-adv-x="1101" d="M16 705q8 158 53.5 304t134.5 265t204 162q78 31 184 18q12 4 26 2q27 -6 54 -14l41 -6q23 -5 35 -25q98 -49 167.5 -140t101.5 -200.5t42 -233.5t-10 -239q-47 -297 -211 -475q-193 -205 -453 -135q-102 27 -178 98q-78 74 -120 174t-59.5 212t-11.5 233zM115 698 q-12 -236 63 -403q78 -172 232 -213q205 -53 356 108q143 156 184 424q23 121 10.5 239t-47 216t-103.5 172t-161 105q-51 8 -76.5 11t-62.5 1t-66 -12q-137 -53 -229 -236q-90 -182 -100 -412zM331 1549.5q-7 19.5 1 38t26 24.5q12 6 168 73.5t242 88.5q20 6 37.5 -5.5 t23 -31t-6 -37t-29.5 -21.5q-82 -20 -224.5 -82.5t-173.5 -74.5q-20 -8 -38.5 0t-25.5 27.5z" />
<glyph unicode="&#xd4;" horiz-adv-x="1101" d="M16 705q8 158 53.5 304t134.5 265t204 162q78 31 184 18q12 4 26 2q27 -6 54 -14l41 -6q23 -5 35 -25q98 -49 167.5 -140t101.5 -200.5t42 -233.5t-10 -239q-47 -297 -211 -475q-193 -205 -453 -135q-102 27 -178 98q-78 74 -120 174t-59.5 212t-11.5 233zM115 698 q-12 -236 63 -403q78 -172 232 -213q205 -53 356 108q143 156 184 424q23 121 10.5 239t-47 216t-103.5 172t-161 105q-51 8 -76.5 11t-62.5 1t-66 -12q-137 -53 -229 -236q-90 -182 -100 -412zM264 1497.5q-2 20.5 12 36.5l123 147q61 70 107 86q66 20 135 -30 q53 -39 143 -148q14 -14 12.5 -34.5t-17 -34t-36 -11.5t-32.5 19q-84 98 -127 129q-31 23 -45 16q-23 -6 -66 -57l-123 -148q-12 -14 -32.5 -16t-36 11.5t-17.5 34z" />
<glyph unicode="&#xd5;" horiz-adv-x="1101" d="M16 705q8 158 53.5 304t134.5 265t204 162q78 31 184 18q12 4 26 2q27 -6 54 -14l41 -6q23 -5 35 -25q98 -49 167.5 -140t101.5 -200.5t42 -233.5t-10 -239q-47 -297 -211 -475q-193 -205 -453 -135q-102 27 -178 98q-78 74 -120 174t-59.5 212t-11.5 233zM115 698 q-12 -236 63 -403q78 -172 232 -213q205 -53 356 108q143 156 184 424q23 121 10.5 239t-47 216t-103.5 172t-161 105q-51 8 -76.5 11t-62.5 1t-66 -12q-137 -53 -229 -236q-90 -182 -100 -412zM225.5 1579.5q2.5 20.5 18.5 32.5q98 84 184 98q59 8 141 -18q4 -2 13 -4 q43 -14 68.5 -19.5t75.5 2.5t108 39q16 10 35.5 4t29.5 -23.5t4 -37t-24 -29.5q-57 -33 -107.5 -47t-98.5 -9t-68.5 10t-65.5 19q-59 20 -97 15q-57 -8 -137 -74q-14 -14 -34.5 -12t-34 17.5t-11 36z" />
<glyph unicode="&#xd6;" horiz-adv-x="1101" d="M16 705q8 158 53.5 304t134.5 265t204 162q78 31 184 18q12 4 26 2q27 -6 54 -14l41 -6q23 -5 35 -25q98 -49 167.5 -140t101.5 -200.5t42 -233.5t-10 -239q-47 -297 -211 -475q-193 -205 -453 -135q-102 27 -178 98q-78 74 -120 174t-59.5 212t-11.5 233zM115 698 q-12 -236 63 -403q78 -172 232 -213q205 -53 356 108q143 156 184 424q23 121 10.5 239t-47 216t-103.5 172t-161 105q-51 8 -76.5 11t-62.5 1t-66 -12q-137 -53 -229 -236q-90 -182 -100 -412zM373 1595.5q0 20.5 14 35t34.5 14.5t35 -14.5t14.5 -35t-14.5 -35t-35 -14.5 t-34.5 14.5t-14 35zM602 1595.5q0 20.5 14.5 35t35 14.5t34.5 -14.5t14 -35t-14 -35t-34.5 -14.5t-35 14.5t-14.5 35z" />
<glyph unicode="&#xd7;" horiz-adv-x="1038" d="M35 1137l69 69l412 -403l391 397l70 -70l-391 -397l407 -399l-69 -70l-408 400l-410 -416l-69 69l409 416z" />
<glyph unicode="&#xd8;" horiz-adv-x="1101" d="M16 705q8 158 53.5 304t134.5 265t204 162q78 31 184 18q12 4 26 2q27 -6 54 -14l41 -6q23 -5 35 -25q98 -49 167.5 -140t101.5 -200.5t42 -233.5t-10 -239q-47 -297 -211 -475q-193 -205 -453 -135q-102 27 -178 98q-78 74 -120 174t-59.5 212t-11.5 233zM115 698 q-8 -131 14 -245l760 671q-84 170 -240 222q-51 8 -76.5 11t-62.5 1t-66 -12q-137 -53 -228 -236.5t-101 -411.5zM158 346q78 -217 252 -264q205 -53 356 108q143 156 184 424q35 226 -22 414z" />
<glyph unicode="&#xd9;" horiz-adv-x="987" d="M49 1203q2 171 2 181q0 20 14.5 35t35 15t35 -15t14.5 -35q0 -14 -3.5 -179t-1.5 -294q4 -123 17 -249q47 -481 223 -596q96 -61 172 4q59 51 125 196q92 209 139 553q45 344 4 561q-2 18 9.5 36t31 21t37 -8.5t21.5 -31.5q43 -231 -5.5 -592t-146.5 -580 q-74 -164 -151 -231q-131 -113 -289 -10q-219 143 -269 667q-10 123 -13 252t-1 300zM162 1594.5q-6 19.5 3 38t28.5 24.5t37.5 -4l62 -31q47 -25 65.5 -35t58.5 -28.5t64.5 -28.5t59.5 -23l65 -22q20 -6 30.5 -23.5t4.5 -37t-23.5 -30t-35.5 -3.5q-37 10 -74 23t-64.5 24.5 t-68.5 32t-61.5 29.5t-66.5 34t-61 33q-18 8 -24 27.5z" />
<glyph unicode="&#xda;" horiz-adv-x="987" d="M49 1203q2 171 2 181q0 20 14.5 35t35 15t35 -15t14.5 -35q0 -14 -3.5 -179t-1.5 -294q4 -123 17 -249q47 -481 223 -596q96 -61 172 4q59 51 125 196q92 209 139 553q45 344 4 561q-2 18 9.5 36t31 21t37 -8.5t21.5 -31.5q43 -231 -5.5 -592t-146.5 -580 q-74 -164 -151 -231q-131 -113 -289 -10q-219 143 -269 667q-10 123 -13 252t-1 300zM264.5 1514.5q6.5 19.5 24.5 29.5q266 145 518 221q20 6 37.5 -4t23.5 -29.5t-4 -37t-28 -23.5q-244 -74 -502 -213q-16 -10 -35.5 -4t-30 23.5t-4 37z" />
<glyph unicode="&#xdb;" horiz-adv-x="987" d="M49 1203q2 171 2 181q0 20 14.5 35t35 15t35 -15t14.5 -35q0 -14 -3.5 -179t-1.5 -294q4 -123 17 -249q47 -481 223 -596q96 -61 172 4q59 51 125 196q92 209 139 553q45 344 4 561q-2 18 9.5 36t31 21t37 -8.5t21.5 -31.5q43 -231 -5.5 -592t-146.5 -580 q-74 -164 -151 -231q-131 -113 -289 -10q-219 143 -269 667q-10 123 -13 252t-1 300zM196 1559.5q3 19.5 19 31.5q53 41 133 115q66 59 98 68q57 14 119 -45q35 -37 127 -160q12 -16 9 -36t-19 -32t-35.5 -9t-32.5 19q-88 117 -118 148q-18 16 -27 20q-10 -4 -55 -45 q-90 -82 -142 -121q-16 -12 -35.5 -9t-31.5 19.5t-9 36z" />
<glyph unicode="&#xdc;" horiz-adv-x="987" d="M49 1203q2 171 2 181q0 20 14.5 35t35 15t35 -15t14.5 -35q0 -14 -3.5 -179t-1.5 -294q4 -123 17 -249q47 -481 223 -596q96 -61 172 4q59 51 125 196q92 209 139 553q45 344 4 561q-2 18 9.5 36t31 21t37 -8.5t21.5 -31.5q43 -231 -5.5 -592t-146.5 -580 q-74 -164 -151 -231q-131 -113 -289 -10q-219 143 -269 667q-10 123 -13 252t-1 300zM305 1576.5q0 20.5 14.5 35t35 14.5t34.5 -14.5t14 -35t-14 -34.5t-34.5 -14t-35 14t-14.5 34.5zM584 1579q0 20 14 34.5t34.5 14.5t35 -14.5t14.5 -34.5t-14.5 -34.5t-35 -14.5 t-34.5 14.5t-14 34.5z" />
<glyph unicode="&#xdd;" horiz-adv-x="1028" d="M135 1413q-6 18 3 36.5t28.5 25t38 -3t24.5 -29.5q86 -279 174 -469q125 -270 250 -361q195 389 236 805q2 20 17.5 33.5t36 11.5t33.5 -17t11 -36q-25 -256 -113 -518q-86 -264 -239.5 -511t-343.5 -400q-16 -12 -35.5 -10.5t-33 18t-11.5 36t18 33.5q213 170 377 467 q-152 102 -293 408q-90 193 -178 481zM462 1390.5q-5 20.5 5 36.5q41 70 101.5 129.5t106.5 92t130 84.5q18 12 37.5 7t31 -22.5t6 -37t-21.5 -29.5q-121 -76 -188.5 -132.5t-116.5 -140.5q-10 -18 -30.5 -23t-38 5t-22.5 30.5z" />
<glyph unicode="&#xde;" horiz-adv-x="845" d="M78 326.5q-2 275.5 11 618.5t13 515q0 20 14.5 34.5t35 14.5t35 -14t14.5 -35q0 -150 -6 -354q125 113 290 151q133 33 215 -14q104 -57 101 -211q-6 -199 -232 -506q-182 -250 -376 -415q-5 -5 -11 -7q8 -152 25 -286q2 -20 -10.5 -37t-33 -19t-36.5 10.5t-18 32.5 q-29 246 -31 521.5zM178 229q170 160 314 355q207 283 210 452q2 92 -49 121q-49 29 -145 6q-92 -23 -181 -81t-120 -111q-6 -10 -19 -19q-16 -494 -10 -723z" />
<glyph unicode="&#xdf;" horiz-adv-x="935" d="M-8 75.5q0 20.5 14.5 35t34.5 14.5q51 0 73.5 8t35.5 39q20 51 21 108.5t-13.5 156t-18.5 128.5q-31 328 8 539q27 145 68 217q78 137 221 117q25 -4 68 -29q35 -18 53 -35q225 -193 43 -602q-23 -47 -49 -96q76 14 131 -2q160 -49 199 -189q33 -123 -43 -252 q-45 -82 -121 -136t-177.5 -71.5t-211.5 31.5q-18 8 -25.5 27.5t0.5 38t27.5 26t38.5 -1.5q82 -37 155 -24q76 12 134.5 54t95.5 106q53 94 30 176q-23 88 -131 121q-37 10 -92 -1.5t-84 -37.5q-2 -2 -18 -29q-27 -43 -64 -51q-31 -8 -51 10q-18 16 -16 41q0 10 4 20 q6 12 20 31q8 6 15.5 15.5t12.5 14.5t7 9q78 111 123 211q154 342 -18 487q-10 8 -37 25q-25 14 -31 14q-78 12 -123 -65q-33 -57 -55 -187q-35 -199 -8 -514q2 -27 12 -94q10 -70 15 -117t0 -111.5t-25 -115.5q-27 -70 -90 -94q-39 -14 -109 -14q-20 0 -34.5 14t-14.5 34.5 z" />
<glyph unicode="&#xe0;" d="M49 281q37 133 176 262q137 127 277 162q74 18 133 2q-4 14 -6 26q-49 156 -133 182q-102 31 -277 -124q-14 -14 -34.5 -12.5t-35 16t-12 35t16.5 34.5q217 193 370 144q135 -41 199 -246q20 -74 35 -164v-2q39 -281 -2 -565q-4 -18 -20.5 -30.5t-36 -9.5t-32 19.5 t-10.5 36.5q4 29 9 62q-80 -53 -164 -84q-84 -29 -168 -37q-115 -10 -184 30q-76 45 -98.5 114t-2.5 149zM145 254q-29 -100 54 -150q43 -25 127 -18q72 6 143 33q104 37 205 119q8 181 -12 335q-39 61 -138 37q-113 -29 -231.5 -139.5t-147.5 -216.5zM213 1390.5 q2 20.5 17.5 34t36 11t32.5 -16.5q141 -164 170 -200q12 -16 10 -37t-18.5 -33t-37 -10t-32.5 18q-35 45 -166 197q-14 16 -12 36.5z" />
<glyph unicode="&#xe1;" d="M49 281q37 133 176 262q137 127 277 162q74 18 133 2q-4 14 -6 26q-49 156 -133 182q-102 31 -277 -124q-14 -14 -34.5 -12.5t-35 16t-12 35t16.5 34.5q217 193 370 144q135 -41 199 -246q20 -74 35 -164v-2q39 -281 -2 -565q-4 -18 -20.5 -30.5t-36 -9.5t-32 19.5 t-10.5 36.5q4 29 9 62q-80 -53 -164 -84q-84 -29 -168 -37q-115 -10 -184 30q-76 45 -98.5 114t-2.5 149zM145 254q-29 -100 54 -150q43 -25 127 -18q72 6 143 33q104 37 205 119q8 181 -12 335q-39 61 -138 37q-113 -29 -231.5 -139.5t-147.5 -216.5zM279 1139q-2 21 12 35 q113 125 227 206q16 12 36.5 9t32 -19t8.5 -36.5t-20 -30.5q-106 -78 -210 -195q-14 -14 -35 -16t-35 12t-16 35z" />
<glyph unicode="&#xe2;" d="M49 281q37 133 176 262q137 127 277 162q74 18 133 2q-4 14 -6 26q-49 156 -133 182q-102 31 -277 -124q-14 -14 -34.5 -12.5t-35 16t-12 35t16.5 34.5q217 193 370 144q135 -41 199 -246q20 -74 35 -164v-2q39 -281 -2 -565q-4 -18 -20.5 -30.5t-36 -9.5t-32 19.5 t-10.5 36.5q4 29 9 62q-80 -53 -164 -84q-84 -29 -168 -37q-115 -10 -184 30q-76 45 -98.5 114t-2.5 149zM108.5 1157.5q2.5 20.5 16.5 32.5q63 55 139 141q63 74 98 86q59 23 132 -39q41 -37 157 -168q14 -16 12.5 -35.5t-17 -34t-35 -12.5t-33.5 17q-113 127 -148 158 q-25 20 -33 22q-12 -4 -59 -59q-80 -90 -148 -150q-16 -14 -36.5 -12t-34 17.5t-11 36zM145 254q-29 -100 54 -150q43 -25 127 -18q72 6 143 33q104 37 205 119q8 181 -12 335q-39 61 -138 37q-113 -29 -231.5 -139.5t-147.5 -216.5z" />
<glyph unicode="&#xe3;" d="M49 281q37 133 176 262q137 127 277 162q74 18 133 2q-4 14 -6 26q-49 156 -133 182q-102 31 -277 -124q-14 -14 -34.5 -12.5t-35 16t-12 35t16.5 34.5q217 193 370 144q135 -41 199 -246q20 -74 35 -164v-2q39 -281 -2 -565q-4 -18 -20.5 -30.5t-36 -9.5t-32 19.5 t-10.5 36.5q4 29 9 62q-80 -53 -164 -84q-84 -29 -168 -37q-115 -10 -184 30q-76 45 -98.5 114t-2.5 149zM128 1202.5q-1 20.5 11 34.5q98 109 158 129q37 14 72 2q25 -8 47 -35q12 -16 26.5 -37.5t20.5 -28.5t20.5 -12.5t34.5 -1.5q16 2 35.5 12.5t32 19.5t39.5 32l39 33 q16 12 36.5 10t32.5 -18.5t10 -37t-18 -32.5q-4 -2 -33.5 -27.5t-48 -39t-51.5 -30t-62 -20.5q-37 -4 -67.5 3t-51 24.5t-33.5 33t-25.5 34t-14.5 20.5q-2 4 -4 6q-2 0 -4 -2q-35 -12 -117 -103q-14 -14 -34.5 -15t-35 12.5t-15.5 34zM145 254q-29 -100 54 -150 q43 -25 127 -18q72 6 143 33q104 37 205 119q8 181 -12 335q-39 61 -138 37q-113 -29 -231.5 -139.5t-147.5 -216.5z" />
<glyph unicode="&#xe4;" d="M49 281q37 133 176 262q137 127 277 162q74 18 133 2q-4 14 -6 26q-49 156 -133 182q-102 31 -277 -124q-14 -14 -34.5 -12.5t-35 16t-12 35t16.5 34.5q217 193 370 144q135 -41 199 -246q20 -74 35 -164v-2q39 -281 -2 -565q-4 -18 -20.5 -30.5t-36 -9.5t-32 19.5 t-10.5 36.5q4 29 9 62q-80 -53 -164 -84q-84 -29 -168 -37q-115 -10 -184 30q-76 45 -98.5 114t-2.5 149zM145 254q-29 -100 54 -150q43 -25 127 -18q72 6 143 33q104 37 205 119q8 181 -12 335q-39 61 -138 37q-113 -29 -231.5 -139.5t-147.5 -216.5zM223 1210.5 q0 20.5 14.5 35t35 14.5t35 -14.5t14.5 -35t-14.5 -35t-35 -14.5t-35 14.5t-14.5 35zM492 1214.5q0 20.5 14 35t34.5 14.5t35 -14.5t14.5 -35t-14.5 -35t-35 -14.5t-34.5 14.5t-14 35z" />
<glyph unicode="&#xe5;" d="M49 281q37 133 176 262q137 127 277 162q74 18 133 2q-4 14 -6 26q-49 156 -133 182q-102 31 -277 -124q-14 -14 -34.5 -12.5t-35 16t-12 35t16.5 34.5q217 193 370 144q135 -41 199 -246q20 -74 35 -164v-2q39 -281 -2 -565q-4 -18 -20.5 -30.5t-36 -9.5t-32 19.5 t-10.5 36.5q4 29 9 62q-80 -53 -164 -84q-84 -29 -168 -37q-115 -10 -184 30q-76 45 -98.5 114t-2.5 149zM145 254q-29 -100 54 -150q43 -25 127 -18q72 6 143 33q104 37 205 119q8 181 -12 335q-39 61 -138 37q-113 -29 -231.5 -139.5t-147.5 -216.5zM258 1184q-4 23 2 51 q12 53 49 106q58 84 142 107q12 14 32 16q61 4 99 -10q49 -18 59 -65q10 -61 -63 -140q-57 -61 -132 -100q-96 -51 -151 -21q-31 16 -37 56zM358 1219q18 4 41 16q59 33 107 82q18 18 29 35h-5q-80 23 -141 -68q-23 -33 -31 -65z" />
<glyph unicode="&#xe6;" horiz-adv-x="1236" d="M49 281q37 133 176 262q137 127 277 162q76 20 137 2q-6 25 -14 47q-8 25 -19 47q-10 10 -14 26q-41 74 -98 91q-104 27 -277 -115q-14 -14 -34.5 -12t-34 17t-11 36t18.5 33q209 176 362 135q78 -20 135 -97q70 59 154 89q82 27 156 14q102 -16 145 -105q45 -90 12 -231 q-31 -139 -133 -276q-100 -139 -219 -236q-2 0 -2 -2q-4 -37 -10 -72q8 -16 22 -22q39 -16 111 12q76 29 142.5 88t82.5 111q6 18 24.5 27.5t38 3t28.5 -25t3 -38.5q-25 -74 -108.5 -147.5t-175.5 -110.5q-109 -41 -185 -10q-70 31 -88 114q-72 -45 -149 -73 q-84 -29 -168 -37q-115 -10 -184 30q-76 45 -98.5 114t-2.5 149zM145 254q-29 -100 54 -150q43 -27 127 -18q72 6 143 33q102 35 205 117q10 174 -8 329v2q-37 68 -142 43q-113 -29 -231.5 -139.5t-147.5 -216.5zM702 827l17 -41q65 -188 55 -479q90 88 160 192.5t92 202.5 q25 109 -6 166q-20 45 -73.5 53.5t-121 -16t-123.5 -78.5z" />
<glyph unicode="&#xe7;" horiz-adv-x="778" d="M19.5 374q-3.5 122 25.5 228q29 104 74 189q66 123 139 186q59 51 115 53q76 2 125 -76q12 -16 7 -36.5t-21.5 -32t-37 -6t-30.5 21.5q-20 31 -39 31q-23 0 -55 -29q-59 -51 -117 -158q-41 -78 -65.5 -172t-22.5 -193t41 -165q61 -106 172 -90q51 8 101 42t85 83 q86 119 121 223q8 18 25.5 27.5t37 2.5t28.5 -24.5t3 -38.5q-41 -117 -133 -247q-45 -61 -107.5 -104.5t-132.5 -57.5q-2 -4 -4 -6q-6 -6 -29.5 -35t-29.5 -37t-27.5 -33.5t-31.5 -38.5l-29 -33q-20 -20 -35 -32l-33 -33q-18 -16 -37 -31q-14 -14 -34.5 -12t-34 17.5t-11 36 t18.5 32.5q78 68 195 209q-102 27 -164 131q-49 86 -52.5 208z" />
<glyph unicode="&#xe8;" d="M74 436q-16 174 30 330q51 172 162 235q47 27 98.5 31t97.5 -12t85 -40t71 -56q66 -63 99 -136q16 -35 20 -65q4 -45 -22 -72q-6 -6 -11.5 -9t-9.5 -3h-2l-4 -2h-2h-2h-2h-4l-16 -2l-58 -4l-176 -13l-256 -16q-8 -80 0 -158q16 -162 85 -263t175 -103q88 -2 141.5 47 t102.5 154q10 18 28.5 25t37 -2t25.5 -27.5t-1 -36.5q-29 -57 -54.5 -97.5t-65.5 -81.5t-93 -61q-55 -20 -121 -18q-84 2 -149 40q-68 41 -110 109t-66.5 144.5t-32.5 162.5zM188 700l234 17l176 12l37 2q-2 8 -6 17q-27 53 -78 104q-59 57 -118.5 74.5t-117.5 -11.5 q-76 -43 -116 -178q-6 -18 -11 -37zM194.5 1334.5q-6.5 19.5 4 37t30 23.5t35.5 -4q63 -33 240 -152q18 -12 21 -31.5t-8 -37t-30.5 -20.5t-35.5 7q-170 113 -232 148q-18 10 -24.5 29.5z" />
<glyph unicode="&#xe9;" d="M74 436q-16 174 30 330q51 172 162 235q47 27 98.5 31t97.5 -12t85 -40t71 -56q66 -63 99 -136q16 -35 20 -65q4 -45 -22 -72q-6 -6 -11.5 -9t-9.5 -3h-2l-4 -2h-2h-2h-2h-4l-16 -2l-58 -4l-176 -13l-256 -16q-8 -80 0 -158q16 -162 85 -263t175 -103q88 -2 141.5 47 t102.5 154q10 18 28.5 25t37 -2t25.5 -27.5t-1 -36.5q-29 -57 -54.5 -97.5t-65.5 -81.5t-93 -61q-55 -20 -121 -18q-84 2 -149 40q-68 41 -110 109t-66.5 144.5t-32.5 162.5zM188 700l234 17l176 12l37 2q-2 8 -6 17q-27 53 -78 104q-59 57 -118.5 74.5t-117.5 -11.5 q-76 -43 -116 -178q-6 -18 -11 -37zM305 1147q-2 21 10 37q55 68 110.5 112.5t133.5 79.5q18 8 37.5 1t28 -25.5t1 -38t-25.5 -27.5q-68 -31 -114 -67.5t-93 -96.5q-12 -16 -32.5 -18t-37 10t-18.5 33z" />
<glyph unicode="&#xea;" d="M74 436q-16 174 30 330q51 172 162 235q47 27 98.5 31t97.5 -12t85 -40t71 -56q66 -63 99 -136q16 -35 20 -65q4 -45 -22 -72q-6 -6 -11.5 -9t-9.5 -3h-2l-4 -2h-2h-2h-2h-4l-16 -2l-58 -4l-176 -13l-256 -16q-8 -80 0 -158q16 -162 85 -263t175 -103q88 -2 141.5 47 t102.5 154q10 18 28.5 25t37 -2t25.5 -27.5t-1 -36.5q-29 -57 -54.5 -97.5t-65.5 -81.5t-93 -61q-55 -20 -121 -18q-84 2 -149 40q-68 41 -110 109t-66.5 144.5t-32.5 162.5zM157 1161.5q-3 20.5 7 36.5l57 82q37 55 53 76q55 74 103 84q59 12 121 -56q39 -41 118 -165 q12 -16 7 -37t-21 -32t-36.5 -6t-30.5 21q-78 117 -109 154q-20 20 -29 24q-14 -6 -43 -45l-53 -77l-55 -80q-12 -16 -32.5 -19.5t-37 8t-19.5 32zM188 700l234 17l176 12l37 2q-2 8 -6 17q-27 53 -78 104q-59 57 -118.5 74.5t-117.5 -11.5q-76 -43 -116 -178 q-6 -18 -11 -37z" />
<glyph unicode="&#xeb;" d="M74 436q-16 174 30 330q51 172 162 235q47 27 98.5 31t97.5 -12t85 -40t71 -56q66 -63 99 -136q16 -35 20 -65q4 -45 -22 -72q-6 -6 -11.5 -9t-9.5 -3h-2l-4 -2h-2h-2h-2h-4l-16 -2l-58 -4l-176 -13l-256 -16q-8 -80 0 -158q16 -162 85 -263t175 -103q88 -2 141.5 47 t102.5 154q10 18 28.5 25t37 -2t25.5 -27.5t-1 -36.5q-29 -57 -54.5 -97.5t-65.5 -81.5t-93 -61q-55 -20 -121 -18q-84 2 -149 40q-68 41 -110 109t-66.5 144.5t-32.5 162.5zM188 700l234 17l176 12l37 2q-2 8 -6 17q-27 53 -78 104q-59 57 -118.5 74.5t-117.5 -11.5 q-76 -43 -116 -178q-6 -18 -11 -37zM209 1245.5q0 20.5 14.5 34.5t35 14t34.5 -14t14 -34.5t-14 -35t-34.5 -14.5t-35 14.5t-14.5 35zM475 1239.5q0 20.5 14.5 34.5t35 14t34.5 -14t14 -34.5t-14 -35t-34.5 -14.5t-35 14.5t-14.5 35z" />
<glyph unicode="&#xec;" horiz-adv-x="313" d="M12.5 1351.5q1.5 20.5 17 34t36 11t32.5 -18.5l158 -182q14 -14 12 -34.5t-16 -35t-34.5 -12.5t-35.5 16l-157 187q-14 14 -12.5 34.5zM91 489.5q5 90.5 17.5 239t16.5 215.5q2 20 16.5 33.5t35 12.5t33.5 -15.5t13 -34.5q-4 -76 -16 -222.5t-17.5 -232.5t2 -206.5 t31.5 -221.5q6 -20 -5 -37.5t-30.5 -22.5t-37 6t-21.5 30q-27 109 -35 237.5t-3 219z" />
<glyph unicode="&#xed;" horiz-adv-x="403" d="M81 1122.5q-3 20.5 7 36.5q96 135 193 205q16 10 36.5 7t31.5 -19.5t8 -37t-19 -32.5q-84 -57 -168 -180q-12 -16 -32.5 -19.5t-37 8t-19.5 32zM91 489.5q5 90.5 17.5 239t16.5 215.5q2 20 16.5 33.5t35 12.5t33.5 -15.5t13 -34.5q-4 -76 -16 -222.5t-17.5 -232.5 t2 -206.5t31.5 -221.5q6 -20 -5 -37.5t-30.5 -22.5t-37 6t-21.5 30q-27 109 -35 237.5t-3 219z" />
<glyph unicode="&#xee;" horiz-adv-x="591" d="M45 1165.5q0 20.5 14 34.5q76 76 148 162q27 35 37 43q27 27 55 29q29 0 55 -27q2 -2 33 -35q59 -61 137 -117q16 -12 19.5 -32.5t-8 -37t-32 -19.5t-36.5 8q-86 63 -152 131l-14 16l-18 -21q-74 -90 -154 -170q-14 -14 -34.5 -14t-35 14.5t-14.5 35zM193.5 483 q5.5 90 17.5 238.5t16 216.5q2 20 16.5 33.5t35 12.5t34 -15.5t13.5 -34.5q-4 -76 -16.5 -222.5t-17.5 -232.5t2 -206.5t32 -221.5q6 -20 -5.5 -37.5t-31 -22.5t-36.5 6t-22 30q-27 109 -35 237.5t-2.5 218.5z" />
<glyph unicode="&#xef;" horiz-adv-x="415" d="M14 1171.5q0 20.5 14.5 35t35 14.5t35 -14.5t14.5 -35t-14.5 -35t-35 -14.5t-35 14.5t-14.5 35zM89 489.5q5 90.5 17.5 239t16.5 215.5q2 20 16.5 33.5t35 12.5t33.5 -15.5t13 -34.5q-4 -76 -16 -222.5t-17.5 -232.5t2 -206.5t31.5 -221.5q6 -20 -5 -37.5t-30.5 -22.5 t-37 6t-21.5 30q-27 109 -35 237.5t-3 219zM270 1185.5q0 20.5 14.5 35t35 14.5t35 -14.5t14.5 -35t-14.5 -34.5t-35 -14t-35 14t-14.5 34.5z" />
<glyph unicode="&#xf0;" horiz-adv-x="796" d="M-9 1173.5q-3 20.5 8 37t31.5 19.5t37.5 -7q141 -98 251 -205q74 70 162 164q14 16 35 16t36 -13.5t15 -34t-12 -34.5q-92 -98 -166 -168q92 -96 156 -196q78 27 151 41q20 2 37 -9.5t20 -32t-8.5 -37t-31.5 -20.5q-57 -10 -119 -28q35 -70 55 -140q25 -88 9.5 -182 t-64.5 -172q-53 -84 -136 -130t-186 -32q-72 10 -125 53t-76.5 101.5t-21.5 125t33 124.5q96 184 369 303q-56 84 -134 166q-147 -123 -256 -162q-20 -6 -37.5 3t-24.5 28.5t2 37t28 25.5q90 31 217 137q-104 98 -236 189q-16 12 -19 32.5zM162 203q37 -84 123 -94 q141 -18 225 116q39 59 51 134t-6 139q-18 67 -53 133q-252 -106 -334 -262q-43 -82 -6 -166z" />
<glyph unicode="&#xf1;" horiz-adv-x="942" d="M41 977q-2 20 9 36.5t31.5 19.5t37 -8t20.5 -32q31 -178 51 -530q53 147 119 264q84 150 170 217q119 92 234 31q78 -41 123 -187q33 -111 49 -280q20 -219 12 -504q0 -20 -15.5 -33.5t-36 -13.5t-33.5 15.5t-13 35.5q8 270 -13 490q-14 164 -45 262q-33 106 -73 129 q-59 31 -127 -23q-72 -55 -146 -188q-61 -111 -108 -240q-47 -127 -58 -196q-6 -27 -6 -90q0 -68 -6 -105q-2 -8 -4 -12q-6 -10 -14 -19q-20 -18 -47 -8q-10 4 -17.5 11.5t-9.5 11.5l-2 4l-4 8q0 6 -2 14q-2 12 -4 35q-2 41 -7 94q-2 39 -5 112t-5 110q-25 399 -55 569z M127 1177.5q-2 20.5 12 36.5q72 82 146 115q111 49 207 -16q2 -2 51 -47q16 -14 30 -17q20 -4 60 25l41 33q27 25 43 35t35.5 7t31 -20.5t8 -37t-21.5 -31.5q-10 -6 -33 -27q-31 -27 -47 -37q-70 -53 -129 -45q-45 6 -84 41l-20 20q-14 12 -23 19q-49 35 -108 8 q-55 -23 -113 -90q-12 -14 -32.5 -16.5t-36 11t-17.5 34z" />
<glyph unicode="&#xf2;" horiz-adv-x="751" d="M20 477q10 207 95 367q96 184 243 194q29 2 62 -12l20 -8l13 -6q12 -5 20 -13q74 -33 127 -104q100 -131 115 -342q12 -207 -64 -367q-88 -186 -260 -209q-199 -25 -301 146q-80 137 -70 354zM119 473q-10 -188 57 -301q68 -115 203 -96q117 14 184 153q63 135 53 318 q-12 180 -94 289t-213 84h-4q-57 -35 -104 -123q-74 -137 -82 -324zM175.5 1335.5q-3.5 20.5 9 35.5t33 18t34.5 -9l129 -94q86 -61 129 -102q14 -14 15 -35t-12 -35t-33.5 -15t-35.5 11q-47 43 -120 96l-129 97q-16 12 -19.5 32.5z" />
<glyph unicode="&#xf3;" horiz-adv-x="751" d="M20 477q10 207 95 367q96 184 243 194q29 2 62 -12l20 -8l13 -6q12 -5 20 -13q74 -33 127 -104q100 -131 115 -342q12 -207 -64 -367q-88 -186 -260 -209q-199 -25 -301 146q-80 137 -70 354zM119 473q-10 -188 57 -301q68 -115 203 -96q117 14 184 153q63 135 53 318 q-12 180 -94 289t-213 84h-4q-57 -35 -104 -123q-74 -137 -82 -324zM229.5 1143q0.5 21 14.5 35l35 34l36 35q10 10 35 31.5t41 34.5l37 30q23 16 45.5 29.5t44.5 24.5q18 10 37.5 4t29 -24.5t3.5 -38t-25 -27.5q-20 -10 -38.5 -21.5t-39.5 -27.5l-32 -25q-14 -10 -37 -33 l-33 -28q-8 -8 -37 -35l-33 -33q-14 -14 -34.5 -14t-35 14t-14 35z" />
<glyph unicode="&#xf4;" horiz-adv-x="751" d="M20 477q10 207 95 367q96 184 243 194q29 2 62 -12l20 -8l13 -6q12 -5 20 -13q74 -33 127 -104q100 -131 115 -342q12 -207 -64 -367q-88 -186 -260 -209q-199 -25 -301 146q-80 137 -70 354zM119 473q-10 -188 57 -301q68 -115 203 -96q117 14 184 153q63 135 53 318 q-12 180 -94 289t-213 84h-4q-57 -35 -104 -123q-74 -137 -82 -324zM143.5 1155.5q0.5 20.5 12.5 34.5q8 8 39 49l63 78q39 49 64 74q16 16 28 26q10 6 19 10q23 8 43 0q14 -6 30 -22l21 -25q12 -16 45 -65l72 -107q14 -16 12 -36.5t-17.5 -34t-36 -11.5t-32.5 17 q-10 12 -80 117l-39 57q-20 -20 -53 -62l-62 -77l-43 -54q-14 -16 -34.5 -16t-36 13.5t-15 34z" />
<glyph unicode="&#xf5;" horiz-adv-x="751" d="M20 477q10 207 95 367q96 184 243 194q29 2 62 -12l20 -8l13 -6q12 -5 20 -13q74 -33 127 -104q100 -131 115 -342q12 -207 -64 -367q-88 -186 -260 -209q-199 -25 -301 146q-80 137 -70 354zM75 1180q-7 19 1 39q53 121 137 127q47 4 135 -46q70 -39 105 -40 q53 -2 108 61q14 14 34.5 16t35 -12t16.5 -34.5t-12 -35.5q-88 -98 -189 -92q-57 2 -145 51q-61 35 -80 35q-27 -2 -55 -71q-8 -18 -26.5 -25.5t-38 0.5t-26.5 27zM119 473q-10 -188 57 -301q68 -115 203 -96q117 14 184 153q63 135 53 318q-12 180 -94 289t-213 84h-4 q-57 -35 -104 -123q-74 -137 -82 -324z" />
<glyph unicode="&#xf6;" horiz-adv-x="751" d="M20 477q10 207 95 367q96 184 243 194q29 2 62 -12l20 -8l13 -6q12 -5 20 -13q74 -33 127 -104q100 -131 115 -342q12 -207 -64 -367q-88 -186 -260 -209q-199 -25 -301 146q-80 137 -70 354zM119 473q-10 -188 57 -301q68 -115 203 -96q117 14 184 153q63 135 53 318 q-12 180 -94 289t-213 84h-4q-57 -35 -104 -123q-74 -137 -82 -324zM195 1185.5q0 20.5 14 35t34.5 14.5t35 -14.5t14.5 -35t-14.5 -34.5t-35 -14t-34.5 14t-14 34.5zM412 1194q0 20 14 34.5t34.5 14.5t35 -14.5t14.5 -34.5t-14.5 -34.5t-35 -14.5t-34.5 14.5t-14 34.5z" />
<glyph unicode="&#xf7;" horiz-adv-x="790" d="M-25 661.5q0 20.5 16 34t36 13.5q133 -4 367.5 34.5t295.5 44.5q18 2 34.5 -11t18.5 -32.5t-11 -36t-34 -18.5q-37 -4 -286.5 -44t-388.5 -36q-20 0 -34 15.5t-14 36zM287 426q0 20 14 34.5t34.5 14.5t35 -14.5t14.5 -34.5t-14.5 -34.5t-35 -14.5t-34.5 14.5t-14 34.5z M289 976.5q0 20.5 14 35t34.5 14.5t35 -14.5t14.5 -35t-14.5 -34.5t-35 -14t-34.5 14t-14 34.5z" />
<glyph unicode="&#xf8;" horiz-adv-x="751" d="M20 477q10 207 95 367q96 184 243 194q29 2 62 -12l20 -8l13 -6q12 -5 20 -13q74 -33 127 -104q100 -131 115 -342q12 -207 -64 -367q-88 -186 -260 -209q-199 -25 -301 146q-80 137 -70 354zM119 473q-4 -78 6 -143q280 299 442 428q-20 45 -45 78q-82 109 -213 84h-4 q-57 -35 -104 -123q-74 -137 -82 -324zM154 219q10 -27 22 -47q68 -115 203 -96q117 14 184 153q63 135 53 318q-4 57 -16 110l-65 -55q-31 -27 -70 -65l-59 -58q-20 -18 -68 -67l-57 -60l-68 -69z" />
<glyph unicode="&#xf9;" horiz-adv-x="839" d="M61 743q2 39 4.5 87.5t3.5 78t1 45.5q0 20 14 35t34.5 15t35 -15t14.5 -35q0 -16 -1 -46.5t-3 -80t-4 -88.5q-6 -184 2 -319q10 -184 47 -273q18 -45 43 -61q18 -14 45 -10q115 27 192 241q20 57 36 119t34.5 149t20.5 95q27 125 34 182v6v17v18q0 23 4 35q10 37 48 39 q27 0 45 -23q6 -10 10 -22q2 -4 2 -12q2 -12 4 -31q4 -33 8 -96q2 -33 19 -283q27 -424 43 -498q6 -20 -5.5 -37.5t-31 -22.5t-36.5 6t-22 30q-20 84 -47 516l-2 49q-35 -166 -71 -268q-98 -268 -265 -303q-70 -16 -124 24q-45 35 -74 105q-43 104 -56 303q-8 137 -2 329z M192 1269.5q1 20.5 15 34t34.5 12t34.5 -15.5q123 -137 222 -210q16 -12 19 -32t-9 -36t-31.5 -19.5t-36.5 9.5q-104 76 -237 223q-12 14 -11 34.5z" />
<glyph unicode="&#xfa;" horiz-adv-x="839" d="M61 743q2 39 4.5 87.5t3.5 78t1 45.5q0 20 14 35t34.5 15t35 -15t14.5 -35q0 -16 -1 -46.5t-3 -80t-4 -88.5q-6 -184 2 -319q10 -184 47 -273q18 -45 43 -61q18 -14 45 -10q115 27 192 241q20 57 36 119t34.5 149t20.5 95q27 125 34 182v6v17v18q0 23 4 35q10 37 48 39 q27 0 45 -23q6 -10 10 -22q2 -4 2 -12q2 -12 4 -31q4 -33 8 -96q2 -33 19 -283q27 -424 43 -498q6 -20 -5.5 -37.5t-31 -22.5t-36.5 6t-22 30q-20 84 -47 516l-2 49q-35 -166 -71 -268q-98 -268 -265 -303q-70 -16 -124 24q-45 35 -74 105q-43 104 -56 303q-8 137 -2 329z M265 1082.5q-3 19.5 7 37.5q57 82 124 135.5t161 96.5q18 8 37.5 1t28 -25.5t1 -38t-25.5 -27.5q-86 -39 -141 -82q-55 -45 -103 -117q-12 -16 -31.5 -19.5t-37 8t-20.5 31z" />
<glyph unicode="&#xfb;" horiz-adv-x="839" d="M61 743q2 39 4.5 87.5t3.5 78t1 45.5q0 20 14 35t34.5 15t35 -15t14.5 -35q0 -16 -1 -46.5t-3 -80t-4 -88.5q-6 -184 2 -319q10 -184 47 -273q18 -45 43 -61q18 -14 45 -10q115 27 192 241q20 57 36 119t34.5 149t20.5 95q27 125 34 182v6v17v18q0 23 4 35q10 37 48 39 q27 0 45 -23q6 -10 10 -22q2 -4 2 -12q2 -12 4 -31q4 -33 8 -96q2 -33 19 -283q27 -424 43 -498q6 -20 -5.5 -37.5t-31 -22.5t-36.5 6t-22 30q-20 84 -47 516l-2 49q-35 -166 -71 -268q-98 -268 -265 -303q-70 -16 -124 24q-45 35 -74 105q-43 104 -56 303q-8 137 -2 329z M147.5 1143q0.5 21 14.5 35l76 79q43 45 43 48q55 59 100 63q49 4 115 -51q16 -14 149 -139q14 -12 14 -33t-13 -36t-33.5 -15t-37.5 14q-129 123 -143 135t-25.5 19.5t-13.5 7.5h-2q-8 0 -39 -33l-43 -49q-45 -47 -78 -80q-14 -14 -34.5 -14t-35 14t-14 35z" />
<glyph unicode="&#xfc;" horiz-adv-x="839" d="M61 743q2 39 4.5 87.5t3.5 78t1 45.5q0 20 14 35t34.5 15t35 -15t14.5 -35q0 -16 -1 -46.5t-3 -80t-4 -88.5q-6 -184 2 -319q10 -184 47 -273q18 -45 43 -61q18 -14 45 -10q115 27 192 241q20 57 36 119t34.5 149t20.5 95q27 125 34 182v6v17v18q0 23 4 35q10 37 48 39 q27 0 45 -23q6 -10 10 -22q2 -4 2 -12q2 -12 4 -31q4 -33 8 -96q2 -33 19 -283q27 -424 43 -498q6 -20 -5.5 -37.5t-31 -22.5t-36.5 6t-22 30q-20 84 -47 516l-2 49q-35 -166 -71 -268q-98 -268 -265 -303q-70 -16 -124 24q-45 35 -74 105q-43 104 -56 303q-8 137 -2 329z M248 1181.5q0 20.5 14 35t34.5 14.5t35 -14.5t14.5 -35t-14.5 -34.5t-35 -14t-34.5 14t-14 34.5zM459 1185.5q0 20.5 14 35t34.5 14.5t35 -14.5t14.5 -35t-14.5 -34.5t-35 -14t-34.5 14t-14 34.5z" />
<glyph unicode="&#xfd;" horiz-adv-x="886" d="M53 956q-6 20 4.5 38t29.5 24t36.5 -4t23.5 -29q57 -203 152.5 -403.5t210.5 -315.5q92 176 155.5 365.5t82.5 343.5q2 20 18 32.5t36.5 10.5t33 -18.5t10.5 -36.5q-23 -172 -95.5 -386.5t-181.5 -406.5q-2 -6 -6 -10q-166 -295 -352 -428q-16 -12 -36.5 -9t-32 19 t-8.5 36.5t20 31.5q160 114 307 368q-133 123 -238 342q-104 215 -170 436zM370 1089.5q-7 18.5 1 36.5q74 174 219 293q16 12 35.5 10t33 -18t11.5 -35.5t-19 -34.5q-127 -102 -190 -251q-8 -20 -26.5 -27.5t-38 0.5t-26.5 26.5z" />
<glyph unicode="&#xfe;" horiz-adv-x="835" d="M25 -276q49 285 56 593t-13 601q-2 39 -3.5 84t-2.5 99t-1 85q-4 158 -20 260q-2 20 10 36.5t31.5 19.5t36 -9.5t20.5 -30.5q16 -111 21 -274q0 -31 1 -84t2 -98t3 -84l2 -56q33 33 76 54q133 70 278 75q90 4 162 -29.5t96 -121.5q61 -221 -194 -514q-96 -111 -211 -203 q-117 -90 -215 -137q-14 -141 -37 -283q-4 -20 -20.5 -31.5t-37 -8.5t-31.5 19.5t-9 37.5zM168 106q186 109 344 287q102 119 149.5 229.5t24.5 196.5q-25 84 -160 78q-125 -6 -237 -63q-35 -18 -57.5 -42t-55.5 -73h-2q12 -351 -6 -613z" />
<glyph unicode="&#xff;" horiz-adv-x="886" d="M53 956q-6 20 4.5 38t29.5 24t36.5 -4t23.5 -29q57 -203 152.5 -403.5t210.5 -315.5q92 176 155.5 365.5t82.5 343.5q2 20 18 32.5t36.5 10.5t33 -18.5t10.5 -36.5q-23 -172 -95.5 -386.5t-181.5 -406.5q-2 -6 -6 -10q-166 -295 -352 -428q-16 -12 -36.5 -9t-32 19 t-8.5 36.5t20 31.5q160 114 307 368q-133 123 -238 342q-104 215 -170 436zM295 1159.5q0 20.5 14.5 34.5t35 14t34.5 -14t14 -34.5t-14 -35t-34.5 -14.5t-35 14.5t-14.5 35zM510 1169.5q0 20.5 14.5 35t35 14.5t34.5 -14.5t14 -35t-14 -35t-34.5 -14.5t-35 14.5t-14.5 35z " />
<glyph unicode="&#x152;" horiz-adv-x="1507" d="M145 760q37 268 136 477q104 219 235 268q4 2 8 2q8 2 15 4q20 6 36 -4q244 -14 730 25q20 2 35.5 -11.5t17.5 -34t-11.5 -35.5t-33.5 -17q-420 -33 -631 -29q117 -92 198 -234.5t97 -279.5l4 -37q281 55 463 25q20 -4 31.5 -20.5t8.5 -37t-19.5 -32t-37.5 -9.5 q-170 31 -446 -26q-8 -233 -107 -426q-43 -84 -100 -148q6 2 71.5 15.5t78.5 15.5l69 12q57 10 78 11.5t72 5.5t80.5 1t74.5 -6.5t85 -12.5t81 -21q20 -6 29.5 -24.5t3.5 -38t-24.5 -29t-36.5 -3.5q-104 33 -213 36t-189 -11t-207 -41t-217 -37h-16q-90 -33 -193 -24 q-180 16 -243 256q-51 195 -13 475zM244 745q-37 -262 8 -434q45 -174 158 -184q240 -23 376 246q59 117 83 253t10 253q-18 156 -125 307.5t-242 204.5q-76 -53 -143 -195q-88 -193 -125 -451z" />
<glyph unicode="&#x153;" horiz-adv-x="1331" d="M-27 362q0 84 21 173q41 178 139 315q109 154 234 176q27 4 57 -8l18 -6q6 -2 11 -4q27 -6 34 -33q10 -6 21 -14q45 -33 100 -117q23 43 35 55q43 53 115.5 98t150.5 62q90 20 160 -6q86 -31 123 -125q33 -76 20.5 -161t-51.5 -158.5t-98 -139.5q-82 -90 -187.5 -145.5 t-203.5 -53.5q-12 -123 43 -184q47 -53 141 -51q96 2 192.5 59.5t145.5 149.5q8 18 27.5 24t38 -3t24.5 -28.5t-4 -37.5q-59 -117 -180 -188.5t-242 -73.5q-137 -2 -217 83q-41 45 -59 111q-147 -195 -349 -147q-94 20 -153.5 78.5t-82 137.5t-24.5 162zM90 512 q-39 -168 2 -287t162 -147q160 -37 274 147q51 82 75 180.5t15 174.5q-10 88 -92 211q-47 68 -77 92q-38 27 -101 35q-70 -31 -135 -123q-86 -123 -123 -283zM670 743q39 -76 47 -151q10 -100 -21 -221q70 4 149 48t146 116q80 88 111 183t0 173q-23 53 -68 70 q-41 16 -104 2q-59 -12 -118.5 -49t-94.5 -76q-4 -6 -23 -41z" />
<glyph unicode="&#x2000;" horiz-adv-x="907" />
<glyph unicode="&#x2001;" horiz-adv-x="1815" />
<glyph unicode="&#x2002;" horiz-adv-x="907" />
<glyph unicode="&#x2003;" horiz-adv-x="1815" />
<glyph unicode="&#x2004;" horiz-adv-x="605" />
<glyph unicode="&#x2005;" horiz-adv-x="453" />
<glyph unicode="&#x2006;" horiz-adv-x="302" />
<glyph unicode="&#x2007;" horiz-adv-x="302" />
<glyph unicode="&#x2008;" horiz-adv-x="226" />
<glyph unicode="&#x2009;" horiz-adv-x="363" />
<glyph unicode="&#x200a;" horiz-adv-x="100" />
<glyph unicode="&#x2010;" horiz-adv-x="659" d="M27 653.5q0 20.5 14.5 34.5t34.5 14q57 0 123.5 5.5t111.5 11.5l125 16q80 10 121 17q20 2 36.5 -10.5t18.5 -33t-10 -37t-33 -18.5q-37 -4 -118 -14l-127 -18q-47 -6 -117 -11.5t-131 -5.5q-20 0 -34.5 14.5t-14.5 35z" />
<glyph unicode="&#x2011;" horiz-adv-x="659" d="M27 653.5q0 20.5 14.5 34.5t34.5 14q57 0 123.5 5.5t111.5 11.5l125 16q80 10 121 17q20 2 36.5 -10.5t18.5 -33t-10 -37t-33 -18.5q-37 -4 -118 -14l-127 -18q-47 -6 -117 -11.5t-131 -5.5q-20 0 -34.5 14.5t-14.5 35z" />
<glyph unicode="&#x2012;" horiz-adv-x="659" d="M27 653.5q0 20.5 14.5 34.5t34.5 14q57 0 123.5 5.5t111.5 11.5l125 16q80 10 121 17q20 2 36.5 -10.5t18.5 -33t-10 -37t-33 -18.5q-37 -4 -118 -14l-127 -18q-47 -6 -117 -11.5t-131 -5.5q-20 0 -34.5 14.5t-14.5 35z" />
<glyph unicode="&#x2013;" horiz-adv-x="1097" d="M27 653.5q0 20.5 25.5 34.5t60.5 14q99 0 215.5 5.5t195.5 11.5l219 16q140 10 211 17q35 2 64 -10.5t32.5 -33t-17.5 -37t-58 -18.5q-64 -4 -206 -14l-222 -18q-83 -6 -205.5 -11.5t-228.5 -5.5q-35 0 -60.5 14.5t-25.5 35z" />
<glyph unicode="&#x2014;" horiz-adv-x="2121" d="M27 653.5q0 20.5 50.5 34.5t120.5 14q200 0 432.5 5.5t390.5 11.5l437 16q280 10 424 17q70 2 127.5 -10.5t64.5 -33t-35 -37t-115 -18.5q-130 -4 -413 -14l-445 -18q-164 -6 -409 -11.5t-459 -5.5q-70 0 -120.5 14.5t-50.5 35z" />
<glyph unicode="&#x2018;" horiz-adv-x="382" d="M39 1188q0 59 18.5 115.5t53 105.5t65.5 83t76 77q16 14 36.5 14t34 -15.5t13.5 -36t-14 -32.5q-90 -86 -137.5 -157.5t-47.5 -153.5q0 -20 -14 -34.5t-34.5 -14.5t-35 14t-14.5 35z" />
<glyph unicode="&#x2019;" horiz-adv-x="352" d="M73 1222.5q1 20.5 15 34.5q61 57 91 107.5t28 112.5q0 20 13 35.5t33.5 15.5t36 -13.5t15.5 -33.5q4 -92 -37 -161t-114 -136q-14 -12 -35 -11t-34 15t-12 34.5z" />
<glyph unicode="&#x201c;" horiz-adv-x="659" d="M41 1171q25 199 211 385q14 14 34.5 14.5t35 -14t14.5 -35t-14 -34.5q-80 -80 -126 -158t-57 -170q-2 -20 -18.5 -32.5t-37 -10.5t-32.5 18.5t-10 36.5zM336 1186q12 197 196 362q14 12 35 11.5t34 -15t12 -35t-15 -34.5q-154 -139 -164 -297q-2 -18 -17.5 -33t-35 -12.5 t-33.5 17.5t-12 36z" />
<glyph unicode="&#x201d;" horiz-adv-x="636" d="M31 1211.5q6 19.5 24 29.5q172 96 178 238q0 20 15.5 33.5t36 13.5t34 -15.5t13.5 -35.5q-4 -104 -69.5 -185.5t-162.5 -134.5q-16 -10 -35.5 -4t-29.5 23.5t-4 37zM279.5 1165.5q5.5 20.5 23.5 30.5q195 115 195 277q0 20 14 34.5t34.5 14.5t35 -14.5t14.5 -34.5 q0 -217 -244 -363q-16 -10 -36.5 -5t-31 22.5t-5 38z" />
<glyph unicode="&#x202f;" horiz-adv-x="363" />
<glyph unicode="&#x205f;" horiz-adv-x="453" />
<glyph unicode="&#x20ac;" horiz-adv-x="1294" d="M-23.5 426q5.5 20 23.5 31q80 47 236 78q12 106 45 221q-121 -20 -226 -54q-18 -6 -36.5 3.5t-24.5 29t3 38t30 24.5q131 41 286 63q35 98 80 187q43 82 93.5 152.5t114 131t132 94t149.5 43t162 -21.5q18 -8 27.5 -26.5t2.5 -37t-25.5 -27.5t-36.5 -3 q-145 53 -284.5 -45.5t-246.5 -305.5q-33 -61 -57 -127q199 20 532 21q20 0 35 -14.5t15 -35t-14.5 -34.5t-35.5 -14q-360 0 -569 -27q-35 -113 -49 -219q57 8 117 12q303 27 465 -12q18 -4 29.5 -21.5t6 -37t-23 -30.5t-37.5 -5q-145 35 -430 10q-72 -6 -135 -16 q-4 -113 22 -185q41 -119 150.5 -163t251.5 -15q137 29 250.5 119t152.5 209q6 20 24.5 29.5t38 3t28.5 -24.5t3 -37q-47 -150 -182 -255t-297 -140q-76 -18 -154.5 -12t-147.5 31.5t-125 83t-86 139t-30 198.5q-121 -27 -180 -61q-16 -10 -36.5 -5t-31 22.5t-5 37.5z" />
<glyph unicode="&#x25fc;" horiz-adv-x="1024" d="M0 0v1024h1024v-1024h-1024z" />
</font>
</defs>
</svg>
